<?xml version="1.0" encoding="utf-8"?>
<svg xmlns="http://www.w3.org/2000/svg" xmlns:xlink="http://www.w3.org/1999/xlink" style="enable-background:new 0 0 1920 1080" viewBox="0 0 1920 1080">
  <style>
    @keyframes blink{0%{opacity:.5}50%{opacity:.4}100%{opacity:.5}}
    @keyframes moveUp{0%{transform:translateY(0)}50%{transform:translateY(-5px)}100%{transform:translateY(0)}}
    .shine{fill:url(#shine)}
    .ball{opacity:.5;fill:#fff}
    .stroke{opacity:.5;fill:none;stroke:#fff;stroke-width:1.4;stroke-miterlimit:10}
    .background{fill:url(#background)}
    .network{opacity:.5;animation: blink 14s infinite}
    .g1{opacity:.5;clip-path:url(#neural-network);animation: moveUp 4s ease infinite}
    .g1-bg{fill:none;stroke:#fff;stroke-width:1.2;stroke-miterlimit:10}
    .g2{opacity:.7;clip-path:url(#neural-network);animation: moveUp 10s ease infinite}
    .g2-bg{fill:none;stroke:#fff;stroke-width:1.5;stroke-miterlimit:10}
    .g3{clip-path:url(#neural-network);animation: moveUp 5s ease infinite}
    .g3-bg{fill:none;stroke:#fff;stroke-miterlimit:10}
    .g4{opacity:.2;clip-path:url(#neural-network);animation: moveUp 8s ease infinite}
  </style>
  <symbol id="neuron" viewBox="-25.1 -25.1 50.2 50.2">
    <radialGradient id="shine" cx="0" cy="0" r="23.149" gradientUnits="userSpaceOnUse">
      <stop offset="0" style="stop-color:#fff"/>
      <stop offset="1" style="stop-color:#fff;stop-opacity:0"/>
    </radialGradient>
    <circle cx="0" cy="0" r="25.1" class="shine"/>
    <circle cx="0" cy="0" r="10.8" class="ball"/>
    <circle cx="0" cy="0" r="15" class="stroke"/>
  </symbol>
  <radialGradient id="background" cx="779.7225" cy="421.7981" r="415.7155" gradientTransform="matrix(2.2806 0 0 1.8143 -818.2224 -225.2622)" gradientUnits="userSpaceOnUse">
    <stop offset="0" style="stop-color:#fff"/>
    <stop offset="0.2702" style="stop-color:#fcfcfb"/>
    <stop offset="0.5397" style="stop-color:#f5f5ef"/>
    <stop offset="0.8081" style="stop-color:#e8e8db"/>
    <stop offset="1" style="stop-color:#dcdcc8"/>
  </radialGradient>
  <rect width="1920" height="1080" class="background"/>
  <g class="network">
    <defs>
      <rect id="network" width="1920" height="1080" class="network"/>
    </defs>
    <clipPath id="neural-network">
      <use style="overflow:visible" xlink:href="#network"/>
    </clipPath>
    <g class="g1">
      <g>
        <polygon class="g1-bg" points="-809.9 626.8 -686 447.9 -436.5 356.7 -157.8 177.7 7.4 459.9 380.8 437.6 459.9 520.1 551.1 661.2 781.7 793.7 1055.3 1001.9 1309.9 1091.4 1466.5 1268.6 1721.2 1301.3 1939.7 1254.9 1996.5 1499.2 2092.8 1705.7 2199.5 1839.9 1612.8 1705.7 1476.8 1585.2 1650.6 1439 781.7 1144.7 1213.6 1588.7 912.5 1652.3 773.1 1475.1 595.9 1815.8 227.7 1747 84.8 1657.5 -104.4 1576.6 -360.8 1542.2 -536.3 1765.9 -840.9 1839.9 -698 1457.9 -658.5 1144.7 -661.9 879.8"/>
        <line class="g1-bg" x1="7.4" x2="-130.2" y1="459.9" y2="669.8"/>
        <polygon class="g1-bg" points="239.7 890.1 7.4 459.9 380.8 437.6 459.9 520.1 -47.6 859.1 239.7 890.1 -292 1100 186.4 1215.3 480.6 1409.7 781.7 1144.7 788.1 803.2 564.9 950.3 356.7 1043.2"/>
        <polyline class="g1-bg" points="551.1 661.2 239.7 890.1 186.4 1215.3 -104.4 1576.6 -292 1100 -360.8 1542.2 -698 1457.9 -292 1100 -661.6 1152.7"/>
        <polyline class="g1-bg" points="484 1409.7 356.7 1043.2 564.9 943.4 781.7 1144.7 773.1 1475.1 223.1 1747.7 484.4 1410.3 186.4 1215.3 84.8 1657.5"/>
        <polygon class="g1-bg" points="1055.3 1001.9 773.1 1475.1 1213.6 1588.7 1309.9 1091.4"/>
        <polyline class="g1-bg" points="1055.3 1001.9 1213.6 1588.7 1466.5 1268.6 1476.8 1585.2 1650.6 1435.5 1721.2 1301.3"/>
        <line class="g1-bg" x1="912.5" x2="1055.3" y1="1652.3" y2="996.8"/>
      </g>
      <use width="50.2" height="50.2" x="-25.1" y="-25.1" style="overflow:visible" transform="matrix(2.4781 0 0 -2.4781 6.8512 460.2779)" xlink:href="#neuron"/>
      <use width="50.2" height="50.2" x="-25.1" y="-25.1" style="overflow:visible" transform="matrix(1.1906 0 0 -1.1906 -1.5933 748.2485)" xlink:href="#neuron"/>
      <use width="50.2" height="50.2" x="-25.1" y="-25.1" style="overflow:visible" transform="matrix(1.8842 0 0 -1.8842 239.3146 889.501)" xlink:href="#neuron"/>
      <use width="50.2" height="50.2" x="-25.1" y="-25.1" style="overflow:visible" transform="matrix(1.618 0 0 -1.618 565.1125 943.4578)" xlink:href="#neuron"/>
      <use width="50.2" height="50.2" x="-25.1" y="-25.1" style="overflow:visible" transform="matrix(1.5509 0 0 -1.5509 357.403 1043.363)" xlink:href="#neuron"/>
      <use width="50.2" height="50.2" x="-25.1" y="-25.1" style="overflow:visible" transform="matrix(2.2366 0 0 -2.2366 1054.5352 1002.3262)" xlink:href="#neuron"/>
      <use width="50.2" height="50.2" x="-25.1" y="-25.1" style="overflow:visible" transform="matrix(3.0263 0 0 -3.0263 1309.8137 1090.994)" xlink:href="#neuron"/>
      <use width="50.2" height="50.2" x="-25.1" y="-25.1" style="overflow:visible" transform="matrix(1.4711 0 0 -1.4711 788.1057 794.5538)" xlink:href="#neuron"/>
      <use width="50.2" height="50.2" x="-25.1" y="-25.1" style="overflow:visible" transform="matrix(1.0191 0 0 -1.0191 551.173 660.8842)" xlink:href="#neuron"/>
      <use width="50.2" height="50.2" x="-25.1" y="-25.1" style="overflow:visible" transform="matrix(1.0657 0 0 -1.0657 459.9235 520.3637)" xlink:href="#neuron"/>
      <use width="50.2" height="50.2" x="-25.1" y="-25.1" style="overflow:visible" transform="matrix(1.3615 0 0 -1.3615 380.3854 437.6786)" xlink:href="#neuron"/>
    </g>
    <g class="g2">
      <g>
        <polygon class="g2-bg" points="-582 507.2 -472.6 257.7 -188 86 111.5 -200.6 382 106.5 835.3 -10.4 952.3 72.1 1098.1 223.6 1413 331.2 1798.9 521.4 2133.2 570.3 2367.9 750.5 2688.6 729.7 2945.9 620.4 3074.1 906.9 3241.9 1137.5 3405.1 1276.8 2652.2 1252.4 2456.4 1137 2634.9 915.7 1497.1 762.3 2133.9 1204.2 1779.2 1354.5 1565.6 1170.2 1429.5 1631.1 960.7 1634.7 763.8 1559 512 1505 188.8 1524.1 26.8 1840.9 -329.6 2004.7 -245.6 1501.3 -272 1107.1 -339.7 782.4"/>
        <polyline class="g2-bg" points="-582 507.2 263.2 397.3 -472.6 257.7 167.5 964.4 -339.7 782.4 263.2 397.3 440.6 463.6 409.9 610 167.5 964.4 263.2 397.3 -188 86"/>
        <line class="g2-bg" x1="382" x2="263.2" y1="106.5" y2="397.3"/>
        <polygon class="g2-bg" points="770.3 579.3 382 106.5 835.3 -10.4 952.3 72.1 409.9 610 770.3 579.3 167.5 964.4 782.7 991.5 1190.6 1159.9 1497.1 762.3 1423.2 341.2 1184.2 575.4 950.7 739.4"/>
        <polyline class="g2-bg" points="1098.1 223.6 770.3 579.3 782.7 991.5 512 1505 167.5 964.4 188.8 1524.1 -245.6 1501.3 167.5 964.4 -274 1117.7"/>
        <polyline class="g2-bg" points="1194.9 1159.1 950.7 739.4 1182.6 566.9 1497.1 762.3 1565.6 1170.2 955.2 1636.7 1195.5 1159.7 782.7 991.5 763.8 1559"/>
        <polygon class="g2-bg" points="1798.9 521.4 1565.6 1170.2 2133.9 1204.2 2133.2 570.3"/>
        <polyline class="g2-bg" points="1798.9 521.4 2133.9 1204.2 2367.9 750.5 2456.4 1137 2634.1 911.5 2688.6 729.7"/>
        <line class="g2-bg" x1="1779.2" x2="1797.7" y1="1354.5" y2="515.1"/>
        <line class="g2-bg" x1="2133.2" x2="1567.1" y1="570.3" y2="1174.8"/>
      </g>
      <use width="50.2" height="50.2" x="-25.1" y="-25.1" style="overflow:visible" transform="matrix(3.0441 -0.5933 -0.5933 -3.0441 381.4023 107.0557)" xlink:href="#neuron"/>
      <use width="50.2" height="50.2" x="-25.1" y="-25.1" style="overflow:visible" transform="matrix(1.5114 -0.2946 -0.2946 -1.5114 272.4596 396.5572)" xlink:href="#neuron"/>
      <use width="50.2" height="50.2" x="-25.1" y="-25.1" style="overflow:visible" transform="matrix(1.4625 -0.2851 -0.2851 -1.4625 439.9734 462.8152)" xlink:href="#neuron"/>
      <use width="50.2" height="50.2" x="-25.1" y="-25.1" style="overflow:visible" transform="matrix(1.5083 -0.294 -0.294 -1.5083 409.09 610.8224)" xlink:href="#neuron"/>
      <use width="50.2" height="50.2" x="-25.1" y="-25.1" style="overflow:visible" transform="matrix(3.1584 -0.6156 -0.6156 -3.1584 166.4474 964.0748)" xlink:href="#neuron"/>
      <use width="50.2" height="50.2" x="-25.1" y="-25.1" style="overflow:visible" transform="matrix(2.3146 -0.4511 -0.4511 -2.3146 769.718 578.6505)" xlink:href="#neuron"/>
      <use width="50.2" height="50.2" x="-25.1" y="-25.1" style="overflow:visible" transform="matrix(1.9876 -0.3874 -0.3874 -1.9876 1182.8401 566.9294)" xlink:href="#neuron"/>
      <use width="50.2" height="50.2" x="-25.1" y="-25.1" style="overflow:visible" transform="matrix(1.9051 -0.3713 -0.3713 -1.9051 951.6122 739.3797)" xlink:href="#neuron"/>
      <use width="50.2" height="50.2" x="-25.1" y="-25.1" style="overflow:visible" transform="matrix(2.0029 -0.3904 -0.3904 -2.0029 781.5639 991.0862)" xlink:href="#neuron"/>
      <use width="50.2" height="50.2" x="-25.1" y="-25.1" style="overflow:visible" transform="matrix(2.7474 -0.5355 -0.5355 -2.7474 1798.1316 522.0677)" xlink:href="#neuron"/>
      <use width="50.2" height="50.2" x="-25.1" y="-25.1" style="overflow:visible" transform="matrix(2.1031 -0.4099 -0.4099 -2.1031 1496.384 762.2114)" xlink:href="#neuron"/>
      <use width="50.2" height="50.2" x="-25.1" y="-25.1" style="overflow:visible" transform="matrix(1.8071 -0.3522 -0.3522 -1.8071 1421.1111 330.6308)" xlink:href="#neuron"/>
      <use width="50.2" height="50.2" x="-25.1" y="-25.1" style="overflow:visible" transform="matrix(1.2519 -0.244 -0.244 -1.2519 1098.0651 223.1586)" xlink:href="#neuron"/>
      <use width="50.2" height="50.2" x="-25.1" y="-25.1" style="overflow:visible" transform="matrix(1.3091 -0.2551 -0.2551 -1.3091 952.3333 72.3922)" xlink:href="#neuron"/>
      <use width="50.2" height="50.2" x="-25.1" y="-25.1" style="overflow:visible" transform="matrix(1.6725 -0.326 -0.326 -1.6725 834.8342 -10.134)" xlink:href="#neuron"/>
    </g>
    <g class="g3">
      <g class="network">
        <polygon class="g3-bg" points="-684.5 738 -581.7 589.6 -374.7 513.9 -143.4 365.4 -6.4 599.6 636 876.5 863 1049.2 1074.3 1123.5 1204.2 1270.5 1415.5 1297.6 1643.9 1461.8 1723.8 1633.1 1812.3 1744.5 1325.5 1633.1 1212.7 1533.2 1356.9 1411.8 636 1167.7 994.3 1536 744.5 1588.9 628.9 1441.8 481.8 1724.5 176.3 1667.4 57.9 1593.1 -99.2 1526 -311.9 1497.5 -457.5 1683.1 -710.2 1744.5 -591.7 1427.5 -558.8 1167.7 -561.7 947.9"/>
        <polygon class="g3-bg" points="186.3 956.5 -6.4 599.6 -52.1 930.8 186.3 956.5 -254.8 1130.6 142.1 1226.3 386.2 1387.6 636 1167.7 641.3 884.4 456.1 1006.4 283.4 1083.5"/>
        <polyline class="g3-bg" points="-561.5 1174.4 -254.8 1130.6 -591.7 1427.5 -311.9 1497.5 -254.8 1130.6 -99.2 1526 142.1 1226.3 186.3 956.5"/>
        <polyline class="g3-bg" points="389.1 1387.6 283.4 1083.5 456.1 1000.7 636 1167.7 628.9 1441.8 172.5 1668 389.4 1388 142.1 1226.3 57.9 1593.1"/>
        <polygon class="g3-bg" points="863 1049.2 628.9 1441.8 994.3 1536 1074.3 1123.5"/>
        <polyline class="g3-bg" points="863 1049.2 994.3 1536 1204.2 1270.5 1212.7 1533.2 1356.9 1409 1415.5 1297.6"/>
        <line class="g3-bg" x1="744.5" x2="863" y1="1588.9" y2="1045"/>
      </g>
      <use width="50.2" height="50.2" x="-25.1" y="-25.1" style="overflow:visible" transform="matrix(2.3736 0 0 -2.3736 -6.8482 599.8572)" xlink:href="#neuron"/>
      <use width="50.2" height="50.2" x="-25.1" y="-25.1" style="overflow:visible" transform="matrix(0.9878 0 0 -0.9878 -13.8543 838.7775)" xlink:href="#neuron"/>
      <use width="50.2" height="50.2" x="-25.1" y="-25.1" style="overflow:visible" transform="matrix(1.5633 0 0 -1.5633 186.0195 955.9703)" xlink:href="#neuron"/>
      <use width="50.2" height="50.2" x="-25.1" y="-25.1" style="overflow:visible" transform="matrix(1.3424 0 0 -1.3424 456.324 1000.7366)" xlink:href="#neuron"/>
      <use width="50.2" height="50.2" x="-25.1" y="-25.1" style="overflow:visible" transform="matrix(1.2867 0 0 -1.2867 283.9938 1083.6249)" xlink:href="#neuron"/>
      <use width="50.2" height="50.2" x="-25.1" y="-25.1" style="overflow:visible" transform="matrix(2.1291 0 0 -2.1291 862.3828 1049.5779)" xlink:href="#neuron"/>
      <use width="50.2" height="50.2" x="-25.1" y="-25.1" style="overflow:visible" transform="matrix(1.2206 0 0 -1.2206 641.3345 877.1955)" xlink:href="#neuron"/>
    </g>
    <g class="g4">
      <g class="network">
        <polygon class="g3-bg" points="2516.9 861.6 2414.1 1010.1 2207.1 1085.7 1975.8 1234.2 1838.8 1000.1 1196.4 723.1 969.4 550.4 758.1 476.2 628.2 329.1 416.9 302 188.5 137.8 108.6 -33.5 20.1 -144.8 506.9 -33.5 619.6 66.5 475.5 187.8 1196.4 431.9 838.1 63.6 1087.9 10.8 1203.5 157.8 1350.5 -124.8 1656 -67.7 1774.5 6.5 1931.6 73.6 2144.3 102.1 2289.9 -83.4 2542.6 -144.8 2424.1 172.1 2391.2 431.9 2394.1 651.7"/>
        <polyline class="g3-bg" points="2516.9 861.6 1953 825.9 2414.1 1010.1 2087.2 469 2394.1 651.7 1953 825.9 1845.9 760.2 1884.4 668.9 2087.2 469 1953 825.9 2207.1 1085.7"/>
        <line class="g3-bg" x1="1838.8" x2="1953" y1="1000.1" y2="825.9"/>
        <polygon class="g3-bg" points="1646 643.2 1838.8 1000.1 1884.4 668.9 1646 643.2 2087.2 469 1690.3 373.4 1446.2 212.1 1196.4 431.9 1191.1 715.3 1376.2 593.2 1549 516.1"/>
        <polyline class="g3-bg" points="2393.9 425.3 2087.2 469 2424.1 172.1 2144.3 102.1 2087.2 469 1931.6 73.6 1690.3 373.4 1646 643.2"/>
        <polyline class="g3-bg" points="1443.3 212.1 1549 516.1 1376.2 598.9 1196.4 431.9 1203.5 157.8 1659.9 -68.4 1443 211.6 1690.3 373.4 1774.5 6.5"/>
        <polygon class="g3-bg" points="969.4 550.4 1203.5 157.8 838.1 63.6 758.1 476.2"/>
        <polyline class="g3-bg" points="969.4 550.4 838.1 63.6 628.2 329.1 619.6 66.5 475.5 190.6 416.9 302"/>
        <line class="g3-bg" x1="1087.9" x2="969.4" y1="10.8" y2="554.7"/>
        <line class="g3-bg" x1="758.1" x2="1203.1" y1="476.2" y2="154.6"/>
        <polyline class="g3-bg" points="20.1 -144.8 475.5 187.8 188.5 137.8 506.9 -33.5 619.6 66.5 838.4 66.2"/>
      </g>
      <use width="50.2" height="50.2" x="-25.1" y="-25.1" style="overflow:visible" transform="matrix(-2.3736 0 0 2.3736 1839.2356 999.7787)" xlink:href="#neuron"/>
      <use width="50.2" height="50.2" x="-25.1" y="-25.1" style="overflow:visible" transform="matrix(-0.9878 0 0 0.9878 1846.2417 760.8584)" xlink:href="#neuron"/>
      <use width="50.2" height="50.2" x="-25.1" y="-25.1" style="overflow:visible" transform="matrix(-1.0187 0 0 1.0187 1885.1082 668.467)" xlink:href="#neuron"/>
      <use width="50.2" height="50.2" x="-25.1" y="-25.1" style="overflow:visible" transform="matrix(-1.4276 0 0 1.4276 1931.4779 73.9147)" xlink:href="#neuron"/>
      <use width="50.2" height="50.2" x="-25.1" y="-25.1" style="overflow:visible" transform="matrix(-1.4276 0 0 1.4276 1774.1066 6.8555)" xlink:href="#neuron"/>
      <use width="50.2" height="50.2" x="-25.1" y="-25.1" style="overflow:visible" transform="matrix(-1.5633 0 0 1.5633 1646.3679 643.6656)" xlink:href="#neuron"/>
      <use width="50.2" height="50.2" x="-25.1" y="-25.1" style="overflow:visible" transform="matrix(-1.3424 0 0 1.3424 1376.0635 598.8994)" xlink:href="#neuron"/>
      <use width="50.2" height="50.2" x="-25.1" y="-25.1" style="overflow:visible" transform="matrix(-1.2867 0 0 1.2867 1548.3936 516.011)" xlink:href="#neuron"/>
      <use width="50.2" height="50.2" x="-25.1" y="-25.1" style="overflow:visible" transform="matrix(-1.3528 0 0 1.3528 1690.9658 373.7919)" xlink:href="#neuron"/>
      <use width="50.2" height="50.2" x="-25.1" y="-25.1" style="overflow:visible" transform="matrix(-1.2704 0 0 1.2704 1445.5891 211.5875)" xlink:href="#neuron"/>
      <use width="50.2" height="50.2" x="-25.1" y="-25.1" style="overflow:visible" transform="matrix(-1.4276 0 0 1.4276 1203.1035 157.1949)" xlink:href="#neuron"/>
      <use width="50.2" height="50.2" x="-25.1" y="-25.1" style="overflow:visible" transform="matrix(-1.4276 0 0 1.4276 1088.2145 10.9913)" xlink:href="#neuron"/>
      <use width="50.2" height="50.2" x="-25.1" y="-25.1" style="overflow:visible" transform="matrix(-2.1291 0 0 2.1291 970.0046 550.058)" xlink:href="#neuron"/>
      <use width="50.2" height="50.2" x="-25.1" y="-25.1" style="overflow:visible" transform="matrix(-1.6206 0 0 1.6206 758.2079 476.4931)" xlink:href="#neuron"/>
      <use width="50.2" height="50.2" x="-25.1" y="-25.1" style="overflow:visible" transform="matrix(-1.8875 0 0 1.8875 627.7114 328.773)" xlink:href="#neuron"/>
      <use width="50.2" height="50.2" x="-25.1" y="-25.1" style="overflow:visible" transform="matrix(-1.0114 0 0 1.0114 475.0085 187.0822)" xlink:href="#neuron"/>
      <use width="50.2" height="50.2" x="-25.1" y="-25.1" style="overflow:visible" transform="matrix(-1.606 0 0 1.606 416.3479 301.3943)" xlink:href="#neuron"/>
      <use width="50.2" height="50.2" x="-25.1" y="-25.1" style="overflow:visible" transform="matrix(-1.4114 0 0 1.4114 188.5363 138.0158)" xlink:href="#neuron"/>
      <use width="50.2" height="50.2" x="-25.1" y="-25.1" style="overflow:visible" transform="matrix(-1.4205 0 0 1.4205 1196.8069 432.0652)" xlink:href="#neuron"/>
      <use width="50.2" height="50.2" x="-25.1" y="-25.1" style="overflow:visible" transform="matrix(-1.2206 0 0 1.2206 1191.0529 722.4404)" xlink:href="#neuron"/>
      <use width="50.2" height="50.2" x="-25.1" y="-25.1" style="overflow:visible" transform="matrix(-2.008 0 0 2.008 838.45 63.2415)" xlink:href="#neuron"/>
      <use width="50.2" height="50.2" x="-25.1" y="-25.1" style="overflow:visible" transform="matrix(-1.4758 0 0 1.4758 620.2071 66.2321)" xlink:href="#neuron"/>
    </g>
  </g>
</svg>
