<svg id="logo" xmlns="http://www.w3.org/2000/svg" viewBox="0 0 518.9 152.5">
  <defs>
    <style>
      .cls-1 {
        fill: #ad0f0a;
      }

      .cls-2 {
        fill: #878787;
      }

      .cls-3 {
        fill: #43545c;
      }

      .cls-4 {
        fill: red;
      }
    </style>
  </defs>
  <title>Logo Dev Day 2018</title>
  <path id="braces" class="cls-1" d="M504.7,62.2V39.6c0-9.4-10.1-17-22.7-17v5.7a11.29,11.29,0,0,1,11.3,11.28V62.3c0,7.8,5.1,14.2,11.3,14.2-6.3,0-11.3,6.3-11.3,14.2v22.7A11.29,11.29,0,0,1,482,124.7h0v5.7c12.5,0,22.7-7.6,22.7-17V90.6a14.19,14.19,0,0,1,14.18-14.2h0a14.13,14.13,0,0,1-14.2-14.06S504.7,62.25,504.7,62.2Zm-479.1,0V39.6A11.29,11.29,0,0,1,36.88,28.3h0V22.6c-12.5,0-22.7,7.6-22.7,17V62.3A14.19,14.19,0,0,1,0,76.5H0A14.19,14.19,0,0,1,14.2,90.68s0,0,0,0v22.7c0,9.4,10.1,17,22.7,17v-5.7a11.29,11.29,0,0,1-11.3-11.28s0,0,0,0V90.6c0-7.8-5.1-14.2-11.3-14.2C20.6,76.4,25.6,70.1,25.6,62.2Z"/>
  <g id="_2018" data-name="2018">
    <path class="cls-2" d="M410.14,144a7.84,7.84,0,0,1-.76,3.47,8.17,8.17,0,0,1-2.06,2.68,9.29,9.29,0,0,1-3,1.71,11,11,0,0,1-3.64.59,10.32,10.32,0,0,1-3.69-.65,9.23,9.23,0,0,1-3-1.81,8.35,8.35,0,0,1-2-2.74,8.22,8.22,0,0,1-.72-3.45,6.4,6.4,0,0,1,.41-2.3,7.68,7.68,0,0,1,1.06-1.92,8.08,8.08,0,0,1,1.47-1.49,9.31,9.31,0,0,1,1.63-1,6.76,6.76,0,0,1-2.6-2.18,5.49,5.49,0,0,1-1.08-3.33,6.57,6.57,0,0,1,.78-3.23,7.87,7.87,0,0,1,2-2.38,8.74,8.74,0,0,1,2.75-1.47,9.67,9.67,0,0,1,3-.5,9.85,9.85,0,0,1,3,.5,9.17,9.17,0,0,1,2.78,1.45,7.52,7.52,0,0,1,2,2.36,6.57,6.57,0,0,1,.78,3.23,5.52,5.52,0,0,1-1.09,3.35,6.77,6.77,0,0,1-2.65,2.2,9.75,9.75,0,0,1,1.73,1.09,7.34,7.34,0,0,1,1.47,1.55,7.81,7.81,0,0,1,1,2A7.11,7.11,0,0,1,410.14,144Zm-4.12-.28a4.36,4.36,0,0,0-.46-2,5,5,0,0,0-1.22-1.53,5.28,5.28,0,0,0-1.71-1,6,6,0,0,0-1.91-.32,5.77,5.77,0,0,0-1.95.34,5.1,5.1,0,0,0-1.67,1,4.94,4.94,0,0,0-1.17,1.53,4.43,4.43,0,0,0-.45,2,4.28,4.28,0,0,0,.46,2,4.8,4.8,0,0,0,1.21,1.51,5.52,5.52,0,0,0,1.69,1,5.64,5.64,0,0,0,1.91.34,5.47,5.47,0,0,0,1.95-.36,5.63,5.63,0,0,0,1.69-1,4.86,4.86,0,0,0,1.19-1.51A4.21,4.21,0,0,0,406,143.69Zm-9.72-12a3.29,3.29,0,0,0,.41,1.67,3.87,3.87,0,0,0,1,1.19,4.82,4.82,0,0,0,1.41.73,4.91,4.91,0,0,0,1.56.26,5.08,5.08,0,0,0,1.58-.26,4.54,4.54,0,0,0,1.43-.75,4.05,4.05,0,0,0,1-1.23,3.4,3.4,0,0,0,.41-1.69,3.28,3.28,0,0,0-.37-1.57,3.86,3.86,0,0,0-1-1.19,4.33,4.33,0,0,0-1.41-.75,5.46,5.46,0,0,0-1.69-.26,5.11,5.11,0,0,0-1.69.28,4.66,4.66,0,0,0-1.41.77,3.59,3.59,0,0,0-1,1.21A3.54,3.54,0,0,0,396.3,131.67Z"/>
    <path id="_1" data-name="1" class="cls-2" d="M383.3,129.9a3.51,3.51,0,0,1-1.4.6,12.25,12.25,0,0,1-1.9.2V127a10.87,10.87,0,0,0,1.8-.1,3.58,3.58,0,0,0,1.1-.4,1.37,1.37,0,0,0,.5-.8,5.28,5.28,0,0,0,.1-1.3h3.6v27.8h-3.9V129.9Z"/>
    <path id="_0" data-name="0" class="cls-2" d="M366.9,152.5a9.86,9.86,0,0,1-3.8-.7,8.37,8.37,0,0,1-2.9-2,9.53,9.53,0,0,1-1.9-3,10.72,10.72,0,0,1-.7-3.9v-9.4a10.36,10.36,0,0,1,.7-3.9,10,10,0,0,1,1.9-3.1,8.37,8.37,0,0,1,2.9-2,10.66,10.66,0,0,1,7.6,0,8.37,8.37,0,0,1,2.9,2,8.94,8.94,0,0,1,1.9,3.1,10.36,10.36,0,0,1,.7,3.9v9.4a10.36,10.36,0,0,1-.7,3.9,8.62,8.62,0,0,1-4.9,5A11.56,11.56,0,0,1,366.9,152.5Zm0-3.8a5.7,5.7,0,0,0,2.2-.4,4.07,4.07,0,0,0,1.7-1.2,5.29,5.29,0,0,0,1.1-2.1,10.32,10.32,0,0,0,.4-3v-7.9a10.32,10.32,0,0,0-.4-3,5.29,5.29,0,0,0-1.1-2.1,6.57,6.57,0,0,0-1.7-1.2,5.38,5.38,0,0,0-2.2-.4A5.13,5.13,0,0,0,363,129q-1.5,1.5-1.5,5.1V142q0,3.45,1.5,5.1a4.8,4.8,0,0,0,3.9,1.6Z"/>
    <path id="_2" data-name="2" class="cls-2" d="M334.8,152.1v-2.9a7.3,7.3,0,0,1,1.1-4.3,10.62,10.62,0,0,1,2.7-2.9,24.3,24.3,0,0,1,3.5-2,23.13,23.13,0,0,0,3.5-1.8,11.78,11.78,0,0,0,2.7-2.3,5.46,5.46,0,0,0,1.1-3.3,5,5,0,0,0-1.5-3.8,5.35,5.35,0,0,0-3.8-1.3,6.72,6.72,0,0,0-2.4.4,6.57,6.57,0,0,0-1.7,1.2,4,4,0,0,0-1,1.8,8.33,8.33,0,0,0-.3,2.2h-3.8a9.86,9.86,0,0,1,.7-3.8,8.5,8.5,0,0,1,4.8-4.8,9.22,9.22,0,0,1,3.6-.7,9.37,9.37,0,0,1,3.7.7,7.89,7.89,0,0,1,2.9,1.8,7.74,7.74,0,0,1,1.9,2.8,8.57,8.57,0,0,1,.7,3.6,8,8,0,0,1-1,4.3,12,12,0,0,1-2.6,2.9,16.83,16.83,0,0,1-3.4,2c-1.2.6-2.4,1.1-3.5,1.7a10.52,10.52,0,0,0-2.7,2,4.45,4.45,0,0,0-1.2,2.9h13.9v3.7H334.8Z"/>
  </g>
  <path id="day" class="cls-3" d="M343.1,76.4a36.83,36.83,0,0,0-36.8-36.8H269.4v73.7h36.9a36.85,36.85,0,0,0,36.8-36.9Zm-36.8,25.5H280.8v-51h25.5a25.51,25.51,0,0,1,0,51Zm165.4-51a5.74,5.74,0,0,0-5.3,3.6L448.7,98.8,429.6,54.3a5.57,5.57,0,0,0-5.2-3.4h-7.6L443.4,112,437,132.4a5.79,5.79,0,0,1-5.3,3.6h-6.4a5.7,5.7,0,0,0-5.7,5.7h0v5.7h15a11.43,11.43,0,0,0,10.6-7.1l34-89.3-7.5-.1Zm-71.9,0H354.4v5.7a5.7,5.7,0,0,0,5.7,5.7h34a5.7,5.7,0,0,1,5.7,5.7h0v5.7H360.1A11.29,11.29,0,0,0,348.8,85v17a11.29,11.29,0,0,0,11.28,11.3H399.8A11.29,11.29,0,0,0,411.1,102V62.2a11.29,11.29,0,0,0-11.28-11.3h0Zm0,45.4a5.7,5.7,0,0,1-5.7,5.7H365.8a5.7,5.7,0,0,1-5.7-5.7h0V90.6a5.7,5.7,0,0,1,5.7-5.7h34Z"/>
  <path id="dev" class="cls-4" d="M90.8,39.6H54v73.7H90.8a36.85,36.85,0,0,0,0-73.7Zm0,62.3H65.3v-51H90.8a25.51,25.51,0,0,1,0,51Zm138.9-2.5-18.4-45a5.7,5.7,0,0,0-5.3-3.5h-7.5L224,113.3h11.3l25.5-62.4h-7.5a5.8,5.8,0,0,0-5.3,3.5ZM184.4,50.9H144.7a11.29,11.29,0,0,0-11.3,11.28V101.9a11.29,11.29,0,0,0,11.28,11.3H190.1v-5.7a5.7,5.7,0,0,0-5.7-5.7h-34a5.7,5.7,0,0,1-5.7-5.7V90.4h39.7a11.29,11.29,0,0,0,11.3-11.28v-17a11.33,11.33,0,0,0-11.3-11.2Zm0,22.7a5.7,5.7,0,0,1-5.7,5.7h-34V67.9a5.7,5.7,0,0,1,5.7-5.7h28.4a5.7,5.7,0,0,1,5.7,5.7l-.1,5.7Z"/>
  <path id="fatec" class="cls-2" d="M58,27.8H54.1V0H69V3.8H58v8.4h7.8v3.4H58Zm18.9.4A6.75,6.75,0,0,1,71.6,26c-1.3-1.5-1.9-3.6-1.9-6.5V14a9.53,9.53,0,0,1,2-6.5,7.09,7.09,0,0,1,5.2-2.2A7.54,7.54,0,0,1,81,6.5a4.26,4.26,0,0,1,1.2,1.1,4.13,4.13,0,0,1,.7,1.1V5.6h3.5V27.8H82.9v-3a4.13,4.13,0,0,1-.7,1.1A12,12,0,0,1,81,27a4.94,4.94,0,0,1-1.8.8A6.2,6.2,0,0,1,76.9,28.2Zm1.2-3.1a4.16,4.16,0,0,0,3.5-1.6,7.59,7.59,0,0,0,1.2-4.6V14.2a6.84,6.84,0,0,0-1.2-4.4,4.16,4.16,0,0,0-3.4-1.5,4.35,4.35,0,0,0-3.5,1.5,7.12,7.12,0,0,0-1.2,4.5V19C73.4,23.1,75,25.1,78.1,25.1ZM100.7,8.8H95.8V19.1a26.35,26.35,0,0,0,.1,3.1,2.72,2.72,0,0,0,.6,1.7,2.13,2.13,0,0,0,1.5.7,13.1,13.1,0,0,0,2.8,0V28a14.77,14.77,0,0,1-2.1.1,10.3,10.3,0,0,1-3.5-.6,4.7,4.7,0,0,1-2-1.7,6.18,6.18,0,0,1-.9-2.7,21.74,21.74,0,0,1-.2-3.6V8.8H89.9V6a3.61,3.61,0,0,0,2.8-1,6.15,6.15,0,0,0,.9-3.8h2.3V5.6h4.9l-.1,3.2Zm20.3,9H108v2.5a4.5,4.5,0,0,0,4.06,4.9h.64a5.33,5.33,0,0,0,3.4-1.1,4,4,0,0,0,1.3-3v-.4h3.7v.2a7.17,7.17,0,0,1-.6,2.9,7.76,7.76,0,0,1-1.6,2.4,8.69,8.69,0,0,1-2.6,1.6,10.3,10.3,0,0,1-3.5.6,8,8,0,0,1-6.2-2.4,9.26,9.26,0,0,1-2.2-6.4V14.2a9.26,9.26,0,0,1,2.2-6.4,8.36,8.36,0,0,1,6.2-2.4,8.05,8.05,0,0,1,6.1,2.3,9.09,9.09,0,0,1,2.2,6.4Zm-13-2.7h9.4V13.7a5.76,5.76,0,0,0-1.2-4,4.35,4.35,0,0,0-3.4-1.2,4.6,4.6,0,0,0-3.4,1.2,5,5,0,0,0-1.3,3.7Zm29.8-.8c0-3.7-1.6-5.5-4.7-5.5a4.47,4.47,0,0,0-3.6,1.4,7.06,7.06,0,0,0-1.1,4.5v4.9a5.51,5.51,0,0,0,1.2,3.9,4.27,4.27,0,0,0,3.5,1.4c3.1,0,4.7-1.8,4.7-5.5h3.7a9.85,9.85,0,0,1-2.1,6.6A9.21,9.21,0,0,1,127,26a9.26,9.26,0,0,1-2.2-6.4V14.3A9.51,9.51,0,0,1,127,7.8a9.43,9.43,0,0,1,12.4,0,9.21,9.21,0,0,1,2.1,6.6l-3.7-.1Z"/>
</svg>
