<svg xmlns="http://www.w3.org/2000/svg" viewBox="0 0 1310 418.3" style="enable-background:new 0 0 1310 418.3;"><style><![CDATA[.B{fill-rule:evenodd;clip-rule:evenodd;fill:#2A77A9}.E{fill-rule:evenodd;clip-rule:evenodd;fill:#0E0B0D}]]></style><path class="B" d="M588 150.9c-54 10.5-68 37.7-70.9 92.1-.1 1.4 0-.1-.1 1l-.2 1.4c-.8 4.9-.2 164.1-.2 168.7l82.4.5h249.6v-114H621.9c1.2-4 .4-29.9.4-36.2H942c38.3.1 57.1-23.7 59.2-60V103.2c-.1-23.3-3.1-38.8-16.1-59C967.6 17 938.5.1 903.4.1H635C563.3.1 520.2 29 518.1 111h377.5v39.5H590.9c-.8.2-1.3.4-2.9.4zM365.9 300.5H.1c0 18.1-.9 23.6 4.6 40.9 4 12.6 12.6 30.3 21.7 40.2 1 1.1 1.9 1.8 2.8 3 2.1 2.7 8.6 8.6 11.5 10.9 8.8 6.9 18 11.8 29.7 15.2C83 414.3 95 414 110.9 414h285.6c48.8-4.2 89.3-47.8 89.5-99.5l-.1-67.5c-2.3-59.1-48.7-96-100.6-96H106.2v-39H486c0-27.5-5.4-51.9-20.2-72.6-15.2-21.3-38.4-35.2-64.2-38.2-2.8-.3-7.2-1-10.2-1-21.8-.3-45.2 0-67.1 0H100.7C50.2.1 7 36.4.9 89.5c-1.2 10.5-.8 22-.8 39.4v22.3c0 12.1-.8 17.6 2 29.5 11.4 49.1 45.5 80.4 95.4 82.2 12.4.5 25.4-.2 39.3-.2h243.5v37.8h-14.4z"/><path d="M950.2 281.6v134.8l1.9 1.9h141l-.6-138.7H952.1c-1.4 0-1.9.5-1.9 2z" fill-rule="evenodd" clip-rule="evenodd" fill="#348bc8"/><path class="E" d="M1185.7 319.8c6.4 0 36.3-1 40.2.6v97.9h43.7l.3-98.1c5.5-1.4 32.5-.4 40.2-.4v-38.2h-124.3v38.2h-.1zm-51.5 96.5c0 1.5.4 1.9 1.9 1.9h42.9V280.9h-44.7v135.4h-.1z"/></svg>