<svg xmlns="http://www.w3.org/2000/svg" viewBox="0 0 600 148.8" style="enable-background:new 0 0 600 148.8;"><style><![CDATA[.AY{fill:#A5CA3E}.Ab{fill:#383937}]]></style><path class="AY" d="M36.7 3.9h14.8v14.8H36.7zm-.2 18.6h14.8v14.8H36.5zm36.5 0h14.8v14.8H73zm18.3 0h14.8v14.8H91.3zm-73 18.6h14.8v14.8H18.3zM0 41.1h14.8v14.8H0zm73 0h14.8v14.8H73zm-18.2 0h14.8v14.8H54.8zm36.5 0h14.8v14.8H91.3zm18.2 0h14.8v14.8h-14.8zm-73 18.5h14.8v14.8H36.5zm-18.2 0h14.8v14.8H18.3zm54.7 0h14.8v14.8H73zm-18.2 0h14.8v14.8H54.8zm36.5 0h14.8v14.8H91.3zM36.5 78.2h14.8V93H36.5zM0 78.2h14.8V93H0zm54.8 0h14.8V93H54.8zm36.5 0h14.8V93H91.3zm18.2 0h14.8V93h-14.8zm-73 18.6h14.8v14.8H36.5zm-18.2 0h14.8v14.8H18.3zM0 96.8h14.8v14.8H0zm73 0h14.8v14.8H73zm-18.2 0h14.8v14.8H54.8zm36.5 0h14.8v14.8H91.3zm18.2 0h14.8v14.8h-14.8zm18.3 0h14.8v14.8h-14.8zm0-37.2h14.8v14.8h-14.8zM18.3 115.4h14.8v14.8H18.3zm54.7 0h14.8v14.8H73zm-18.2 0h14.8v14.8H54.8zm54.7 0h14.8v14.8h-14.8zM54.8 134h14.8v14.8H54.8z"/><path class="Ab" d="M600 111.6l-8.6.4h-28.7c-2.7 0-5.5-.5-8.2-1-4.6-.9-7.2-3.9-8.1-8.5-1.1-5.7-1-11.4-.3-17.1s3.4-8.2 9.4-9.1c2.8-.4 5.6-.7 8.3-.7h22.9c0-.4.1-.7.1-1v-9.4c0-2.7-.9-3.7-3.7-3.8-1.3-.1-2.6 0-3.8 0h-27.9V51.3c.8-.1 1.6-.2 2.4-.2l28.9-.2c2.7 0 5.4.3 8.1.9 5.6 1.1 7.9 3.7 8.8 9.3.1.9.3 1.8.5 2.7l-.1 47.8zm-13.3-26.4c-.5 0-.9-.1-1.2-.1h-21.3c-.8 0-1.6 0-2.4.1-1.8.2-2.8 1.1-2.8 2.8v10.3c0 1.5.7 2.2 2.1 2.4 1 .2 2.1.2 3.1.2h21.2c.4 0 .8-.1 1.3-.1V85.2zM162.2 0c1.8 1.3 1.9 2.7.3 4.4-.4.4-.7.8-1.2 1-5.3 3.1-9.1 7.7-12.9 12.4l-4.4 5.8c-.9-.8-1.8-1.6-2.8-2.3-4.1-3.1-8.8-4.6-13.7-5.6l-8.1-1.5c-.9-.2-2.2-.8-2.2-1.4-.1-.8.6-1.8 1.2-2.5 1.6-1.7 3.8-2.2 6-2.3 5.7-.4 11.1 1.1 16.3 3.1 1 .4 1.7.3 2.6-.3l10.4-7.5c1.8-1.2 3.8-2.1 5.7-3.1 1-.2 1.9-.2 2.8-.2zm95.6 111.6h-13.7V66.5c0-4.4-.6-5-5.1-5.1h-19.1v50.2h-13.7V61.5H182v50.1h-13.5V51.3l3.3-.2 33.8-.2h33.2c3 0 6.1.3 9 .9 6.2 1.3 8.9 4.5 9.6 10.8a48.86 48.86 0 0 1 .3 5.4v42.2c.1.4.1.9.1 1.4zm7.3-30.2V66.3c0-1.9.2-3.8.6-5.6 1.1-5.6 4-8.3 9.9-9.3 2.4-.4 4.8-.6 7.3-.7h20.2c2.7.1 5.5.3 8.2.9 5.8 1.2 8.4 4 9.3 9.8.3 2 .5 4 .5 6v28.2c0 2.1-.2 4.2-.5 6.2-1.1 5.9-3.8 8.7-9.8 9.8-2.4.4-4.9.7-7.4.7h-20.6c-2.7-.1-5.5-.4-8.2-.9-5.2-1-8.1-4.3-8.8-9.4-.3-1.9-.5-3.7-.5-5.6l-.2-15zm13.7-.1v16.4c0 2.4.8 3.2 3.2 3.3h20.9c3.8 0 4.4-.7 4.4-4.6V65.9c0-4.1-.7-4.9-4.8-4.9h-18.9c-.8 0-1.5.1-2.3.2-1.7.3-2.3 1-2.5 2.7-.1.6 0 1.2 0 1.8v15.6zm172.1.2v-16c.1-2.1.4-4.3.9-6.4.9-3.7 3.2-6.2 6.9-7.1 3-.7 6.1-1.3 9.2-1.4l24.2.1c1.8 0 3.7.4 5.4.8 5.4 1.4 7.9 4.3 8.7 10 .3 2 .4 4.1.4 6.1v27.5c0 2.1-.1 4.2-.5 6.3-1 6-3.8 8.9-9.9 10-2.4.4-4.8.7-7.1.7h-21c-2.7 0-5.4-.4-8.1-.9-5.1-1-8-4.2-8.8-9.3-.3-2.2-.5-4.4-.5-6.6l.2-13.8zm13.7-.2v16.4c0 2.4.8 3.2 3.3 3.3.4 0 .9 0 1.3.1h19.4c3.9 0 4.5-.7 4.5-4.6V66c0-4-.8-4.8-4.7-4.8h-19c-.8 0-1.5.1-2.3.2-1.7.3-2.4 1.1-2.5 2.8-.1.6 0 1.3 0 1.9v15.2zm-82.4 30.3h-13.7V66.7c0-.7 0-1.4-.1-2-.3-2.4-1-3.1-3.5-3.2h-22.7v50.2h-13.5V51.5c.7-.1 1.5-.2 2.2-.2l34.1-.2c2.5 0 5 .3 7.4.8 5.9 1.3 8.5 4.2 9.3 10.2.3 2.1.4 4.3.4 6.5v41.5c.1.4.1.9.1 1.5zm64.1-50.2h-16v35.8c.1 2.5 1 3.5 3.5 3.5l12.2.1h1.5v10.8c-.5.1-1 .2-1.4.2h-15.9c-1.9 0-3.8-.5-5.6-1-4.4-1.2-6.5-4.4-7.2-8.7-.4-2.4-.5-4.9-.6-7.4V61.4h-9.2V51.3h9.2v-16h13.5v15.9h16v10.2zm81.4 50.2h-13.6V67.4a44.93 44.93 0 0 1 .6-7.3c1.1-5.6 3.2-7.6 8.9-8.5 2.6-.4 5.2-.7 7.7-.7l14.6.4c.2 0 .5.1.8.1v10.5h-14.5c-3.6.1-4.5.9-4.5 4.5v45.2zm-137-60.2h13.4v60.2h-13.4V51.4z"/><path class="AY" d="M69.6 97v14.4H54.9V97h14.7zm21.8-.1h14.7v14.4H91.4V96.9zm7.3-41.1h-6.4c-.8 0-1.1-.3-1.1-1.1V42.1c0-.8.3-1.1 1-1.1H105c.8 0 1.1.3 1.1 1.1v12.6c0 .8-.3 1.1-1.1 1.1h-6.3zm-43.8 92.8v-14.5h14.7v14.5H54.9zm14.6-92.8H56c-1 0-1.3-.3-1.3-1.3V42.3c0-.9.3-1.3 1.3-1.3h12.5c.7 0 1.2.1 1.2 1v13c0 .2-.1.4-.2.8zm.1 36.9H54.9c0-.5-.1-.9-.1-1.3V79.5c0-1.1.4-1.4 1.4-1.4h12.1c.4 0 .8 0 1.3.1v14.5zm21.8-14.5h14.7v14.5H91.4V78.2zm36.4 33.2V96.9h14.7v14.5h-14.7zM.1 48.4v-6.1c0-.9.3-1.2 1.2-1.2h12.3c.9 0 1.2.3 1.2 1.2v12.5c0 .8-.3 1.1-1.1 1.1H1.2c-.8 0-1.1-.3-1.1-1.1v-6.4zm25.5 7.4h-6.1c-.9 0-1.2-.3-1.2-1.2V42.1c0-.8.3-1.2 1.1-1.2H32c.8 0 1.1.3 1.1 1.1v12.7c0 .8-.4 1-1.1 1l-6.4.1zm-11 41.1v14.5H.1V96.9h14.5zm0-18.7v14.5H.1V78.2h14.5zm11 33.3h-6.1c-.9 0-1.3-.2-1.3-1.2V98c0-.8.3-1.1 1.1-1.1h12.6c.9 0 1.1.4 1.1 1.1v12.3c0 .9-.3 1.2-1.2 1.2h-6.2zM106 37.1H92.5c-1 0-1.3-.3-1.3-1.3v-12c0-1 .3-1.2 1.3-1.2H105c.7 0 1.2.1 1.2 1v12.7c0 .2-.1.4-.2.8zM69.5 74.2H54.9c0-.4-.1-.8-.1-1.1v-12c0-1 .4-1.3 1.3-1.3h12.3c.7 0 1.3 0 1.3 1v12.9c0 .1-.1.2-.2.5zm36.5 0H91.3c0-.5-.1-.9-.1-1.3V61.3c0-1.1.3-1.5 1.4-1.5h12.2c.7 0 1.3 0 1.3 1v12.6c.1.2 0 .5-.1.8zm36.5 0h-14.7c0-.4-.1-.8-.1-1.1v-12c0-1 .3-1.3 1.3-1.3h12.3c.7 0 1.3 0 1.3 1v12.9c0 .1 0 .2-.1.5zm-87.6 41.2h14.7c0 .4.1.8.1 1.1v12c0 1-.3 1.3-1.3 1.3H56.1c-.7 0-1.3 0-1.3-1v-12.9c0-.1 0-.2.1-.5zM51.2 11.3v6.2c0 .8-.3 1.1-1.1 1.1H37.9c-.9 0-1.2-.3-1.2-1.2V5.1c0-.9.3-1.3 1.3-1.2h12.1c.9 0 1.2.3 1.2 1.2l-.1 6.2zm-.1 66.9v14.5c-.4 0-.8.1-1.1.1H38c-1 0-1.3-.3-1.3-1.3V79.4c0-1 .3-1.3 1.3-1.3h12c.3 0 .7.1 1.1.1zm36.6-10.9v6.1c0 .9-.3 1.2-1.2 1.2H74.4c-1 0-1.2-.4-1.2-1.3V61.1c0-1 .3-1.3 1.3-1.3h11.9c1.1 0 1.4.4 1.3 1.4v6.1zm36.5 11v13.3c0 1-.3 1.3-1.3 1.3h-12c-.9 0-1.2-.3-1.2-1.2V79.5c0-.7.1-1.2 1-1.2h12.7c.2-.2.4-.1.8 0zm-14.5-29.9v-6.1c0-1 .4-1.3 1.3-1.2h12c.9 0 1.3.3 1.3 1.2v12.3c0 1-.4 1.2-1.3 1.2h-12c-1 0-1.3-.4-1.3-1.3v-6.1zM51.1 97v14.4c-.4 0-.8.1-1.1.1H38c-1 0-1.3-.3-1.3-1.3V98.1c0-.7 0-1.3 1-1.3h12.9c.1 0 .2.1.5.2zm36.5 14.5H74.3c-.8 0-1.1-.3-1.1-1.1V97.8c0-.6.1-1 .8-1h13.2c.1 0 .2.1.4.2v14.5zm-62-37.2h-6.2c-.8 0-1.1-.3-1.1-1.1V61c0-.9.3-1.2 1.2-1.2h12.3c.9 0 1.3.3 1.3 1.3v12.1c0 .9-.4 1.2-1.2 1.2l-6.3-.1zm98.4 37.1c-.3 0-.5.1-.7.1h-12.6c-.8 0-1-.4-1-1.1V97.9c0-.8.2-1.2 1.1-1.1h12.3c.6 0 1.1.1 1.1.9v13.2c0 .1-.1.2-.2.5zm-50.8-63v-6.1c0-.9.4-1.3 1.3-1.3h12c.9 0 1.3.3 1.3 1.2v12.3c0 1-.3 1.2-1.3 1.2h-12c-1 0-1.3-.4-1.3-1.3v-6zm-47.4 66.9h6.1c.9 0 1.2.3 1.2 1.2v12.1c0 .9-.4 1.3-1.3 1.2H19.6c-.9 0-1.3-.3-1.3-1.2v-12.1c0-1 .4-1.2 1.3-1.2h6.2zm91.4 0h6.1c.9 0 1.2.3 1.2 1.2v12.2c0 .8-.3 1.2-1.1 1.2h-12.6c-.8 0-1.1-.3-1.1-1.1v-12.5c0-.8.4-1 1.1-1h6.4zM36.7 29.9v-6c0-.9.3-1.3 1.2-1.3H50c.9 0 1.2.3 1.2 1.2v12.1c0 .9-.3 1.2-1.2 1.2H37.8c-.8 0-1.1-.3-1.1-1.1v-6.1zm51 0v6c0 .9-.2 1.2-1.1 1.2H74.4c-.8 0-1.1-.3-1.1-1.1V23.8c0-.9.4-1.2 1.2-1.2h12.1c.9 0 1.2.3 1.2 1.2l-.1 6.1zM51.2 67.1v6.1c0 .8-.3 1.1-1 1.1H37.7c-.7 0-1-.3-1-1V60.7c0-.3.6-.9.9-.9h12.7c.8 0 .9.5.9 1.1v6.2zm22 55.4v-6.1c0-.8.3-1.1 1.1-1.1h12.3c.8 0 1.1.3 1.1 1v12.3c0 .9-.4 1.2-1.2 1.2H74.4c-.9 0-1.2-.3-1.2-1.2v-6.1z"/><path class="Ab" d="M144.7 40l5.3-4.1c1.5-1.1 3.1-2 5.1-1.8.6.1 1.4.4 1.9.9.7.7.3 1.5-.2 2.1l-7.1 8.6a44.04 44.04 0 0 1-2.9 3.2c-1.4 1.4-2.7 1.6-3.9.1-2.5-3.1-6-4.3-9.6-5.6-1-.4-2-.7-3-1.2-.4-.2-1-.7-1-1.1-.1-.3.5-.9.9-1.1 4.7-2.4 9.5-2.9 14.3-.1 0 0 .1.1.2.1zm259.8 0h-14.3V27.8h14.3V40zM163.9 23c2.3-2.9 8.1-3.3 12.3-1 1-.9 2-1.9 3.2-2.6 1.2-.8 2.5-1.4 3.8-1.9.4-.2.9-.2 1.3-.1 1.3.2 1.8 1.3.9 2.4l-5.6 6.7a28.47 28.47 0 0 1-2.3 2.6c-.9.9-1.8 1-2.6 0-2.3-2.8-5.6-3.7-8.8-4.9-.7-.3-1.4-.8-2.2-1.2z"/></svg>