<svg xmlns="http://www.w3.org/2000/svg" viewBox="0 0 393.9 186.9" style="enable-background:new 0 0 393.9 186.9;"><style><![CDATA[.D{fill:#19204B}.I{fill:#497BBB}.P{fill:#fff}]]></style><path class="D" d="M64.1 53.1c-1.2-2-2.8-3.7-4.6-5.2s-3.9-2.6-6.2-3.5c-2.3-.8-4.7-1.2-7.3-1.2-4.6 0-8.6.9-11.8 2.7s-5.9 4.2-7.9 7.2-3.5 6.4-4.4 10.3c-.9 3.8-1.4 7.8-1.4 11.9 0 3.9.5 7.8 1.4 11.5s2.4 7.1 4.4 10c2 3 4.6 5.4 7.9 7.1 3.2 1.8 7.2 2.7 11.8 2.7 6.3 0 11.2-1.9 14.7-5.8 3.5-3.8 5.7-8.9 6.5-15.2h19.9c-.5 5.9-1.9 11.1-4.1 15.9-2.2 4.7-5.1 8.7-8.7 12.1-3.6 3.3-7.8 5.9-12.6 7.6s-10.1 2.6-15.9 2.6c-7.2 0-13.6-1.2-19.3-3.7s-10.6-5.9-14.5-10.3-6.9-9.5-9-15.4-3-12.3-3-19.1c0-7 1-13.5 3.1-19.5s5.1-11.2 9-15.7 8.8-8 14.5-10.5 12.2-3.8 19.3-3.8c5.2 0 10 .7 14.6 2.2s8.7 3.6 12.3 6.5c3.6 2.8 6.6 6.4 9 10.6s3.8 9 4.5 14.4H66.5c-.4-2.3-1.2-4.4-2.4-6.4m25.3 21.7c.3-4.4 1.4-8 3.3-10.9S97 58.7 100 57s6.3-3 10-3.7 7.4-1.1 11.2-1.1c3.4 0 6.9.2 10.4.7s6.7 1.4 9.6 2.8 5.2 3.3 7.1 5.8c1.8 2.5 2.8 5.8 2.8 9.9v35.3c0 3.1.2 6 .5 8.8s1 4.9 1.8 6.3h-18.9l-.9-3.2-.5-3.3a23.92 23.92 0 0 1-10.5 6.4 42.58 42.58 0 0 1-12.3 1.8c-3.2 0-6.2-.4-9-1.2s-5.2-2-7.3-3.7-3.7-3.8-4.9-6.3-1.8-5.5-1.8-9c0-3.8.7-7 2-9.5 1.4-2.5 3.1-4.5 5.2-6s4.6-2.6 7.3-3.3l8.3-1.8 8.3-1c2.7-.3 5.1-.7 7.2-1.2s3.8-1.3 5-2.3 1.8-2.5 1.7-4.4c0-2-.3-3.6-1-4.8s-1.5-2.1-2.6-2.8-2.4-1.1-3.8-1.3-3-.3-4.7-.3c-3.7 0-6.6.8-8.7 2.4s-3.3 4.2-3.7 7.9H89.4zm43 13.8c-.8.7-1.8 1.2-2.9 1.6-1.2.4-2.4.7-3.8 1s-2.8.5-4.3.7l-4.5.7-4.1 1c-1.4.4-2.5 1-3.5 1.8-1 .7-1.8 1.7-2.4 2.8s-.9 2.6-.9 4.3.3 3.1.9 4.2 1.4 2 2.5 2.7c1 .7 2.3 1.1 3.7 1.4s2.8.4 4.3.4c3.7 0 6.5-.6 8.5-1.8s3.5-2.7 4.5-4.4 1.6-3.4 1.8-5.2c.2-1.7.3-3.1.3-4.2v-7zm39.7 16.3c.8 1.4 1.9 2.6 3.2 3.5a13.16 13.16 0 0 0 4.5 2c1.7.4 3.5.7 5.3.7 1.3 0 2.7-.2 4.1-.5s2.8-.8 3.9-1.4c1.2-.7 2.2-1.5 2.9-2.6.8-1.1 1.2-2.5 1.2-4.1 0-2.8-1.9-4.9-5.6-6.3s-8.9-2.8-15.5-4.2c-2.7-.6-5.4-1.3-7.9-2.2-2.6-.8-4.9-1.9-6.9-3.3s-3.6-3.1-4.8-5.1c-1.2-2.1-1.8-4.6-1.8-7.5 0-4.4.9-8 2.6-10.7 1.7-2.8 4-5 6.8-6.6s5.9-2.8 9.4-3.4c3.5-.7 7.1-1 10.8-1s7.2.4 10.7 1c3.5.7 6.5 1.9 9.2 3.5 2.7 1.7 5 3.9 6.7 6.6 1.8 2.8 2.9 6.2 3.2 10.4h-17.7c-.3-3.6-1.6-6-4.1-7.3-2.4-1.3-5.3-1.9-8.7-1.9-1 0-2.2.1-3.4.2s-2.3.4-3.3.9c-1 .4-1.9 1.1-2.6 1.9s-1 1.9-1 3.3c0 1.7.6 3 1.8 4.1 1.2 1 2.8 1.9 4.8 2.6s4.2 1.2 6.8 1.8l7.7 1.7c2.7.6 5.4 1.4 7.9 2.2 2.6.9 4.9 2 6.9 3.5 2 1.4 3.6 3.2 4.8 5.4 1.2 2.1 1.8 4.8 1.8 7.9 0 4.5-.9 8.2-2.7 11.2s-4.1 5.4-7 7.3c-2.9 1.8-6.2 3.1-9.9 3.9-3.7.7-7.5 1.1-11.3 1.1-3.9 0-7.8-.4-11.5-1.2-3.8-.8-7.1-2.1-10-3.9s-5.3-4.3-7.2-7.3-2.9-6.8-3.1-11.3h17.7c0 1.9.4 3.6 1.3 5.1"/><path class="D" d="M255 54v12.5h-13.6V100c0 3.1.5 5.2 1.6 6.3 1 1 3.1 1.6 6.3 1.6l3-.1c1-.1 1.9-.2 2.8-.4v14.4c-1.6.3-3.3.4-5.2.5s-3.8.1-5.6.1c-2.9 0-5.6-.2-8.2-.6s-4.8-1.2-6.8-2.3-3.5-2.8-4.7-4.9c-1.1-2.1-1.7-4.8-1.7-8.3v-40h-11.3V54h11.3V33.6h18.6V54H255z"/><path class="I" d="M188.3 177.6c-.5 2-1.4 3.7-2.6 5.1s-2.7 2.4-4.6 3.2c-1.9.7-4.2 1.1-6.9 1.1-1.7 0-3.3-.2-4.9-.6s-3-1-4.3-1.8-2.3-1.9-3.2-3.2c-.8-1.3-1.3-2.8-1.5-4.6h4.1c.2 1.3.6 2.3 1.3 3.1.6.8 1.4 1.5 2.3 2s1.9.9 3 1.1 2.2.4 3.3.4c3.8 0 6.6-1.1 8.2-3.2 1.7-2.2 2.5-5.3 2.5-9.4v-4.5h-.1c-1 2.1-2.3 3.7-4.2 5-1.8 1.3-4 1.9-6.5 1.9-2.7 0-5-.4-6.9-1.3s-3.5-2.1-4.7-3.7-2.1-3.4-2.7-5.5-.8-4.3-.8-6.7c0-2.3.3-4.5 1-6.5.7-2.1 1.6-3.9 2.9-5.4s2.9-2.7 4.7-3.6c1.9-.9 4-1.3 6.5-1.3 1.3 0 2.4.2 3.5.5a8.47 8.47 0 0 1 3 1.5c.9.6 1.7 1.4 2.4 2.2s1.3 1.7 1.7 2.6h.1v-5.8h4.1V171c.2 2.3-.1 4.6-.7 6.6m-9.3-9c1.3-.8 2.5-1.8 3.4-3s1.6-2.7 2-4.3c.5-1.6.7-3.2.7-4.9 0-1.6-.2-3.3-.6-4.9s-1-3.1-1.9-4.5c-.9-1.3-2-2.4-3.3-3.2-1.4-.8-3-1.2-5-1.2-1.9 0-3.6.4-5 1.2s-2.5 1.9-3.4 3.2a13.55 13.55 0 0 0-2 4.4 22.2 22.2 0 0 0-.6 5.1c0 1.7.2 3.3.7 4.9.4 1.6 1.1 3 2 4.3.9 1.2 2.1 2.2 3.4 3 1.4.8 3 1.1 4.9 1.1 1.8 0 3.3-.4 4.7-1.2m17.2-28.5v7.9h.1a13.34 13.34 0 0 1 4.8-6.3c2.2-1.5 4.8-2.1 7.8-2v4.1c-1.9-.1-3.6.2-5.1.7-1.5.6-2.8 1.4-3.9 2.5s-2 2.4-2.6 3.9-.9 3.1-.9 4.9v17.9h-4.1v-33.5h3.9zm32 .4c2 1 3.6 2.2 5 3.8 1.3 1.6 2.4 3.5 3.1 5.6s1 4.4 1 6.9c0 2.4-.3 4.7-1 6.9s-1.7 4-3.1 5.6c-1.3 1.6-3 2.9-5 3.8s-4.2 1.4-6.8 1.4-4.8-.5-6.8-1.4-3.6-2.2-5-3.8c-1.3-1.6-2.4-3.5-3.1-5.6s-1-4.4-1-6.9c0-2.4.3-4.7 1-6.9.7-2.1 1.7-4 3.1-5.6 1.3-1.6 3-2.9 5-3.8 2-1 4.2-1.4 6.8-1.4s4.9.5 6.8 1.4m-11.9 3.3c-1.5.8-2.7 1.9-3.7 3.2s-1.7 2.9-2.2 4.6-.7 3.5-.7 5.2c0 1.8.2 3.5.7 5.2s1.2 3.2 2.2 4.6c1 1.3 2.2 2.4 3.7 3.2s3.2 1.2 5.1 1.2 3.7-.4 5.1-1.2c1.5-.8 2.7-1.9 3.7-3.2s1.7-2.9 2.2-4.6.7-3.5.7-5.2c0-1.8-.2-3.5-.7-5.2s-1.2-3.2-2.2-4.6c-1-1.3-2.2-2.4-3.7-3.2s-3.2-1.2-5.1-1.2c-1.9-.1-3.6.4-5.1 1.2m46 29.8v-6h-.1a11.91 11.91 0 0 1-4.7 5.2c-2.1 1.2-4.3 1.8-6.9 1.8-2.1 0-3.9-.3-5.4-.9s-2.7-1.4-3.6-2.5a10.05 10.05 0 0 1-2-4c-.4-1.6-.6-3.3-.6-5.3v-21.8h4.1v21.8c.1 3 .8 5.3 2.1 6.9s3.6 2.3 6.9 2.3c1.8 0 3.3-.4 4.5-1.1 1.3-.8 2.3-1.8 3.1-3 .8-1.3 1.4-2.7 1.8-4.3a20.74 20.74 0 0 0 .6-5v-17.6h4.1v33.5h-3.9zm10.8-33.5v6.4h.1c1-2.3 2.5-4.1 4.6-5.4s4.6-1.9 7.3-1.9c2.6 0 4.8.5 6.7 1.4 1.9 1 3.5 2.2 4.7 3.9 1.3 1.6 2.2 3.5 2.8 5.7.6 2.1.9 4.4.9 6.8s-.3 4.6-.9 6.8c-.6 2.1-1.5 4-2.8 5.7-1.3 1.6-2.8 2.9-4.7 3.8s-4.1 1.4-6.7 1.4c-1.2 0-2.4-.2-3.6-.5s-2.3-.8-3.4-1.4a12.27 12.27 0 0 1-2.8-2.3c-.8-.9-1.4-2-1.9-3.2h-.1V186h-4.1v-45.9h3.9zm22.4 11.6c-.4-1.7-1.1-3.2-1.9-4.6-.9-1.3-2-2.4-3.4-3.3-1.4-.8-3.1-1.3-5-1.3-2.3 0-4.1.4-5.7 1.2-1.5.8-2.7 1.8-3.6 3.1s-1.5 2.8-1.9 4.5-.6 3.6-.6 5.5a23.06 23.06 0 0 0 .6 5.2c.4 1.7 1.1 3.2 2 4.6s2.1 2.4 3.6 3.3c1.5.8 3.3 1.3 5.5 1.3 1.9 0 3.6-.4 5-1.3 1.4-.8 2.5-1.9 3.4-3.3s1.5-2.9 1.9-4.6.6-3.4.6-5.2c.1-1.7-.1-3.4-.5-5.1"/><linearGradient id="A" gradientUnits="userSpaceOnUse" x1="310.548" y1="117.23" x2="310.483" y2="117.193"><stop offset=".342" stop-color="#0C418D"/><stop offset=".811" stop-color="#19204B"/></linearGradient><path d="M310.5 117.2z" fill="url(#A)"/><linearGradient id="B" gradientUnits="userSpaceOnUse" x1="359.285" y1="113.515" x2="304.35" y2="81.798"><stop offset=".342" stop-color="#004B94"/><stop offset=".811" stop-color="#212458"/></linearGradient><path d="M348.2 115C303 95.3 311.3 70.4 322 60.5l-3.2 3c-16.2 15.4-30.9 40.8-4 55.8 0 0 0 .1.1.1l6.8 3.2.8.4c9.4 4.3 12.8 5.2 18.7 7.2h.1c9.7 2.2 17.9-10.4 6.9-15.2z" fill="url(#B)"/><linearGradient id="C" gradientUnits="userSpaceOnUse" x1="315.518" y1="119.709" x2="315.502" y2="119.682"><stop offset=".168" stop-color="#213174"/><stop offset=".376" stop-color="#273986"/><stop offset=".99" stop-color="#00ADE5"/></linearGradient><path d="M315.5 119.7z" fill="url(#C)"/><linearGradient id="D" gradientUnits="userSpaceOnUse" x1="361.957" y1="91.769" x2="324.864" y2="30.037"><stop offset=".095" stop-color="#213174"/><stop offset=".376" stop-color="#233E89"/><stop offset=".846" stop-color="#00A8E1"/><stop offset=".99" stop-color="#00AFE6"/></linearGradient><path d="M381.2 1l-27 13c-14.3 7.5-71.1 36.4-79.6 58.2-8.3 21.2 24.9 39.9 40.8 47.5-27.9-15-13-40.7 3.3-56.3 28.5-27.2 73.8-55 73.8-55 4-2.9-1.4-11.2-11.3-7.4z" fill="url(#D)"/><path class="P" d="M385.1 13.2c.1-3.9-3.8-8.3-10.1-9.4-1 .5-2.1 1-3.3 1.5 6.3 1.4 9.8 5.5 10.5 9.7.7-.4 1.3-.9 1.9-1.3.2 0 .5-.2 1-.5zm-16.4-6.4l-3.3 1.6c6.4 1.4 10.3 6.2 11 10.5.1 0 .1-.1.2-.1l2.6-1.7c0-3.9-4.3-9.3-10.5-10.3zm1.8 16.1c.5-.3 1-.7 1.4-1s.8-.5 1.2-.8c.1-3.9-4.6-10.2-10.8-11.2-1.1.5-2.2 1.1-3.2 1.6 6.4 1.5 10.7 7.1 11.4 11.4z"/></svg>