<svg xmlns="http://www.w3.org/2000/svg" viewBox="0 0 220.72 220.72"><style><![CDATA[.D{fill:#3c495b}]]></style><path d="M128.97 25.35L106.3 64.62 83.63 25.35H8.14l98.16 170.02 98.16-170.02h-75.49z" fill="#74b784"/><path d="M128.97 25.35L106.3 64.62 83.63 25.35H47.4l58.9 102.01 58.89-102.01h-36.22z" fill="#ecc766"/><path class="D" d="M5.77 160.15h23.49q5.87 0 9 3.13a10.51 10.51 0 0 1 3.16 7.72 10.24 10.24 0 0 1-2.24 6.65 9.92 9.92 0 0 1-4.38 2.92 11.21 11.21 0 0 1 6.44 3.89 11.25 11.25 0 0 1 2.06 6.93 12.63 12.63 0 0 1-1.47 6.11 11.25 11.25 0 0 1-4 4.29 12.55 12.55 0 0 1-4.76 1.43 51 51 0 0 1-5.62.6H5.77zm12.66 17.14h5.46q2.94 0 4.09-1.09a4.13 4.13 0 0 0 1.15-3.15 3.88 3.88 0 0 0-1.15-3Q26.82 169 24 169h-5.57zm0 17.17h6.4q3.24 0 4.57-1.24a4.32 4.32 0 0 0 1.33-3.32 4 4 0 0 0-1.32-3.12q-1.32-1.18-4.61-1.18h-6.37zm28.77 9.39v-43.7h20.91a28.37 28.37 0 0 1 8.89 1.07 9.56 9.56 0 0 1 5 4 12.75 12.75 0 0 1 1.88 7.08 12.9 12.9 0 0 1-1.44 6.28 11.74 11.74 0 0 1-4 4.28 14.53 14.53 0 0 1-4.44 1.71 12.17 12.17 0 0 1 3.27 1.61 13.27 13.27 0 0 1 2 2.3 17.33 17.33 0 0 1 1.76 2.71l6.08 12.66H73l-6.75-13.35a10.16 10.16 0 0 0-2.25-3.37 5 5 0 0 0-3.07-1H59.8v17.74zm12.6-26h5.29a17.62 17.62 0 0 0 3.32-.6 3.3 3.3 0 0 0 2-1.37 4.24 4.24 0 0 0 .79-2.53 4.17 4.17 0 0 0-1.2-3.24Q68.75 169 65.31 169H59.8z"/><path class="D" d="M113.29 196.64H99l-2 7.21H84.25l15.26-43.7h13.69l15.26 43.7h-13.14zm-2.6-9.45l-4.48-15.71-4.44 15.71zm16.73 2.21l11.94-.81a10.27 10.27 0 0 0 1.58 4.77 6.45 6.45 0 0 0 5.54 2.65 5.84 5.84 0 0 0 4.14-1.36 4.18 4.18 0 0 0 1.46-3.15 4.13 4.13 0 0 0-1.39-3q-1.39-1.34-6.43-2.53-8.25-2-11.77-5.31a11 11 0 0 1-3.55-8.44 12.09 12.09 0 0 1 1.81-6.37 12.26 12.26 0 0 1 5.46-4.71q3.64-1.71 10-1.71 7.78 0 11.87 3.12 4.09 3.12 4.86 9.91l-11.83.75a7 7 0 0 0-2-4.29 6.06 6.06 0 0 0-4.17-1.34 4.78 4.78 0 0 0-3.3 1 3.15 3.15 0 0 0-1.11 2.43 2.49 2.49 0 0 0 .91 1.88q.89.87 4.21 1.61 8.23 1.91 11.79 3.86a12.73 12.73 0 0 1 5.18 4.84 13 13 0 0 1 1.62 6.47 14.62 14.62 0 0 1-2.16 7.75 13.8 13.8 0 0 1-6 5.38 22.89 22.89 0 0 1-9.78 1.83q-10.36 0-14.35-4.29a17.53 17.53 0 0 1-4.53-10.94zm40.82-29.25h12.58v43.7h-12.58zm18.76 0h12.55v32.94h19.58v10.76H187z"/></svg>