<svg xmlns="http://www.w3.org/2000/svg" id="naturalis" viewBox="0 0 284.94 140"><defs><style>.cls-2{fill-rule:evenodd;fill:#006300}</style></defs><path fill="#093" fill-rule="evenodd" d="M188.71 3.42l-.23-.23-.25-.19-.15-.1-.14-.07-.29-.12-.34-.1-.31-.07h-1.19l-.37.06-.34.07-.31.11-.31.12-.26.15-.26.16-.2.2-.23.21-.19.26-.18.26-.12.31-.11.2-.08.22-.11.44-.05.21v1.04l.08.41.11.38.08.19.11.21-.19.18-.18.19-.38.34-.41.31-.41.3-.12.05-.11.07-.22.12-.23.11-.22.12-.25.09h-.13l-.11.05-.49.18-.42.1-.37.11-.34.1-.31.09-.29.07-.25.08-.2.07-.18.08-.06.15V11.61l.07.15v.07l.07.07.15.08h2.84L142 37.74l3.29 6.53h2l.3.45.12.25.11.26.08.25.07.26v1.57l-.07.24-.08.26-.19.52-1.81.64v1.05l-.07.11-.05.12-.07.11V50.48h-.06v.05l-.1.11-.11.1-.11.11-.57.18-.55.15-.55.12-.55.12-.55.08-.55.07h-2.22l-.55-.07-.55-.08-.55-.12-.55-.12-.55-.15-.55-.18v2.42h1.61l.47.07.19-.05h1l.14.05h.1l.11.07.08.08.08.11.05.1.06.12V55.44l-.05.15-.06.12-.18.19-.21.19-.14.08-.05.05-.29.19-.19.05H137.64l-.22-.05H137.25l-.44-.11.08.78.25.9v.22l.05.23.1.46.11.9v1.82l-.05.45-.05.47-.19.9-.25.93V64.94l-.07.27-.06.27-.05.11V65.71l-.08.23-.11.22-.1.22-.14.18-.07.08-.06.1-.15.16-.08.07-.07.08-.1.06-.08.07-.1.05-.08.07-.19.09-.19.1h-.45l-.36.11-.34.11-.36.1-.34.08-.71.11h-2.12l-.74-.14-.37-.08-.36-.09-1.08.07h-3.72l-.87-.07-.88-.08-.87-.11-.86-.12-.87-.16-.86-.18L118 67l-.85-.22-.86-.26-.85-.27-.85-.29-.85-.31-.52-.62-.48-.6-.9-1.23-.44-.63-.41-.61-.4-.63-.37-.61-.71-1.28-.63-1.29-.3-.66-.27-.64-.48-1.31-.44-1.5-.36-1.5-.17-.77-.14-.75-.12-.77-.08-.75-.15-1.56-.07-1.56V44.02l.05-.78v-1.8h1.33l.05.07.07.1.33.41.37.4.37.37.41.36.41.33.45.31.46.3.51.29.49.25.53.25.55.22.59.2.57.18.62.16.63.14.67.14-.22-.37-.19-.33-.19-.33-.16-.3-.18-.3-.15-.27-.29-.49-.26-.46-.2-.38-.18-.33-.12-.26v-.75l.06-.1.05-.09.08-.05.15-.11h.55l.15.07h.28l.15.07.14.07.18.09.18.12.22.15.2.15.25.2.25.2.29.25.29.26.32.29.33.31.36.34.31.34.35.41.36.47.38.53.38.59.42.66.42.72.45.79 1.76-.19 10-6.91 15.5-11.38-.1-.18-.12-.15-.16-.14L148 29l-.18-.07h-14.53l-1.49.1-1.43.12-1.41.15-1.34.2-1.31.21-1.26.26-1.23.29-1.16.31-1.26.34-1.2.38-1.16.4-1.11.44-1.08.44-1 .48-1 .48-.94.52v-.36l.11-.33.16-.33.25-.33.3-.33.38-.31.44-.33.53-.3.57-.33.66-.3.71-.3.81-.3.85-.3.94-.3 1-.3 1.08-.27.14-.25.11-.25.07-.25v-.48l-.07-.24-.11-.25-.14-.22-1.18.21-1.13.23-1.09.25-1.05.29-1 .27-1 .31-1 .33-.92.36-.91.36-.86.38-.83.4-.79.42-.78.42-.74.47-.7.48-.67.51-.64.49-.62.53-.57.53-.53.57-.52.57-.48.6-.44.61-.4.66-.4.64-.34.68-.32.68-.27.72-.26.72-.2.75-.18.77-.14.79h2.94v3.35l.07 1.11.07 1.06.12 1.07.12 1.05.18 1.05.18 1 .2 1 .23 1 .29 1 .29 1 .31 1 .34.94.38.94.38.9.42.9.45.89.48.89.49.86.53.86.56.83.59.83.59.79.64.79.66.78.7.78.7.75.75.75.75.72.81.72.47-.14.48-.11.93-.18.45-.08.46-.06.9-.05h1.74l.85.08.41.07.42.1.41.1.38.12.16.05.15.08.27.18.19.18.16.2.05.11v.11l.05.26-.07.19-.06.21v.18l-.07.19-.1.17-.08.18-.06.07v.08l-.1.16-.12.14-.06.08-.14.12-.12.14-.16.11-.08.05-.31.22-6.36-.41h-1.2l1.13 1.33 1.41.15 1.42.22 1.39.27 1.42.33 1.39.37 1.39.44 1.38.48 1.39.55 1.53.15 1.53.26 1.53.34 1.56.42 2 1.89.79-.72-.23-.49-.18-.49-.14-.49-.1-.49-.07-.51v-.98l.07-.49.08-.52.14-.49.16-.49.22-.49.23-.52.29-.49.15-.26.18-.25.37-.49h.39l.15.05.14.09.08.1.07.12V74.8l.22.26.19.27.14.27.11.27.29.19.26.19.22.19.21.2.14.19.12.19.07.19.06.22-.06.22V78.49l.07.19.08.16.12.16.12.14.16.14.18.11.21.12.22.08.26.1.26.07.32.07.31.07.27.1.11.05.12.08.19.18.06.08.07.11.08.23v.56l1.86 2.21.05.14V84.23l-.07.11-.07.11-.11.08-.05.06-.14.07-.15.08-.19.05-.19.07-.22.06-.23.05-4.22-3.25-.27.1-.23.11-.21.11-.15.12-.12.11-.08.14-.05.14V83l.05.15.08.15.12.16.15.16.21.16.23.18.27.19.22.25.2.27.15.27.15.27.1.27.08.27v.54h-1.11l-5.48 2.58L125 92l-.29.27-.22.3-.19.3-.14.3-.07.14v.15l-.05.3v.6H126.94l1-.08 4.58-1.68 4.2-2.32 2.3-.31.38 1.12-.22.34-.19.33-.19.31-.19.3-.41.55-.19.26-.19.25-.11.1-.07.11-.1.22v.19l.05.22.1.19.08.09.11.11.12.34.33.19-.18.27-.15.27-.15.25-.12.25-.14.22-.11.22-.11.2-.08.19-.1.16-.07.16-.12.27-.05.11V98l-.07.23v.46h.76l.18-.07.2-.07.23-.12.27-.12.27-.18.32-.2.34-.23.37-.26.35-.3.37-.26.71-.45.34-.2.36-.16.34-.16.36-.12.29-.11.27-.07.26-.05h.97l.2.09.18.1.16.12.15.15.15.18.12.19.12.23.09.25.1.29.57-2.62 1.45-3.54.42-.12h1.56l.15.07.14.05.12.08.11.08.11.11v1.27l-.46.88-.49.87-.53.85-.56.85-.61.82-.63.82-.18.19-.16.2-.34.41-.7.79-.18.52-.08.25-.06.26-.1.49v1.41l.07.44.12.42v.08H146.58l.42-.09.57-.33.57-.34.55-.35.26-.19.27-.18.5-.41.51-.41.48-.44.46-.45.44-.48.42-.49.41-.52.19-.27.1-.14.11-.12.08-.15.09-.14.19-.27.35-.57.33-.6.33-.62.79-6.68.22-.31.11-.12.14-.1.11-.09h.69l.14.09.11.1.11.12.25.31 5.25 7.15.06.07.05.05h.31l.08-.05.06-.08.05-.09.11-.25v-.16l.06-.18.05-.19.06-.2.11-.63v-.31l.05-.3.08-.63.07-.6v-3.17l-.05-.63-.16-1.29-.12-.65-.07-.33-.05-.31-.15-.66-.16-.64-.29-.49-.3-.49-.31-.48-.34-.46-.37-.46-.4-.47-.41-.46-.42-.44.14-.12.16-.11.34-.26.37-.3.4-.33.42-.38.45-.4.48-.45.25-.23.27-.23.25-.1.12-.05h.14l.23-.11.25-.11.22-.14.11-.07.12-.06.1-.08.11-.07.22-.14.08-.09.09-.08.19-.18.18-.19.19-.18.15-.22.24-.34V75.88l.08-.11.16-.22.25-.48.27-.41.12-.21.14-.18.27-.31.25-.3.27-.23.25-.19.27-.14.77-.6.78-.53.75-.51.76-.45.72-.42.74-.36.71-.33.35-.15.37-.12.29.92.27.94.23 1 .22 1 .16 1 .15 1 .12 1 .1 1.05.14-.11.07-.05h.08l.12-.11.14-.09.11-.12.12-.11.23-.22.08-.14.06-.05.15-.24.12-.27.05-.14V75.77l.18-.56.08-.23.11-.2.19-.34.11-.12.11-.1.1-.1h.33l.22.07.11.07.14.12.07.41.12.4.07.16.1.18.2.33.14.21v.05l.08.11.05.08v.05l.14.16.11.14.11.14.09.11.1.11h.65V76.73l.07-.18.1-.2.12-.26.07-.14.1-.12.18-.3.23-.31v-.11L182 75v-.11l.05-.1.08-.26.08-.26.06-.31.05-.31V68.89h-.05l.07-.21.15-.18.22-.18.3-.15.35-.15.44-.12.49-.11.59-.08.27-.07.29-.06.27-.08H186l.26-.11.27-.1.25-.12.22-.17.22-.15.23-.14.22-.16.23-.16.21-.19.22-.18.19-.2.1-.11.11-.09.16-.19v-.05l.07-.08.08-.19v-.39l-.08-.19-.14-.22-.16-.19-8.32-.56-1.37-1.74-.19-.46-.19-.4-.19-.34-.19-.27-.19-.22-.19-.15-.19-.09h-.37l-.19.09-.19.15-.19.22-.19.27-.19.34-.19.4-.16.46-.67 2.3-.41.09H174.68l-.19.06h-1.63l-.41-.1-.41-.09-.31-.14-.26-.15-.22-.16-.16-.16-.15-.19-.1-.21-.05-.22V59.7l.41-.19.21-.08.22-.05.41-.08h.81l.41.08.38.14.41.19.72 1.61 1.07-5.1.11-.42.14-.41.34-.82.18-.42.22-.41.48-.82-.29-.34-.26-.34-.26-.35-.23-.34-.07-.1-.12-.3-.05-.15v-.14l-.06-.3V50l.06-.27.08-.3.12-.27-.05-.23-.08-.2-.12-.2-.15-.16-.2-.16-.22-.14-.27-.14-.29-.11-.18.3-.14.3-.11.31-.07.33V50l.07.36h-.71l-.14-.1-.16-.12-.08-.07-.07-.05-.83-1.8-.22-.26-.11-.1h-.3l-.19.07-.11.31-.08.29-.07.26v.93l-.19.16h-.05l-.08.07-.19.08H170.43l-.19-.08-.22-.14-.11-.08-.1-.08-1-1.67-.23.2-.18.22-.15.22-.12.22-.13.16-.07.22v.44l.83.92.11.33v.65l-.05.16-.06.18-.27.16-.14.05H168.23l-.27.07h-.86l-.16-.07-.15-.05-.3-.16-.08-.11-.05-.1-.1-.22-.05-.25v-.55l.05-.3.1-.31.05-.18.08-.16.52-2.46v-9l-.27-.33-.25-.27-.23-.22-.2-.14-.2-.11-.18-.05h-.16l-.14.08-.15.11-.11.17-.11.22-.07.29-.08.33v1.33l-.29 2.09v.66l-.34 1v.07l-.61.89-.49.53-.26.25-.25.26-.27.23-.26.25-.55.45-.3.2-.29.22-.3.19h-.08l-.07.06-.14.11-.63.37-.33.16-.16.08h-.08l-.07.05-.71.41-.36.19-.34.19-.37.16-.36.18-.71.31-.74.26-.37.11-.35.12-.74.18-.74.15 8.43-5.52.26-.46.26-.44.2-.46.19-.44.14-.46.05-.23.07-.22.08-.46v-1.84l-.07-.46-.12-.49-.07-.25-.05-.23-.18-.49-.1-.25-.06-.12v-.11h-1.8l4.7-2.77-1.52-1.61 22.66-19.64.26.07.27.05H188.65l.3-.07.31-.08.31-.1.33-.11.66-.27.33-.16.36-.18.4-.27.4-.25.37-.25.36-.25.22-.23.31-.25.29-.25.26-.25.2-.34.21-.33.16-.33.15-.31.12-.31.1-.3.07-.3V6.94l-.05-.26-.1-.26-.1-.25-.14-.25-.15-.23-.19-.25-.21-.21-.26-.23-.23-.16-.26-.16-.27-.12-.29-.11-.3-.07-.32-.04h-1.88l-.42.06-.44.08-.11-.3-.15-.31-.15-.25-.15-.21zm-22.44 59.3l-.19-.3-.07-.16v-.15l-.06-.18V61l.08-.38.11-.41.08-.22.11-.2.14-.16.14-.11.14-.07h.3l.15.07.14.11.16.16.26.48.25.51.21.53.2.56.15.58.12.61.09.64.08.67v1.16l-.07.36-.12.33-.15.33-.19.3-.11.13-.05.07v.08l-.34-.48-.16-.24-.14-.23-.26-.53-.12-.27-.1-.26-.2-.59-.1-.3-.07-.29-.12-.62-.05-.33v-.31zm3.84 5.47L170 67.1l.67-.18.12-.07 1.91-.92h.18l.12.07.12.05.12.05.07.06.07.05V66.44l-.05.06-.07.08-.11.05-.12.08-.15.07-.15.08-.89 1.22-.22.11-.22.1-.22.05h-.66l-.22-.08-.21-.1zm-6.46-.41v-1.94l.3-.18.14-.07h.54l.14.07.11.07.12.12.11.12.12.16.1.16.11.21.1.21.11.26.15.5.14.55.11.56.1.59.05.6v2.03l-.16.31-.08.15-.07.16-.18.3-.16.3-.19.27-.09.14-.08.15-.38.53-.22.23-.2.25-.23.22-.22.23-.25.19-.06.05-.11.11-.25.18-.23.19-.22.14-.22.11-.22.06H161.97l-.2-.06-.27-.01-.19-.14-.15-.23-.1-.22-.07-.23v-.49l.07-.25.1-.26.15-.25v-.95l.07-.25.07-.26.1-.29v-.31l.08-.32.06-.33V69.52H160.78l-.19-.07-.15-.07-.15-.11-.11-.12-.11-.57-.06-.57v-.57l.08-.57.11-.57.16-.57.22-.57.3-.56v-.15l.07-.1.1-.05h.31l.2.05.23.1.26.15v2.77l.09.12.14.11h.17l.2.07h.25zm-6.46-29.41l.34-.18.33-.12.29-.1.29-.07h.69l.19.05.15.19.15.19.12.19v.05l.05.11v.76l-.06.18-.07.19-.1.19-.12.19-.15.16-.18.19-.11.08h-.05v.05l-.23.19h-1.13l-.3-.07-.29-.08-.16-.07-.15-.06-.3-.12-.06-.27v-.46l.08-.27.11-.27.15-.27.19-.27.23-.26zm-1.8 36.51l-.1-.14-.07-.14v-.51l.07-.14.12-.11.11-.07h.24l.14.05.11.07.14.11.11.15.14.19v1l-.07.25-.08.24-.1.25v.13l-.05.14-.3.41-.18-.25-.12-.22-.09-.25-.06-.22v-.71l.08-.22zm1.86-4.45l.12.16.11.19.06.19v.54l-.08.19-.11.19h-1l-.15-.18-.1-.16V71l.1-.19.05-.11.08-.1.08-.11.11-.1zm.51 15.31l-.76 1.32-.68-.32-.64-1-.14-.14-.05-.07v-.06l-.06-.14V85l.07-.16.09-.18.14-.16h.12l.11-.11.12-.08.22-.14.1-.05h.57l.1.05.07.06.08.08.07.08.08.11.37 1.16zm-3.09-7.11l.2.49.18.49.14.49.09.52v1.49l-.07.52-2.73 3.7-.44.18-.22.07h-2.04l-.25-.07h-.24l-.47-.18-.1-.41-.07-.38V84l.07-.38.1-.38.1-.41.15-.38.18-.38.21-.38.2-.38.26-.38.29-.38.31-.38h-.72l-.18-.41-.12-.41-.1-.42-.05-.41v-.86l.05-.44.1-.42.08-.52.1-.45.11-.42.14-.37.14-.34.15-.27.16-.25.19-.18.18-.16.2-.11.22-.07h.46l.26.07.27.11.3.16.3.3.3.4.27.45.14.26.15.3.12.29.14.33.12.33.14.37.25.78z"/><path d="M58 104.82a2.06 2.06 0 0 1-1 1.74 12 12 0 0 1-3.49 1.44 34.67 34.67 0 0 1-3.46.57 28.54 28.54 0 0 1-4 .29q-1.36 1.54-4.24 5.53-2.39 3.37-4.71 6.79-1.11 1.67-2.21 3.31l4.27.25a.57.57 0 0 1 .34.53.84.84 0 0 1 0 .24c0 .13-.24.22-.63.29a10.7 10.7 0 0 1-1.44.09h-1.74c-.55 0-1-.07-1.49-.14l-3.2 3.61a43.77 43.77 0 0 1-7.89 6.79q-5.68 3.71-10.68 3.7a9.8 9.8 0 0 1-6.78-2.21 7.57 7.57 0 0 1-2.45-5.88q0-4.13 3.75-7.74a13.27 13.27 0 0 1 9.53-3.9 6.53 6.53 0 0 1 4.52 1.4 4.94 4.94 0 0 1 1.54 3.79 5.62 5.62 0 0 1-2.12 4.19 6.66 6.66 0 0 1-4.52 1.92 2.83 2.83 0 0 1-2.16-.86 3 3 0 0 1-.83-2.17 3.91 3.91 0 0 1 1.91-3.39 1.68 1.68 0 0 1 .81-.38c.14 0 .22 0 .25.14v.09c0 .17-.18.41-.53.73a4 4 0 0 0-1.54 2.78 2 2 0 0 0 .67 1.59 2.55 2.55 0 0 0 1.72.58 5.31 5.31 0 0 0 4.1-1.82 5.19 5.19 0 0 0 1.49-3.56 3.8 3.8 0 0 0-1.21-2.89 5 5 0 0 0-3.46-1.11q-4.67 0-8.75 4.52-3.7 4.09-3.7 7.46a5.38 5.38 0 0 0 2 4.28 8.11 8.11 0 0 0 5.44 1.68 13.27 13.27 0 0 0 8.41-3.23q3.56-2.84 8.9-10h-4.16c-1.05 0-1.61-.09-1.68-.28a.88.88 0 0 1 0-.25.68.68 0 0 1 .14-.38 11 11 0 0 1 2.21-.14l4.23-.09c.73-1 1.49-2.05 2.26-3.08q2.79-3.77 5.24-6.74a58.42 58.42 0 0 1 5.73-6.25l-14.82-1.54q-6.31 0-9.72 2.17a5.53 5.53 0 0 0-3 4.77 3 3 0 0 0 1.15 2.53 4.36 4.36 0 0 0 3 1 10.47 10.47 0 0 0 5.49-1.6 80.22 80.22 0 0 0 6.63-5.87.26.26 0 0 1 .19-.1.39.39 0 0 1 .34.25.42.42 0 0 1 0 .18c0 .65-1.2 2-3.6 4.06q-4.57 4-9.19 4a5.48 5.48 0 0 1-3.51-1.11 3.66 3.66 0 0 1-1.4-3q0-3.13 3.85-6.25 4.81-4 12.31-4a33.48 33.48 0 0 1 5.49.44l9.92 1.62a22.21 22.21 0 0 1 4.76-2.26 13.7 13.7 0 0 1 4.1-.76 3.3 3.3 0 0 1 1.87.48 1.46 1.46 0 0 1 .73 1.24zm-1 0c0-.59-.51-.87-1.54-.87a7.64 7.64 0 0 0-2.6.48 10.72 10.72 0 0 0-3.46 2.08c.38.06.9.12 1.54.18l1.44.14h.48a6.65 6.65 0 0 0 2.73-.62c1-.44 1.44-.84 1.44-1.19a.43.43 0 0 0 0-.2zm-3.94 22a.14.14 0 0 0-.1 0q-.57 0-2.55 2.6-4.17 5.44-4.29 5.53c-1.7 2-3 3-3.79 3-.29 0-.43-.1-.43-.33v-.15a1.5 1.5 0 0 1 .23-.76l7.27-12.23h-3.51l-.62 1.12a1.88 1.88 0 0 0-1.93-1.26q-3.19 0-6.93 4.18t-3.75 7.42a3.77 3.77 0 0 0 .76 2.41 2.35 2.35 0 0 0 1.88 1q1.24 0 3.08-1.92.58-.63 1.59-1.92v.29a6.52 6.52 0 0 0 .18 1.49c.32 1.21.93 1.82 1.84 1.82q1.59 0 5-3.65 6.11-6.54 6.11-8.28a.53.53 0 0 0 0-.24zm-8.8-.53q0-.91-.82-.91-1.54 0-5 5.2t-3.46 7q0 .53.43.53 1.31 0 5.06-5.2t3.75-6.63zm20.84 1.11c0-.26-.11-.39-.34-.39h-.1c-.32 0-.95.74-1.88 2.08q-2.31 3.31-3 4.23a39.65 39.65 0 0 1-3.51 3.85q-1.68 1.59-2.41 1.59a1.15 1.15 0 0 1-.77-.29.79.79 0 0 1-.34-.58c0-.55 1.2-2.46 3.61-5.77s3.55-5.34 3.55-6.21-.37-1.25-1.1-1.25a7.09 7.09 0 0 0-2 .53A11.73 11.73 0 0 0 55 126c.18-.35.33-.62.42-.81a6.89 6.89 0 0 0 .87-2.16c0-.71-.26-1.07-.76-1.07s-1.36.7-2.13 2.08a7.42 7.42 0 0 0-1.15 3c0 .61.29.92.87.92a5.28 5.28 0 0 0 2.65-.82l.2.53q-1.79 2.31-3.57 4.57a8.71 8.71 0 0 0-1.59 4.71 2.77 2.77 0 0 0 .63 1.88 2.1 2.1 0 0 0 1.64.71 4.59 4.59 0 0 0 2.54-1.11 35.09 35.09 0 0 0 4.47-4.47q1-1.09 2.73-3.17 2.27-2.69 2.27-3.37zm20.58.29v-.09c0-.07-.06-.16-.18-.25l-.29-.1c-.74 1-1.48 2-2.21 2.93q-2.74 3.56-4.43 5.44c-1.72 1.92-2.89 2.88-3.51 2.88a.61.61 0 0 1-.67-.57q0-1 3.56-5.81t3.5-6.12c0-1.09-.63-1.64-1.88-1.64q-1.14 0-3.55 1.83-.77.58-2.12 1.78c.15-.45.29-.87.38-1.25a5.66 5.66 0 0 0 .1-1 1.69 1.69 0 0 0-.38-1.22 2 2 0 0 0-1.29-.33q-1.3 0-4.19 2.25c-.61.49-1.46 1.23-2.54 2.22l2.26-4.15-3.14.1-8.72 14.21h3.37l2.25-3.28c1.73-2.49 3.25-4.51 4.57-6.06q2.84-3.26 4.08-3.26l.34.91-7.1 11.69h3.32c.65-1 1.28-2 1.92-3a61.45 61.45 0 0 1 4.43-5.88q2.9-3.31 5-4c-1.38 2.08-2.73 4.15-4 6.16s-2 3.59-2 4.62a2.59 2.59 0 0 0 .62 1.82 2.08 2.08 0 0 0 1.59.68q2.13 0 6.65-5.25 4.19-4.8 4.37-6.25zm15.12-.82a.53.53 0 0 1 0 .24q0 1.73-6.11 8.28-3.42 3.64-5 3.65c-.91 0-1.52-.61-1.84-1.82a6.52 6.52 0 0 1-.18-1.49v-.29q-1 1.3-1.59 1.92-1.84 1.92-3.08 1.92a2.35 2.35 0 0 1-1.88-1 3.77 3.77 0 0 1-.76-2.41q0-3.18 3.75-7.42t6.93-4.18a1.88 1.88 0 0 1 1.96 1.31l.62-1.12h3.51l-7.27 12.23a1.5 1.5 0 0 0-.23.76v.15c0 .22.14.33.43.33.83 0 2.09-1 3.79-3q.11-.1 4.29-5.53 2-2.6 2.55-2.6a.14.14 0 0 1 .1 0zm-8.8-.53q0 1.49-3.75 6.63t-5.06 5.2q-.43 0-.43-.53 0-1.83 3.46-7t5-5.2q.82 0 .82.91zm10.42-10.59a19.34 19.34 0 0 1-5.49 4.25c-.74.38-1.73.83-3 1.35l-.14-.34a22.41 22.41 0 0 0 2.21-1.45 10.76 10.76 0 0 0 3.23-3.81zm9 11.45l-.3-.25a22.34 22.34 0 0 0-2.59 3 55.32 55.32 0 0 1-4.9 5.64q-3.09 3-5.06 3a.69.69 0 0 1-.77-.78q0-2.12 3.79-7.65t5.16-5.49a.94.94 0 0 1 1 .91.43.43 0 0 1 0 .19 1 1 0 0 1-.43.78.93.93 0 0 0-.87-.53h-.1a1.53 1.53 0 0 0-1.11.71 3.23 3.23 0 0 0-.73 1.49 1.48 1.48 0 0 0 .34 1 1 1 0 0 0 .78.34h.09a3.21 3.21 0 0 0 1.68-1.25 5.09 5.09 0 0 0 1.06-2.45 2.5 2.5 0 0 0-.44-1.49 1.54 1.54 0 0 0-1.24-.58q-3.32 0-7.36 4.38c-2.73 2.93-4.09 5.52-4.09 7.79a3.39 3.39 0 0 0 .87 2.5 2.76 2.76 0 0 0 2.17.91q1.92 0 5.3-2.89a41 41 0 0 0 5.28-5.58c1.6-2 2.41-3.24 2.41-3.75zm8.08-9.62a2.17 2.17 0 0 1-.71 1.5 2.13 2.13 0 0 1-1.44.71 1.46 1.46 0 0 1-1.15-.58 1.71 1.71 0 0 1-.53-1.26 2.28 2.28 0 0 1 .67-1.58 2 2 0 0 1 1.49-.72 1.59 1.59 0 0 1 1.19.58 2.17 2.17 0 0 1 .48 1.35zm-.86 9.86q0 1.06-4.24 6.26-4.61 5.68-6.93 5.68a2 2 0 0 1-1.53-.71 3.08 3.08 0 0 1-.63-2.13 5.64 5.64 0 0 1 .91-3l5.68-9.06h3.22l-6.88 11.08a12.9 12.9 0 0 0-.63 1.19 3 3 0 0 0-.29 1.15q0 .53.43.53 1.59 0 6.06-5.58l4.51-5.68.3.23zm14.92-.57a.14.14 0 0 0-.1 0q-.57 0-2.55 2.6-4.17 5.44-4.29 5.53c-1.7 2-3 3-3.79 3-.29 0-.43-.1-.43-.33v-.15a1.5 1.5 0 0 1 .23-.76l7.27-12.23h-3.51l-.62 1.12a1.88 1.88 0 0 0-1.93-1.26q-3.19 0-6.93 4.18t-3.75 7.42a3.77 3.77 0 0 0 .76 2.41 2.35 2.35 0 0 0 1.88 1q1.24 0 3.08-1.92.58-.63 1.59-1.92v.29a6.52 6.52 0 0 0 .18 1.49c.32 1.21.93 1.82 1.84 1.82q1.59 0 5-3.65 6.11-6.54 6.11-8.28a.53.53 0 0 0 0-.24zm-8.8-.53q0-.91-.82-.91-1.54 0-5 5.2t-3.46 7q0 .53.43.53 1.31 0 5.06-5.2t3.75-6.63zm91.11-21.9a.18.18 0 0 1-.18.1 2.07 2.07 0 0 1-.34 0 5.12 5.12 0 0 0-1.54-.16q-3 0-10.54 7.66-5.23 5.34-13.7 15.59-9.73 11.74-10.3 12.41l-.09-.67 1.25-3.36c.38-2 .79-3.93 1.2-5.92q1.4-6.78 2.64-11.22a38.5 38.5 0 0 1 3.56-9.29q-2.3 1.78-8.75 10.15a113.63 113.63 0 0 1-11.2 13q-6.93 6.45-12.8 6.45-4.91 0-7.55-2.55a7.34 7.34 0 0 1-2.27-5.48q0-4.38 4.47-8a13.07 13.07 0 0 1 8.23-3.37 6.9 6.9 0 0 1 4.47 1.4 4.33 4.33 0 0 1 1.73 3.51 5.9 5.9 0 0 1-5.92 6.2 3.6 3.6 0 0 1-2.5-1 2.5 2.5 0 0 1-1-1.88v-.18a3.76 3.76 0 0 1 .77-2.5 2.15 2.15 0 0 1 1.73-.91 2.57 2.57 0 0 1 .59.09l-.68.44a6.12 6.12 0 0 0-.81 1 3.37 3.37 0 0 0-.54 1.07 3.86 3.86 0 0 0-.1.86 2 2 0 0 0 .77 1.64 2.68 2.68 0 0 0 1.93.68 5 5 0 0 0 3.46-1.49 4.93 4.93 0 0 0 1.54-3.76 3.73 3.73 0 0 0-1.44-3 5.45 5.45 0 0 0-3.61-1.2q-3.42 0-7.32 3.7-4.09 3.9-4.09 7.85a5.88 5.88 0 0 0 1.77 4.47 7.29 7.29 0 0 0 5.25 1.68q5.73 0 14.58-8.89 2.79-2.8 14.48-16.62 7.6-9 10.06-9a1.35 1.35 0 0 1 .48.06q-1.74 1.11-3.61 7-.53 1.64-3.23 11.83a69.35 69.35 0 0 1-3.51 10.79q1.31-1.44 8.48-10.74a151.13 151.13 0 0 1 11.06-13.18q6.36-6.45 10-6.45a5.29 5.29 0 0 1 2.55.43c.39.22.58.43.58.62a.2.2 0 0 1 0 .14zm-7.63 22.43a.14.14 0 0 0-.1 0q-.57 0-2.55 2.6-4.17 5.44-4.29 5.53c-1.7 2-3 3-3.79 3-.29 0-.43-.1-.43-.33v-.15a1.5 1.5 0 0 1 .23-.76l7.27-12.23h-3.51l-.62 1.12a1.88 1.88 0 0 0-1.93-1.26q-3.19 0-6.93 4.18t-3.75 7.42a3.77 3.77 0 0 0 .76 2.41 2.35 2.35 0 0 0 1.88 1q1.24 0 3.08-1.92.58-.63 1.59-1.92v.29a6.52 6.52 0 0 0 .18 1.49c.32 1.21.93 1.82 1.84 1.82q1.59 0 5-3.65 6.11-6.54 6.11-8.28a.53.53 0 0 0 0-.24zm-8.8-.53q0-.91-.82-.91-1.54 0-5 5.2t-3.46 7q0 .53.43.53 1.31 0 5.06-5.2t3.75-6.63zm20.56-5.48l-5.2-.14 3.61-5.79-3.27-.18-3.86 6.25-4.52-.1-.48.68 4.43.1-5.71 9.05a22 22 0 0 0-2 3.95 7.69 7.69 0 0 0-.63 2.73 4.09 4.09 0 0 0 0 .73 1.51 1.51 0 0 0 1.68 1.34q2.56 0 7.37-5.58 4.33-5 4.33-6v-.1l-.29-.23q-3.36 4.09-6.74 8.12c-1.83 2-3.29 2.94-4.38 2.94a1.79 1.79 0 0 1-.43 0 9.18 9.18 0 0 1 .48-1.4 7.14 7.14 0 0 1 .62-1.35l9.05-14.48 5.49.1.39-.57zm11.8 6.58l-.14-.28c-2.05 2.61-4.07 5.15-6.06 7.65s-3.64 3.76-4.86 3.76a4.56 4.56 0 0 1 .63-2.32c.25-.45.7-1.19 1.34-2.22l5.87-9.53h-3.7a66.12 66.12 0 0 1-6.66 10.55 12.63 12.63 0 0 1-4.27 3.65 1.15 1.15 0 0 1-.3-.68v-.09c0-.62.69-2 2.07-4.23q5.1-8.24 5.44-9.2h-3.22c-1.35 2.21-2.36 3.94-3 5.16-2 3.66-3 6.08-3 7.27a2.8 2.8 0 0 0 .58 1.79 1.79 1.79 0 0 0 1.44.71q1.11 0 3.36-2.41c.49-.51 1.18-1.32 2.08-2.4a2.06 2.06 0 0 0-.25 1.05v1.4a3.59 3.59 0 0 0 .53 1.58 1.28 1.28 0 0 0 1.11.67q1.44 0 4.86-3.66 6.26-6.74 6.25-8.24zm11.83 0q0 .67-2.27 3.37-1.77 2.07-2.73 3.17a35.08 35.08 0 0 1-4.47 4.47 4.59 4.59 0 0 1-2.54 1.11 2.1 2.1 0 0 1-1.64-.71 2.77 2.77 0 0 1-.63-1.88 8.71 8.71 0 0 1 1.59-4.71q1.78-2.26 3.57-4.57l-.2-.53a5.29 5.29 0 0 1-2.65.82c-.58 0-.87-.31-.87-.92a7.42 7.42 0 0 1 1.15-3c.77-1.39 1.48-2.08 2.13-2.08s.76.36.76 1.07a6.89 6.89 0 0 1-.87 2.16c-.09.19-.23.46-.42.81a11.74 11.74 0 0 1 1.77-.81 7.09 7.09 0 0 1 2-.53c.73 0 1.1.42 1.1 1.25s-1.19 2.93-3.55 6.21-3.61 5.23-3.61 5.77a.79.79 0 0 0 .34.58 1.15 1.15 0 0 0 .77.29q.72 0 2.41-1.59a39.65 39.65 0 0 0 3.51-3.85q.72-.91 3-4.23c.93-1.35 1.56-2 1.88-2.08h.1c.22 0 .34.13.34.39zm14-.53a.14.14 0 0 0-.1 0q-.57 0-2.55 2.6-4.17 5.44-4.29 5.53c-1.7 2-3 3-3.79 3-.29 0-.43-.1-.43-.33v-.15a1.5 1.5 0 0 1 .23-.76l7.27-12.23h-3.51l-.62 1.12a1.88 1.88 0 0 0-1.93-1.26q-3.19 0-6.93 4.18t-3.75 7.42a3.77 3.77 0 0 0 .76 2.41 2.35 2.35 0 0 0 1.88 1q1.24 0 3.08-1.92.58-.63 1.59-1.92v.29a6.52 6.52 0 0 0 .18 1.49c.32 1.21.93 1.82 1.84 1.82q1.59 0 5-3.65 6.11-6.54 6.11-8.28a.53.53 0 0 0 0-.24zm-8.8-.53q0-.91-.82-.91-1.54 0-5 5.2t-3.46 7q0 .53.43.53 1.31 0 5.06-5.2t3.75-6.63zm22.59-15.77l-16.16 26.26a1.8 1.8 0 0 0-.14.58 2.68 2.68 0 0 1-.09.53v.02a.52.52 0 0 0 .09.25l.1.1q1.31-.1 4.34-3.46 3.36-3.91 6.73-7.79a1.21 1.21 0 0 1 .09.49q0 1.77-4.51 6.38-5.24 5.3-7 5.3a1.21 1.21 0 0 1-1.11-.67 3.15 3.15 0 0 1-.43-1.73 11.19 11.19 0 0 1 2-5.77L268 110.57zm4.38 7a2.17 2.17 0 0 1-.71 1.5 2.13 2.13 0 0 1-1.44.71 1.46 1.46 0 0 1-1.15-.58 1.71 1.71 0 0 1-.53-1.26 2.28 2.28 0 0 1 .67-1.58 2 2 0 0 1 1.49-.72 1.59 1.59 0 0 1 1.19.58 2.17 2.17 0 0 1 .48 1.35zm-.86 9.86l-.3-.23-4.51 5.68q-4.47 5.58-6.06 5.58-.43 0-.43-.53a3 3 0 0 1 .29-1.15 12.87 12.87 0 0 1 .63-1.19l6.88-11.08h-3.22l-5.68 9.06a5.64 5.64 0 0 0-.91 3 3.08 3.08 0 0 0 .63 2.13 2 2 0 0 0 1.53.71q2.32 0 6.93-5.68 4.16-5.27 4.15-6.33z" class="cls-2"/><path d="M286.23 128.17a5.83 5.83 0 0 1-1.29 1.73 24 24 0 0 1-7.08 5.44 10.15 10.15 0 0 1-2.6 3 5.24 5.24 0 0 1-3 .91 3.31 3.31 0 0 1-2.16-.63 2.1 2.1 0 0 1-.78-1.73 4.9 4.9 0 0 1 1-2.65c.55-.83 1-1.26 1.4-1.26a.42.42 0 0 1 .2.06 2.58 2.58 0 0 0 .91 1.72 2.07 2.07 0 0 0 1.31.58c.61 0 1.12-.71 1.53-2.12a11.3 11.3 0 0 0 .48-3.08 6.68 6.68 0 0 0-.38-1.74 10.39 10.39 0 0 0-.43-1.19l-2.07 2.36a.42.42 0 0 1-.43-.29q0-.63 2.45-3.86t3.56-3.31a.88.88 0 0 1 .73.39.77.77 0 0 1 .18.48.52.52 0 0 1 0 .23c-.51.67-.87 1.19-1.1 1.54a6 6 0 0 0-1.11 2.07c0 .06.18.79.53 2.17a13.82 13.82 0 0 1 .53 3 8.29 8.29 0 0 1-.2 1.91 7.55 7.55 0 0 0 3.62-2.21c1.31-1.28 2.62-2.6 3.94-3.95a.3.3 0 0 1 .34.34zm-12.46 8.13a9.39 9.39 0 0 1-1-.58 4 4 0 0 1-1.39-1.4 2.83 2.83 0 0 0-1 1.3 4.15 4.15 0 0 0-.34 1.68 1.12 1.12 0 0 0 1.2 1.15 2.31 2.31 0 0 0 1.44-.72 3.5 3.5 0 0 0 1.09-1.43z" class="cls-2"/></svg>