<svg xmlns="http://www.w3.org/2000/svg" id="Camada_1" data-name="Camada 1" viewBox="0 0 110.39 51.33"><defs><style>.cls-1,.cls-3{fill:#962b30;fill-rule:evenodd}.cls-3{fill:#fff}</style></defs><path d="M9.07 37.87a2.79 2.79 0 0 1 1.61.43 1.53 1.53 0 0 1 .67 1.25 2 2 0 0 0-.83-.43A4.14 4.14 0 0 0 9.46 39a5.61 5.61 0 0 0-1.88.3 4.84 4.84 0 0 0-1.5.84 5.17 5.17 0 0 0-1.19 1.48 6 6 0 0 0-.64 1.84 1.06 1.06 0 0 0 0 .2v.18a1.88 1.88 0 0 0 .58 1.43 5.16 5.16 0 0 0 1.44.94 9.24 9.24 0 0 0 1.13.45l1.14.34 1.06.34a3.7 3.7 0 0 1 .81.39q0 .13-.32.4a5.73 5.73 0 0 1-.86.6 11.9 11.9 0 0 1-1.36.68 10.7 10.7 0 0 1-1.82.59 14.61 14.61 0 0 1-1.53.28 13.44 13.44 0 0 1-1.74.11 1.75 1.75 0 0 1-1.09-.29 1.52 1.52 0 0 1-.53-.81 1.11 1.11 0 0 0 .47.18 4 4 0 0 0 .69.05 15.6 15.6 0 0 0 1.59-.09 16 16 0 0 0 1.66-.26 9.87 9.87 0 0 0 2.82-.93 4.25 4.25 0 0 0-1.16-.68 12.54 12.54 0 0 1-1.46-.72 6.63 6.63 0 0 1-.77-.49 3.26 3.26 0 0 1-1-1.57 3.78 3.78 0 0 1-.16-1.15 5.22 5.22 0 0 1 .46-2.07 7.15 7.15 0 0 1 1.28-2 5.83 5.83 0 0 1 1.58-1.23 4.05 4.05 0 0 1 1.93-.47zM15.44 42a7.25 7.25 0 0 0-1.61.94 8.9 8.9 0 0 0-1.49 1.41 7.46 7.46 0 0 0-1 1.55 3.79 3.79 0 0 0-.34 1.62 2.39 2.39 0 0 0 .06.54 2.2 2.2 0 0 0 .19.53 1.14 1.14 0 0 0 .33.4.79.79 0 0 0 .48.15 1.53 1.53 0 0 0 .92-.32 4.72 4.72 0 0 0 .79-.72 7.43 7.43 0 0 0 .56-.72q.22-.32.26-.32a3 3 0 0 0-.09.73 1.79 1.79 0 0 0 .34 1.12 1.48 1.48 0 0 0 1.25.45 1.64 1.64 0 0 0 .36-.05.38.38 0 0 0 .29-.2 1.18 1.18 0 0 1-1.07-.56 2.21 2.21 0 0 1-.36-1.21 3.2 3.2 0 0 1 .16-.91q.16-.53.38-1.11t.57-1.23A9.41 9.41 0 0 1 17 43a1.17 1.17 0 0 0-.56-.67 3 3 0 0 0-1-.39zm-3.68 6.59q-.28 0-.28-.21a3.67 3.67 0 0 1 .52-1.76 8.72 8.72 0 0 1 1.18-1.68 9.07 9.07 0 0 1 1.34-1.25 8 8 0 0 1 1.33-.84l-.11.51q-.06.29-.16.59t-.2.6q-.11.3-.21.54a6.43 6.43 0 0 1-.59 1 11.65 11.65 0 0 1-.91 1.15 8.11 8.11 0 0 1-1 .95 1.5 1.5 0 0 1-.85.4zm5.23.19a1.52 1.52 0 0 0 .3.08 3.66 3.66 0 0 0 .56 0 1.8 1.8 0 0 0 .7-.17 4.4 4.4 0 0 0 .83-.48 9.45 9.45 0 0 0 .87-.72 7.7 7.7 0 0 0 .83-.9 7.62 7.62 0 0 0 1-1.6 4 4 0 0 0 .39-1.69 1 1 0 0 0-.09-.45.91.91 0 0 0-.19-.27.81.81 0 0 0-.2-.14h-.12a2.88 2.88 0 0 0-1.29.37 3.39 3.39 0 0 0-1 .84 4.94 4.94 0 0 0-.69 1.74q-.34 1.33-.86 3.23a1.07 1.07 0 0 1-.75-.86q.11-.34.31-1.09t.45-1.77q.25-1 .51-2.22t.45-2.47q.23-1.24.39-2.44t.2-2.24a1.34 1.34 0 0 1 .29.76 9.57 9.57 0 0 1 .12 1.28q0 .82-.08 1.75t-.17 1.74q-.1.81-.17 1.37t-.1.62a3.18 3.18 0 0 1 .62-.59 3.4 3.4 0 0 1 1.2-.54 1.92 1.92 0 0 1 .38-.05 1.57 1.57 0 0 1 1.32.53 2.2 2.2 0 0 1 .4 1.38 5 5 0 0 1-.4 1.67 6.34 6.34 0 0 1-1.15 1.92 6.25 6.25 0 0 1-1.58 1.31 4.15 4.15 0 0 1-2.14.54 2.55 2.55 0 0 1-.89-.1.5.5 0 0 1-.27-.36zm9.13.41a2.23 2.23 0 0 1-1.71-.64 2.35 2.35 0 0 1-.59-1.67 4.83 4.83 0 0 1 .46-1.88 7.2 7.2 0 0 1 1.28-2 3.69 3.69 0 0 1 .89-.8 1.9 1.9 0 0 1 1-.3 2.78 2.78 0 0 1 2 .84 2.72 2.72 0 0 1 .58.9 3 3 0 0 1 .2 1.1 3.75 3.75 0 0 1-.23 1.55 5.22 5.22 0 0 1-.89 1.38 5.15 5.15 0 0 1-1.38 1.09 3.27 3.27 0 0 1-1.57.42zm-.47-.77a3 3 0 0 0 1.52-.42 4.48 4.48 0 0 0 1.23-1 4.93 4.93 0 0 0 .72-1.21 3.29 3.29 0 0 0 .27-1.27 2.34 2.34 0 0 0-.31-1.22 1.16 1.16 0 0 0-1.08-.56 1.54 1.54 0 0 0-.84.28 4.87 4.87 0 0 0-.86.73 6.63 6.63 0 0 0-.68.85 8.43 8.43 0 0 0-.55.94 6.38 6.38 0 0 0-.38.92 2.69 2.69 0 0 0-.14.81 1.36 1.36 0 0 0 .24.81 1 1 0 0 0 .86.33zm10.14-6.72a3.77 3.77 0 0 1 .65.06 4.69 4.69 0 0 0-1.63.7 5.63 5.63 0 0 0-1.24 1.17 8.16 8.16 0 0 0-.72 1.13A10.09 10.09 0 0 0 32.3 46a10.58 10.58 0 0 0-.42 1.41q-.16.72-.27 1.43v.24a1.93 1.93 0 0 0 0 .19.37.37 0 0 0 .06.26.23.23 0 0 1-.17.06.5.5 0 0 1-.51-.44 4 4 0 0 1-.12-1 10.15 10.15 0 0 1 .09-1.28q.09-.68.22-1.39t.33-1.63l.36-1.56a.73.73 0 0 1 .27.47 3.43 3.43 0 0 1 .08.73 3.34 3.34 0 0 1-.06.73 5.74 5.74 0 0 1 1-1.31 4.4 4.4 0 0 1 1.18-.91 3.36 3.36 0 0 1 1.44-.32zm1.79.3a2.25 2.25 0 0 0-.88.45 7.19 7.19 0 0 0-.84.8 7.75 7.75 0 0 0-1.29 1.88 4.27 4.27 0 0 0-.45 1.82 3.16 3.16 0 0 0 .11.83 1.87 1.87 0 0 0 .37.71 1.81 1.81 0 0 0 .67.5 2.54 2.54 0 0 0 1 .18 3.71 3.71 0 0 0 1.4-.33 5.82 5.82 0 0 0 1.53-1 4.71 4.71 0 0 0 1-1.15 4.66 4.66 0 0 0 .57-1.52 4.37 4.37 0 0 1-.77 1.2 8.47 8.47 0 0 1-1.07 1 7.22 7.22 0 0 1-1.46.88 3.18 3.18 0 0 1-1.23.32 1.61 1.61 0 0 1-.88-.25.91.91 0 0 1-.39-.83 2.81 2.81 0 0 1 .17-1 2.05 2.05 0 0 1 .26-.56 1.33 1.33 0 0 0 .39.25 1.38 1.38 0 0 0 .58.12 2.58 2.58 0 0 0 1.1-.3 4.43 4.43 0 0 0 1.07-.72 5.55 5.55 0 0 0 .84-1 3 3 0 0 0 .46-1 1.28 1.28 0 0 0-.29-.65 2 2 0 0 0-.54-.43 2.38 2.38 0 0 0-.69-.25 3.79 3.79 0 0 0-.74-.08zm-2 3.53a.36.36 0 0 0 .24.14 1.21 1.21 0 0 0 .3.05 2.23 2.23 0 0 0 .66-.17 5.6 5.6 0 0 0 1-.47 3.72 3.72 0 0 0 .87-.73 1.41 1.41 0 0 0 .38-.95.91.91 0 0 0-.67-.75 1.52 1.52 0 0 0-.81.41 7.92 7.92 0 0 0-.81.82q-.39.47-.69.93a5.78 5.78 0 0 0-.43.73zm9.06-2.78a3.27 3.27 0 0 0-1 .17 3.87 3.87 0 0 0-1 .52 3.93 3.93 0 0 0-1.07 1 2 2 0 0 0-.44 1.23 1.25 1.25 0 0 0 .28.71 7.88 7.88 0 0 0 .67.8q.47.5 1 .95t.82.78a5.24 5.24 0 0 1-1.09.65 9.15 9.15 0 0 1-1.35.5 6.39 6.39 0 0 1-.94.21 5.23 5.23 0 0 1-.74.06.82.82 0 0 1-.59-.22.64.64 0 0 1-.23-.47.59.59 0 0 1 .47-.6.44.44 0 0 0-.11.32q0 .17.3.17a2.88 2.88 0 0 0 .61-.09q.38-.09.79-.22t.89-.33l.81-.36A6.89 6.89 0 0 1 42 48a7 7 0 0 1-.7-.69 4.59 4.59 0 0 1-.62-1 2.49 2.49 0 0 1-.26-1.11 2 2 0 0 1 .12-.65 3.71 3.71 0 0 1 .32-.69 5.12 5.12 0 0 1 .47-.67 4.12 4.12 0 0 1 .59-.58 3.53 3.53 0 0 1 .77-.45 2.14 2.14 0 0 1 .84-.17 1.77 1.77 0 0 1 1 .23.61.61 0 0 1 .29.44v.06h-.3zm11.52-7.26q-.13.52-.36 1.35t-.52 1.8q-.29 1-.59 2t-.56 2q-.26 1-.45 1.78a13.09 13.09 0 0 0-.26 1.3q-.09.45-.15 1a8.79 8.79 0 0 0-.06 1 2.53 2.53 0 0 0 .11.81q.11.31.37.31a.88.88 0 0 0 .48-.12 1.89 1.89 0 0 0 .31-.25.79.79 0 0 1-.34.51 1.15 1.15 0 0 1-.71.23.83.83 0 0 1-.79-.46 2.8 2.8 0 0 1-.25-1.3 7.41 7.41 0 0 1 .06-.9q-.19.34-.47.76a6.61 6.61 0 0 1-.62.8 4.44 4.44 0 0 1-.71.64 1.6 1.6 0 0 1-.73.3 1.89 1.89 0 0 1-1.08-.5 1.27 1.27 0 0 1-.34-.9 4.91 4.91 0 0 1 .47-2 7.58 7.58 0 0 1 1.16-1.84 3.91 3.91 0 0 1 .34-.41q.26-.28.58-.58t.66-.56a1.76 1.76 0 0 1 .57-.32 2.91 2.91 0 0 1 .56.06l.5.11.24-.82.32-1.12.37-1.26.37-1.25q.17-.59.32-1.07l.24-.73a4.09 4.09 0 0 1 .46-.22 4.76 4.76 0 0 1 .51-.17zm-6.49 12.93a.9.9 0 0 0 .57-.28 5.92 5.92 0 0 0 .64-.68 8.85 8.85 0 0 0 .6-.84q.28-.44.45-.76t.4-.76q.23-.46.42-.94t.33-.89a2.22 2.22 0 0 0 .14-.64.1.1 0 0 0-.11-.11 1.33 1.33 0 0 0-.61.16 3.21 3.21 0 0 0-.61.42 5.07 5.07 0 0 0-.58.59 7.44 7.44 0 0 0-.5.66q-.28.37-.55.8a9 9 0 0 0-.5.9 6.4 6.4 0 0 0-.37.95 3.12 3.12 0 0 0-.14.88.81.81 0 0 0 .09.37.33.33 0 0 0 .32.17zm9.5-6.42a7.25 7.25 0 0 0-1.61.94 8.89 8.89 0 0 0-1.49 1.41 7.46 7.46 0 0 0-1 1.55 3.79 3.79 0 0 0-.39 1.64 2.4 2.4 0 0 0 .06.54 2.2 2.2 0 0 0 .19.53 1.14 1.14 0 0 0 .33.4.79.79 0 0 0 .48.15 1.53 1.53 0 0 0 .92-.32 4.72 4.72 0 0 0 .79-.72 7.47 7.47 0 0 0 .56-.72q.22-.32.26-.32a3 3 0 0 0-.09.73 1.79 1.79 0 0 0 .34 1.12 1.48 1.48 0 0 0 1.25.45 1.63 1.63 0 0 0 .36-.05.38.38 0 0 0 .29-.2 1.18 1.18 0 0 1-1.07-.56 2.21 2.21 0 0 1-.35-1.24 3.2 3.2 0 0 1 .16-.91q.16-.53.38-1.11t.57-1.23a9.42 9.42 0 0 1 .57-1 1.17 1.17 0 0 0-.56-.67 3 3 0 0 0-1-.39zm-3.68 6.59a1.5 1.5 0 0 0 .85-.4 8.12 8.12 0 0 0 1-.95 11.65 11.65 0 0 0 .91-1.15 6.41 6.41 0 0 0 .59-1q.11-.24.22-.54t.2-.6q.1-.3.16-.59l.11-.51a8 8 0 0 0-1.33.84 9.07 9.07 0 0 0-1.34 1.25 8.71 8.71 0 0 0-1.18 1.68 3.67 3.67 0 0 0-.47 1.74q0 .22.28.21zm14.08-10.35a3.14 3.14 0 0 0 .31-.62 4 4 0 0 0 .16-.47.42.42 0 0 1 .38.15.66.66 0 0 1 .1.37v.22a.8.8 0 0 1 0 .19v.09L73 38h1.75q.52 0 1 .05a7.2 7.2 0 0 1 .92.13q.4.09.4.24t-.34.19l.05-.05a.1.1 0 0 0 0-.08h-.53a6.64 6.64 0 0 1-.74 0H75l-1 .1-1 .17-1.24.15-1.08.1-.66.11q-.34.82-.62 1.58l-.54 1.5 4.62-.61q1.58-.2 1.91-.23-.9.34-1.72.61t-1.59.46q-.71.19-1.58.36a19.08 19.08 0 0 1-2 .25q-.41 1.36-.73 2.78a13.18 13.18 0 0 0-.32 2.93q0 .47.13.47a3.93 3.93 0 0 0 .54-.71q.28-.45.55-1t.5-1q.23-.53.36-.94a8.88 8.88 0 0 1-.24 1.27 8.38 8.38 0 0 1-.43 1.26 4.78 4.78 0 0 1-.59 1 1.73 1.73 0 0 1-.72.58 2.3 2.3 0 0 1-.36-.15.83.83 0 0 1-.28-.25 1.2 1.2 0 0 1-.18-.44 3.49 3.49 0 0 1-.06-.75q0-.32.05-.93t.17-1.3q.12-.7.27-1.41a10.63 10.63 0 0 1 .34-1.27l-1.5.13h-.87a.91.91 0 0 1-.28-.67 1 1 0 0 1 .15-.56 1.77 1.77 0 0 0 .73.13 2.3 2.3 0 0 0 .56-.06 3.68 3.68 0 0 0 .47-.15 2.87 2.87 0 0 1-.75.58l1.79-.28q.34-.93.66-1.68t.64-1.38l-.67-.1a6.69 6.69 0 0 1-.87-.22 2.62 2.62 0 0 1-.76-.38.7.7 0 0 1-.32-.58.37.37 0 0 1 .13-.3l.33.24a1.48 1.48 0 0 0 .36.17 3 3 0 0 0 .45.11 3.84 3.84 0 0 0 .62 0q.52 0 1.21-.06zM77 42a7.25 7.25 0 0 0-1.61.94 8.9 8.9 0 0 0-1.49 1.41 7.45 7.45 0 0 0-1 1.55 3.79 3.79 0 0 0-.39 1.64 2.4 2.4 0 0 0 .06.54 2.2 2.2 0 0 0 .19.53 1.14 1.14 0 0 0 .33.4.79.79 0 0 0 .48.15 1.53 1.53 0 0 0 .92-.32 4.71 4.71 0 0 0 .79-.72 7.45 7.45 0 0 0 .56-.72q.22-.32.26-.32a3 3 0 0 0-.09.73 1.79 1.79 0 0 0 .34 1.12 1.48 1.48 0 0 0 1.25.45 1.64 1.64 0 0 0 .4-.08.38.38 0 0 0 .29-.2 1.18 1.18 0 0 1-1.07-.56 2.21 2.21 0 0 1-.36-1.21 3.19 3.19 0 0 1 .16-.91q.16-.53.38-1.11t.6-1.23a9.43 9.43 0 0 1 .57-1 1.17 1.17 0 0 0-.56-.67A3 3 0 0 0 77 42zm-3.68 6.59a1.5 1.5 0 0 0 .85-.4 8.1 8.1 0 0 0 1-.95 11.69 11.69 0 0 0 .92-1.15 6.44 6.44 0 0 0 .59-1q.11-.24.21-.54t.2-.6q.1-.3.16-.59l.11-.51a8 8 0 0 0-1.33.84 9.06 9.06 0 0 0-1.33 1.25 8.7 8.7 0 0 0-1.18 1.68 3.67 3.67 0 0 0-.52 1.74q0 .22.28.21zm8.25-6.63a3.29 3.29 0 0 1 1 .14 3.57 3.57 0 0 1 .82.36 2 2 0 0 1 .56.48.88.88 0 0 1 .2.53.81.81 0 0 1-.14.42 2.47 2.47 0 0 1-.36.44 4.7 4.7 0 0 1-.48.42q-.27.2-.51.36-.47.3-1.09.65t-1.17.73a4.5 4.5 0 0 0-.79.66 2.32 2.32 0 0 0-.48.74q0 .11.37.16a7.17 7.17 0 0 0 1 .05h1.35q.72 0 1.39-.1l1.17-.13a4.27 4.27 0 0 0 .7-.13 2.05 2.05 0 0 1-.81.55 8.08 8.08 0 0 1-1.26.42 13.15 13.15 0 0 1-1.39.27 9 9 0 0 1-1.22.1 6.39 6.39 0 0 1-.81-.05 3.06 3.06 0 0 1-.76-.19 1.45 1.45 0 0 1-.56-.39.93.93 0 0 1-.22-.64 1.72 1.72 0 0 1 .44-1.14 5.51 5.51 0 0 1 1.11-1 9.75 9.75 0 0 1 1.37-.83l1.35-.66q.45-.24.76-.44a.92.92 0 0 0 .38-.38.46.46 0 0 0-.22-.2 2.07 2.07 0 0 0-.43-.17 4.05 4.05 0 0 0-.56-.12 4.11 4.11 0 0 0-.58 0 7.11 7.11 0 0 0-2 .28 1.25 1.25 0 0 1-.19-.69.87.87 0 0 1 0-.24 5.19 5.19 0 0 1 1-.17 10.52 10.52 0 0 1 1.05-.11z" class="cls-1"/><path d="M88.45 42a3.79 3.79 0 0 1 .74.08 2.38 2.38 0 0 1 .69.25 2 2 0 0 1 .54.43 1.27 1.27 0 0 1 .29.65 3 3 0 0 1-.46 1 5.55 5.55 0 0 1-.84 1 4.43 4.43 0 0 1-1.07.72 2.58 2.58 0 0 1-1.12.28 1.38 1.38 0 0 1-.58-.12 1.34 1.34 0 0 1-.39-.25 2.05 2.05 0 0 0-.26.56 2.82 2.82 0 0 0-.17 1 .91.91 0 0 0 .39.83 1.61 1.61 0 0 0 .88.25 3.18 3.18 0 0 0 1.23-.32 7.22 7.22 0 0 0 1.46-.88 8.47 8.47 0 0 0 1.07-1 4.37 4.37 0 0 0 .79-1.17 4.56 4.56 0 0 1-1.55 2.67 5.82 5.82 0 0 1-1.53 1 3.71 3.71 0 0 1-1.4.33 2.54 2.54 0 0 1-1-.18 1.81 1.81 0 0 1-.67-.5 1.87 1.87 0 0 1-.37-.71 3.16 3.16 0 0 1-.11-.83 4.27 4.27 0 0 1 .45-1.82 7.75 7.75 0 0 1 1.29-1.88 7.2 7.2 0 0 1 .84-.8 2.25 2.25 0 0 1 .88-.45zm-2 3.53a.36.36 0 0 0 .24.14 1.21 1.21 0 0 0 .3.05 2.24 2.24 0 0 0 .66-.17 5.59 5.59 0 0 0 1-.47 3.71 3.71 0 0 0 .87-.73 1.41 1.41 0 0 0 .38-.95.91.91 0 0 0-.67-.75 1.52 1.52 0 0 0-.81.41 7.91 7.91 0 0 0-.81.82q-.39.47-.69.93a5.78 5.78 0 0 0-.43.73zm5.88 4q.13-.69.26-1.41t.3-1.45a8.83 8.83 0 0 1 .28-1.05q.17-.52.39-1 .06-.19.23-.56a4.36 4.36 0 0 1 .4-.71 3.31 3.31 0 0 1 .53-.6.89.89 0 0 1 .59-.26c.06 0 .1.08.13.24a3.3 3.3 0 0 1 0 .58v.7q0 .38-.06.7 0 .32-.05.58t0 .34q-.13.73-.31 1.45t-.4 1.41a1.07 1.07 0 0 0 .33.39 1.79 1.79 0 0 0 .48.28 5.82 5.82 0 0 0 .57-1.58 14.22 14.22 0 0 0 .37-1.77q0-.43.08-.85t0-.85a3.92 3.92 0 0 0-.24-1.45.91.91 0 0 0-.93-.59 2.18 2.18 0 0 0-.88.16 2.07 2.07 0 0 0-.64.43 3 3 0 0 0-.48.65q-.22.38-.41.81.06-.28.11-.56a3.52 3.52 0 0 0 0-.54 2.09 2.09 0 0 0-.3-1.13 1.47 1.47 0 0 0-1.14-.59 1.63 1.63 0 0 1 .52.74 3.09 3.09 0 0 1 .15 1 10.76 10.76 0 0 1-.13 1.56q-.13.87-.3 1.78t-.32 1.49q-.17.71-.28 1.21a1.38 1.38 0 0 0 .46.29 2.6 2.6 0 0 0 .55.16zm12.36-14q-.13.52-.36 1.35t-.52 1.8q-.29 1-.59 2t-.56 2q-.26 1-.45 1.78a13.08 13.08 0 0 0-.26 1.3q-.09.45-.15 1a8.79 8.79 0 0 0-.06 1 2.53 2.53 0 0 0 .11.81q.11.31.37.31a.88.88 0 0 0 .48-.12 1.89 1.89 0 0 0 .31-.25.79.79 0 0 1-.34.51 1.15 1.15 0 0 1-.71.23.83.83 0 0 1-.79-.46 2.8 2.8 0 0 1-.25-1.3 7.41 7.41 0 0 1 .06-.9q-.19.34-.47.76a6.64 6.64 0 0 1-.62.8 4.43 4.43 0 0 1-.71.64 1.6 1.6 0 0 1-.73.3 1.89 1.89 0 0 1-1.08-.5 1.27 1.27 0 0 1-.34-.9 4.91 4.91 0 0 1 .47-2 7.57 7.57 0 0 1 1.16-1.84 3.9 3.9 0 0 1 .34-.41q.26-.28.58-.58t.66-.56a1.76 1.76 0 0 1 .57-.32 2.91 2.91 0 0 1 .56.06l.5.11.24-.82.32-1.12.37-1.26.37-1.25q.17-.59.32-1.07l.24-.73a4.08 4.08 0 0 1 .46-.22 4.75 4.75 0 0 1 .51-.17zM98.2 48.42a.9.9 0 0 0 .57-.28 5.93 5.93 0 0 0 .64-.68 8.86 8.86 0 0 0 .6-.84q.28-.44.45-.76t.4-.76q.23-.46.42-.94t.33-.89a2.22 2.22 0 0 0 .14-.64.1.1 0 0 0-.11-.11 1.33 1.33 0 0 0-.61.16 3.21 3.21 0 0 0-.61.42 5.07 5.07 0 0 0-.58.59 7.44 7.44 0 0 0-.5.66q-.28.37-.55.8a9 9 0 0 0-.5.9 6.42 6.42 0 0 0-.37.95 3.12 3.12 0 0 0-.14.88.81.81 0 0 0 .09.37.33.33 0 0 0 .32.17zm9.5-6.42a7.24 7.24 0 0 0-1.61.94 8.89 8.89 0 0 0-1.49 1.41 7.47 7.47 0 0 0-1 1.55 3.8 3.8 0 0 0-.39 1.64 2.39 2.39 0 0 0 .06.54 2.2 2.2 0 0 0 .19.53 1.14 1.14 0 0 0 .33.4.79.79 0 0 0 .48.15 1.53 1.53 0 0 0 .92-.32 4.72 4.72 0 0 0 .79-.72 7.49 7.49 0 0 0 .56-.72q.22-.32.26-.32a3 3 0 0 0-.09.73 1.79 1.79 0 0 0 .34 1.12 1.48 1.48 0 0 0 1.25.45 1.63 1.63 0 0 0 .36-.05.38.38 0 0 0 .29-.2 1.18 1.18 0 0 1-1.07-.56 2.21 2.21 0 0 1-.36-1.21 3.2 3.2 0 0 1 .16-.91q.16-.53.38-1.11t.57-1.23a9.41 9.41 0 0 1 .57-1 1.17 1.17 0 0 0-.56-.67 3 3 0 0 0-1-.39zm-3.7 6.57a1.5 1.5 0 0 0 .85-.4 8.13 8.13 0 0 0 1-.95 11.68 11.68 0 0 0 .91-1.15 6.41 6.41 0 0 0 .59-1q.11-.24.22-.54t.2-.6q.1-.3.16-.59l.11-.51a8 8 0 0 0-1.33.84 9.07 9.07 0 0 0-1.34 1.25 8.7 8.7 0 0 0-1.18 1.68 3.67 3.67 0 0 0-.47 1.74q.01.23.28.23z" class="cls-1"/><g><path fill="#b72930" d="M41.43.9h27.53v28.29H41.43z"/><path d="M58.29 12.25a4.42 4.42 0 0 0 .44-.88 5.6 5.6 0 0 0 .23-.66.58.58 0 0 1 .53.21.93.93 0 0 1 .14.51v.3a1.11 1.11 0 0 1 0 .27v.12l3.57-.21 1.45-.06h1.06q.72 0 1.45.08a10.16 10.16 0 0 1 1.28.18q.56.12.56.33t-.48.27l.08-.08a.15.15 0 0 0 0-.11l-.3-.06h-.44a9.23 9.23 0 0 1-1 0h-.71l-1.34.14-1.69.2-1.74.21-1.48.2q-.65.09-.92.15-.48 1.15-.88 2.22t-.76 2.1l6.43-.68q2.22-.29 2.67-.32-1.27.48-2.42.86t-2.24.65q-1 .27-2.22.5a26.81 26.81 0 0 1-2.76.35q-.57 1.9-1 3.9a18.47 18.47 0 0 0-.47 4.06c0 .44.06.66.18.66a5.53 5.53 0 0 0 .76-1q.39-.63.77-1.36t.69-1.47q.32-.74.5-1.31a12.44 12.44 0 0 1-.33 1.78 11.76 11.76 0 0 1-.6 1.77 6.71 6.71 0 0 1-.83 1.44 2.43 2.43 0 0 1-1 .82 3.19 3.19 0 0 1-.5-.21 1.16 1.16 0 0 1-.39-.35 1.68 1.68 0 0 1-.26-.62 4.9 4.9 0 0 1-.09-1.06q0-.45.08-1.3t.22-1.79q.17-1 .38-2a14.85 14.85 0 0 1 .48-1.78l-2.1.18q-.83.06-1.22.06a1.28 1.28 0 0 1-.39-.94 1.34 1.34 0 0 1 .21-.79 2.47 2.47 0 0 0 1 .18 3.23 3.23 0 0 0 .79-.09 5.09 5.09 0 0 0 .66-.21 4 4 0 0 1-1.06.82l2.51-.39q.48-1.3.92-2.36t.89-1.93q-.33 0-.94-.14a9.43 9.43 0 0 1-1.22-.3 3.68 3.68 0 0 1-1.07-.53 1 1 0 0 1-.45-.82.52.52 0 0 1 .18-.42l.47.33a2.06 2.06 0 0 0 .5.24 4.17 4.17 0 0 0 .63.15 5.38 5.38 0 0 0 .88.06q.74.02 1.71-.07z" class="cls-3"/><path d="M53.72.7a3.91 3.91 0 0 1 2.28.6 2.14 2.14 0 0 1 .94 1.75 2.86 2.86 0 0 0-1.16-.6 5.8 5.8 0 0 0-1.5-.18 7.87 7.87 0 0 0-2.64.42 6.78 6.78 0 0 0-2.1 1.18 7.24 7.24 0 0 0-1.68 2.07A8.36 8.36 0 0 0 47 8.52a1.49 1.49 0 0 0 0 .29v.26a2.64 2.64 0 0 0 .82 2 7.24 7.24 0 0 0 2 1.31 13 13 0 0 0 1.59.63l1.63.51q.8.24 1.48.48a5.19 5.19 0 0 1 1.13.54q0 .18-.45.56a8.07 8.07 0 0 1-1.21.85 16.7 16.7 0 0 1-1.9 1 15 15 0 0 1-2.54.82 20.59 20.59 0 0 1-2.14.39 18.85 18.85 0 0 1-2.45.15 2.46 2.46 0 0 1-1.53-.41 2.14 2.14 0 0 1-.74-1.13 1.56 1.56 0 0 0 .66.26 5.53 5.53 0 0 0 1 .08A22 22 0 0 0 46.5 17a22.38 22.38 0 0 0 2.33-.36 13.85 13.85 0 0 0 4-1.3 6 6 0 0 0-1.63-1 17.48 17.48 0 0 1-2.05-1 9.33 9.33 0 0 1-1-.74 4.57 4.57 0 0 1-1.48-2.21 5.31 5.31 0 0 1-.23-1.62 7.33 7.33 0 0 1 .56-2.9 10 10 0 0 1 1.8-2.78A8.19 8.19 0 0 1 51 1.36 5.69 5.69 0 0 1 53.72.7z" class="cls-3"/></g></svg>