<svg xmlns="http://www.w3.org/2000/svg" height="178" viewBox="0 0 940.56 177.048" width="941"><g clip-rule="evenodd" fill-rule="evenodd"><path d="M940.56 0l-.106 1.907-.005 173.02c0 .4.106.845-.034 1.19s-.485.675-.824.863c-.245.136-.625.028-.945.028H770.137l5.066-6.758 9.302-12.175c.668-.893 1.353-1.26 2.48-1.26l130.905.023c.44 0 .883-.037 1.318.007.86.087 1.158-.308 1.075-1.118-.032-.316-.004-.64-.004-.96V22.423c0-.36-.026-.722 0-1.08.063-.796-.338-1.076-1.076-1.044-.44.02-.88 0-1.32 0-29.677 0-59.354-.01-89.03.03-1.486.003-2.54-.46-3.592-1.463L805.501.196c-.085-.08-.2-.13-.3-.195H940.56z" fill="#2980b9"/><path d="M0 53.28l10.544.062c.233 0 .56-.428.67-.722.118-.316.033-.71.033-1.07l-.023-19.076c-.01-1.08.332-1.34 1.363-1.333h19.316c1.09-.01 1.342.368 1.336 1.382l-.02 20.858h1.57l21.956-.027c1.14-.008 1.403.35 1.393 1.424v14.757c.013 1.078-.332 1.343-1.365 1.337l-21.475-.015c-2.313.005-2.07-.294-2.073 2.025l-.005 57.948c0 1.535.003 1.536-1.58 1.536-6.277 0-12.556 0-18.835-.003-.47 0-.942-.04-1.56-.066V72.606c0-1.753-.002-1.75-1.772-1.757l-9.475-.05V53.28zM799.657 5.4l12.08 11.406 7.78 7.267c.917.83 1.356 1.67 1.346 2.97l-.063 24.84c-.01 1.233.34 1.53 1.545 1.525l42.12-.03c5.688 0 11.367.302 16.94 1.437 5.533 1.127 10.733 3.106 14.654 7.478 2.76 3.077 4.316 6.746 5.32 10.712 1.208 4.775 1.366 9.645 1.377 14.52l-.2 17.155c-.246 5.496-1.325 10.843-4.21 15.676-2.52 4.225-6.225 6.968-10.735 8.735-6.862 2.69-14.087 3.143-21.32 3.23-10.6.126-21.2.088-31.8-.034-5.834-.067-11.648-.574-17.298-2.233-7.47-2.194-12.916-6.603-15.526-14.13-1.357-3.918-2.143-7.975-2.168-12.092l-.153-58.317-.003-40.03.313-.082zm53.947 91.82h-1.686c-9.916 0-19.832.014-29.748-.02-1.053-.005-1.45.294-1.348 1.36l.433 5.495c.528 4.33 2.443 7.7 6.896 8.966 1.83.52 3.763.916 5.65.93h34.426c1.85-.014 3.742-.4 5.536-.897 4.673-1.296 6.75-4.79 7.06-9.332.322-4.738.42-9.5.4-14.25-.014-3.065-.226-6.158-.697-9.184-.537-3.446-2.375-6.172-5.934-7.103-2.37-.62-4.854-1.106-7.293-1.126l-45.34-.14c-.933 0-1.148.373-1.142 1.214l.013 10.917c0 1.58.004 1.584 1.57 1.584l29.63.005c.505 0 1.01.046 1.574.072l.002 11.512z" fill="#34495e"/><path d="M596.746 77.99l-2.818 5.755-4.986 10.348-4.652 9.704-6.55 13.58-4.716 9.676c-2.405 4.606-6.11 7.194-11.482 7.262-3.92.05-7.355-.985-9.626-4.277-1.366-1.98-2.297-4.28-3.283-6.498l-5.73-13.298-7.706-17.913-5.435-12.506-7.54-17.59-3.243-7.33c-.156-.35-.24-.734-.397-1.232l1.298-.065 18.72-.024c1-.007 1.532.34 1.91 1.24l5.11 11.988 7.285 17.176 6.618 15.388 3.113 7.21.48.32c.084-.27.138-.55.258-.802l8.79-18.475 9.24-19.182 4.55-9.495c1.236-2.497 2.754-4.854 5.317-6.145 1.355-.682 2.92-1.14 4.428-1.268 1.806-.152 3.695-.062 5.47.31 3.77.79 5.99 3.534 7.507 6.835l10.542 23.33 10.256 22.412.952 2.146.384.064 1.408-2.866 6.717-14.944 6.335-14.208 4.892-10.787 3.688-8.306c.813-1.903.77-1.922 2.76-1.922h19.148l-2.752 6.18-4.896 10.786-4.9 10.916-4.844 10.81-5.653 12.416-6.532 14.51c-1.37 3.012-2.605 6.105-4.237 8.972-3.248 5.703-9.84 7.513-15.588 5.23-3.496-1.386-5.707-4.25-7.243-7.64l-6.655-14.578-7.377-16.224-6.474-14.01-1.45-3.033-.41.052z" fill="#2980b9"/><path d="M232.79 100.863h-81.174c.125 3.812-.48 7.55 1.213 11.066.734 1.523 1.898 2.662 3.512 3.022 2.167.482 4.395.956 6.598.963l69.768.05v16.333l-1.448.064c-22.118.003-44.236.084-66.354-.06-4.89-.032-9.832-.536-14.644-1.407-5.23-.947-10.046-3.12-13.764-7.18-2.792-3.05-4.612-6.643-5.34-10.663-.622-3.44-1.06-6.96-1.116-10.45l.12-23.275c.098-4.694.924-9.294 3.03-13.563 2.14-4.344 5.564-7.287 10.03-9.104 6.69-2.723 13.757-3.16 20.826-3.23l41.036-.018c5.163.028 10.305.558 15.206 2.338 7.036 2.556 11.328 7.335 12.196 15.07.24 2.138.28 4.306.292 6.46l.013 23.583zm-81.444-13.917h59.726l-.063-12.147c-.162-2.675-1.508-3.83-4.164-4.33-1.446-.27-2.93-.457-4.4-.46a5595.3 5595.3 0 0 0-37.55.01c-2.07.007-4.148.242-6.206.502-3.394.428-5.842 2.242-6.404 5.668-.572 3.48-.638 7.04-.94 10.756z" fill="#34495e"/><path d="M743.045 100.69c-12.96 0-25.92-.002-38.88 0-1.742 0-1.807.01-1.74 1.72.09 2.43.092 4.89.486 7.278.432 2.603 1.784 4.77 4.57 5.452 1.842.45 3.753.84 5.638.858l26.64.02c1.12-.006 1.53.27 1.514 1.462l-.005 13.32c.012 1.05-.305 1.374-1.362 1.37-9.08-.042-18.16.086-27.237-.083-5.02-.094-10.05-.61-14.86-2.237-6.19-2.093-11.105-5.73-13.87-11.857-1.444-3.203-2.326-6.604-2.427-10.063l-.294-25.66c-.04-4.177.41-8.327 1.552-12.317 1.8-6.283 5.61-10.856 11.91-13.282 4.888-1.882 9.942-2.726 15.093-2.783l48.585-.193c5.62.04 11.22.9 16.282 3.74 4.628 2.598 7.593 6.427 8.382 11.717.403 2.713.638 5.473.673 8.214l.03 21.6c0 1.725 0 1.726-1.68 1.726h-38.998zM732.44 87.215h28.422c.77 0 1.528.106 1.512-1.105l-.04-10.55c-.064-2.966-1.29-4.496-4.163-5.177-1.5-.356-3.07-.595-4.61-.6-12.512-.047-25.023-.072-37.534.015-2.493.018-5.015.38-7.466.87-3.86.773-5.148 3.253-5.638 6.314-.444 2.78-.398 5.643-.5 8.472-.062 1.72.03 1.762 1.72 1.763h28.3z" fill="#2980b9"/><path d="M457.565 83.325h31.672c1.563 0 1.667-.014 1.537-1.59-.18-2.178-.317-4.397-.863-6.497-.957-3.685-3.816-5.956-7.658-6.122l-17.01-.426a242.9 242.9 0 0 0-8.276.006c-.86.013-1.2-.207-1.19-1.137l.01-13.078c0-.693.088-1.127.96-1.114l27.697.41c5.253.163 10.382 1.296 15.146 3.64 5.075 2.5 8.64 6.392 10.656 11.73 1.45 3.84 1.968 7.835 2.01 11.866l-.1 24.71c-.087 4.557-.703 9.063-2.578 13.313-2.125 4.818-5.695 8.067-10.523 10.05-5.913 2.43-12.167 3.037-18.434 3.136l-37.187.11-19.282-.67c-4.612-.32-9.02-1.703-12.822-4.5-4.12-3.03-6.035-7.364-6.224-12.286-.207-5.377-.164-10.798.273-16.158.52-6.38 4.162-10.686 10.136-12.99 3.305-1.273 6.75-2.098 10.266-2.136l31.785-.04v-.23zm3.714 13.29c-8.637 0-17.273-.002-25.91.002-.878 0-1.76-.003-2.636.06-3.792.27-6.068 2.472-6.294 6.212-.146 2.43-.184 4.87-.16 7.306.03 2.745.804 5.217 3.572 6.367 1.372.57 2.924.985 4.396.992l44.02-.017c2.118-.014 4.308-.456 6.33-1.112 3.697-1.2 5.325-4.267 5.728-7.855.392-3.48.298-7.016.495-10.522.066-1.175-.338-1.462-1.475-1.457l-28.066.025zm-173.716 35.751l.002-44.618c.002-5.53.404-11.022 1.938-16.364 2.035-7.085 6.39-12.066 13.35-14.754 6.532-2.522 13.373-3.097 20.24-3.184l33.468.09c5.51.087 11 .71 16.288 2.45 5.835 1.918 10.516 5.252 13.344 10.875 2.025 4.028 2.994 8.347 3.24 12.788l.464 16.416.04 35.03c.003.99-.268 1.3-1.273 1.293-6.318-.04-12.637-.048-18.956.005-1.14.01-1.484-.286-1.48-1.457l.02-42.95c0-3.122-.125-6.223-1.235-9.206-.964-2.594-2.738-4.34-5.27-5.373-2.522-1.028-5.188-1.36-7.863-1.36-10.795-.006-21.59.012-32.384.194-2.02.034-4.107.648-6.02 1.374-3.362 1.276-5.088 4.07-5.603 7.487-.426 2.83-.63 5.72-.644 8.583l-.03 41.03c0 1.65-.002 1.652-1.617 1.653h-20.02zm-218.876 0v-1.427l.057-44.64c.037-3.93.493-7.906 1.237-11.77 1.065-5.527 3.593-10.39 8.044-14.047 3.17-2.604 6.864-4.16 10.795-5.208 5.094-1.358 10.31-1.76 15.548-1.868l14.16-.046c.92-.007 1.25.227 1.24 1.2l.006 15c.013 1.118-.4 1.31-1.392 1.31-5.04 0-10.082-.044-15.114.153-2.085.08-4.205.54-6.21 1.15-3.62 1.105-5.485 3.91-6.062 7.475-.438 2.706-.63 5.478-.64 8.222l-.03 42.84c0 1.653-.003 1.655-1.616 1.656zm180.053-.074v-76.73l1.268-.07 19.312-.03c1.13-.008 1.39.35 1.39 1.424l-.002 74.127c0 1.02-.23 1.386-1.32 1.378l-19.432-.026c-.392 0-.783-.046-1.217-.072zm534.97-.008h-30.993v-16.22h30.992v16.22z" fill="#34495e"/><path d="M270.373 37.892l-.01 5.99c-.045 1.968-1.226 3.54-3.15 4.025-1.415.356-2.885.604-4.34.67-2.432.106-4.878.142-7.307.003-5.108-.29-6.438-1.75-6.725-6.11-.218-3.334-.092-6.708.135-10.046.205-3.01 1.3-4.324 4.257-4.765 4.662-.697 9.377-.876 14.022.286 1.77.443 3.064 2.117 3.107 3.957l.013 5.99z" fill="#2980b9"/></g></svg>