<svg id="Layer_1" data-name="Layer 1" xmlns="http://www.w3.org/2000/svg" viewBox="0 0 283.46 118.53">
  <defs>
    <style>
      .cls-1 {
        fill: #0064b4;
      }
    </style>
  </defs>
  <title>logo-ads</title>
  <g>
    <g>
      <polygon class="cls-1" points="0 104.09 6.76 104.09 6.76 105.26 1.45 105.26 1.45 109.13 6.49 109.13 6.49 110.3 1.45 110.3 1.45 115.34 0 115.34 0 104.09"/>
      <path class="cls-1" d="M8,108.15a3.18,3.18,0,0,1,3.38-2.34c2.76,0,3.13,1.88,3.13,3.52v4.91a6.77,6.77,0,0,0,.08,1.09H13.14v-1.58h0a3.53,3.53,0,0,1-2.92,1.67,2.46,2.46,0,0,1-2.61-2.64c0-2.13,1.64-3.21,4.22-3.21h1.34V109c0-.63,0-2.13-1.82-2.13a2.14,2.14,0,0,0-2.1,1.66Zm4.11,2.48c-2,0-3.16.63-3.16,2a1.48,1.48,0,0,0,1.56,1.66c0.57,0,1.33-.14,2.61-1.6v-2.1h-1Z"/>
      <path class="cls-1" d="M17.29,104.44l1.39-.58v2.89h2.2v1h-2.2v5.15c0,0.77.08,1.48,1.11,1.48a2.78,2.78,0,0,0,1.17-.27v1.11a4,4,0,0,1-1.31.27,2.13,2.13,0,0,1-2.35-2.42v-5.32H15.88v-1h1.41v-2.31Z"/>
      <path class="cls-1" d="M23.13,111c0.06,2.51,1.23,3.4,2.48,3.4a2.26,2.26,0,0,0,2.24-1.64l1.22,0.43a3.53,3.53,0,0,1-3.46,2.32c-3.32,0-3.93-3-3.93-4.86s0.62-4.85,3.93-4.85c2.68,0,3.65,2.32,3.65,4.52V111H23.13Zm4.67-1c0-1.67-.76-3.06-2.24-3.06s-2.24,1.15-2.43,3.06h4.67Z"/>
      <path class="cls-1" d="M36.35,108.64a2,2,0,0,0-1.82-1.72c-2,0-2.48,1.93-2.48,3.73s0.51,3.77,2.24,3.77a2.2,2.2,0,0,0,2.13-1.71l1.22,0.4c-0.57,1.31-1.29,2.42-3.35,2.42-3.08,0-3.7-2.78-3.7-4.86,0-1.88.62-4.85,3.93-4.85,1.42,0,2.42.66,3.06,2.45Z"/>
      <polygon class="cls-1" points="45.25 105.36 41.98 105.36 41.98 104.09 49.97 104.09 49.97 105.36 46.7 105.36 46.7 115.34 45.25 115.34 45.25 105.36"/>
      <path class="cls-1" d="M50.21,108.15a3.18,3.18,0,0,1,3.38-2.34c2.76,0,3.13,1.88,3.13,3.52v4.91a6.77,6.77,0,0,0,.08,1.09H55.33v-1.58h0a3.53,3.53,0,0,1-2.92,1.67,2.46,2.46,0,0,1-2.61-2.64c0-2.13,1.64-3.21,4.22-3.21h1.34V109c0-.63,0-2.13-1.82-2.13a2.14,2.14,0,0,0-2.1,1.66Zm4.11,2.48c-2,0-3.16.63-3.16,2a1.48,1.48,0,0,0,1.56,1.66c0.57,0,1.33-.14,2.61-1.6v-2.1h-1Z"/>
      <path class="cls-1" d="M65.66,118.28H64.27v-4.15a3.35,3.35,0,0,1-2.72,1.41c-1.44,0-3.25-1-3.25-4.82,0-3.1,1.28-4.9,3.38-4.9a3,3,0,0,1,2.56,1.41h0V106h1.39v12.27Zm-1.39-9.89A2.57,2.57,0,0,0,62,107c-1.94,0-2.27,2.29-2.27,3.82,0,1.22.25,3.55,2.26,3.55A3,3,0,0,0,64.27,113v-4.58Z"/>
      <path class="cls-1" d="M74.73,115.34H73.34v-1.52a4.86,4.86,0,0,1-3.16,1.71c-1.44,0-2.32-.87-2.31-2.64V106h1.39v6.38c0,0.95.22,1.88,1.37,1.88a3.66,3.66,0,0,0,2.7-1.61V106h1.39v9.33Z"/>
      <path class="cls-1" d="M76.83,108.15a3.18,3.18,0,0,1,3.38-2.34c2.76,0,3.13,1.88,3.13,3.52v4.91a6.77,6.77,0,0,0,.08,1.09H82v-1.58h0A3.53,3.53,0,0,1,79,115.43a2.46,2.46,0,0,1-2.61-2.64c0-2.13,1.64-3.21,4.22-3.21H82V109c0-.63,0-2.13-1.82-2.13a2.14,2.14,0,0,0-2.1,1.66Zm4.11,2.48c-2,0-3.16.63-3.16,2a1.48,1.48,0,0,0,1.56,1.66c0.57,0,1.33-.14,2.61-1.6v-2.1h-1Z"/>
      <path class="cls-1" d="M85.43,106h1.39v1.66h0a3.82,3.82,0,0,1,3.08-1.75v1.39a3.46,3.46,0,0,0-3.11,1.56v6.48H85.43V106Z"/>
      <rect class="cls-1" x="91.31" y="103.07" width="1.55" height="1.39"/>
      <rect class="cls-1" x="91.39" y="106" width="1.39" height="9.33"/>
      <path class="cls-1" d="M95.76,104.44l1.39-.58v2.89h2.2v1h-2.2v5.15c0,0.77.08,1.48,1.11,1.48a2.78,2.78,0,0,0,1.17-.27v1.11a4,4,0,0,1-1.31.27,2.14,2.14,0,0,1-2.35-2.42v-5.32H94.36v-1h1.41v-2.31Z"/>
      <rect class="cls-1" x="100.69" y="103.07" width="1.55" height="1.39"/>
      <rect class="cls-1" x="100.77" y="106" width="1.39" height="9.33"/>
      <path class="cls-1" d="M104.48,106h1.39v1.52a4.86,4.86,0,0,1,3.16-1.71c1.44,0,2.32.87,2.31,2.64v6.89h-1.39V109c0-.95-0.22-1.88-1.37-1.88a3.66,3.66,0,0,0-2.7,1.61v6.65h-1.39V106Z"/>
      <path class="cls-1" d="M120.83,107h-1.67a2.31,2.31,0,0,1,.76,1.88c0,1.33-.87,2.91-3.52,2.91a2.72,2.72,0,0,1-.73-0.08,0.91,0.91,0,0,0-.46.71c0,0.33.13,0.46,1.22,0.71l1.52,0.35c1.39,0.32,2.65.77,2.65,2.45,0,2-2.15,2.65-4,2.65s-3.79-.63-3.79-2.34c0-1.23.79-1.86,1.77-2.46a1,1,0,0,1-.65-0.93,1.69,1.69,0,0,1,.93-1.37A2.78,2.78,0,0,1,113,108.8c0-1.61,1.12-3,3.4-3A5.71,5.71,0,0,1,118,106h2.86V107Zm-5.35,7.19a2.38,2.38,0,0,0-1.39,1.88c0,1.17,1.58,1.47,2.7,1.47,1.56,0,2.42-.66,2.42-1.52,0-.6-0.24-1-1.5-1.31Zm1-3.35a2,2,0,0,0,2.12-2.07,2.12,2.12,0,0,0-4.23,0A2,2,0,0,0,116.47,110.79Z"/>
      <path class="cls-1" d="M121.93,108.15a3.18,3.18,0,0,1,3.38-2.34c2.76,0,3.13,1.88,3.13,3.52v4.91a6.77,6.77,0,0,0,.08,1.09H127v-1.58h0a3.53,3.53,0,0,1-2.92,1.67,2.46,2.46,0,0,1-2.61-2.64c0-2.13,1.64-3.21,4.22-3.21H127V109c0-.63,0-2.13-1.82-2.13a2.14,2.14,0,0,0-2.1,1.66Zm4.11,2.48c-2,0-3.16.63-3.16,2a1.48,1.48,0,0,0,1.56,1.66c0.57,0,1.33-.14,2.61-1.6v-2.1h-1Z"/>
    </g>
    <g>
      <path class="cls-1" d="M6.19,85.13l4.25,11.24H8.88l-1.09-3H2.62l-1.12,3H0L4.36,85.13H6.19Zm1.2,7.08L5.91,88.32C5.67,87.69,5.46,87,5.24,86.4h0C5,87,4.75,87.69,4.52,88.32L3,92.21H7.39Z"/>
      <path class="cls-1" d="M11.6,87H13v1.52a4.86,4.86,0,0,1,3.16-1.71c1.44,0,2.32.87,2.31,2.64v6.89H17.06V90c0-.95-0.22-1.88-1.37-1.88A3.66,3.66,0,0,0,13,89.73v6.65H11.6V87Z"/>
      <path class="cls-1" d="M20.56,89.19a3.18,3.18,0,0,1,3.38-2.34c2.76,0,3.13,1.88,3.13,3.52v4.91a6.77,6.77,0,0,0,.08,1.09H25.67V94.8h0a3.53,3.53,0,0,1-2.92,1.67,2.46,2.46,0,0,1-2.61-2.64c0-2.13,1.64-3.21,4.22-3.21h1.34V90c0-.63,0-2.13-1.82-2.13a2.14,2.14,0,0,0-2.1,1.66Zm4.11,2.48c-2,0-3.16.63-3.16,2a1.48,1.48,0,0,0,1.56,1.66c0.57,0,1.33-.14,2.61-1.6v-2.1h-1Z"/>
      <polygon class="cls-1" points="24.19 83.63 25.89 83.63 23.65 85.89 22.55 85.89 24.19 83.63"/>
      <rect class="cls-1" x="29.26" y="84.11" width="1.39" height="12.27"/>
      <rect class="cls-1" x="33" y="84.11" width="1.55" height="1.39"/>
      <rect class="cls-1" x="33.08" y="87.04" width="1.39" height="9.33"/>
      <path class="cls-1" d="M37.3,93.82a2.11,2.11,0,0,0,2.12,1.64,1.66,1.66,0,0,0,1.93-1.56c0-.95-0.71-1.29-1.88-1.66L38.77,92c-1.26-.39-2.38-1-2.38-2.57,0-1.9,1.78-2.59,3.14-2.59a2.91,2.91,0,0,1,3,2.12l-1.22.43A1.8,1.8,0,0,0,39.48,88a1.48,1.48,0,0,0-1.71,1.41c0,0.71.33,1,1.36,1.39l1.28,0.44c1.55,0.54,2.32,1.2,2.32,2.64,0,1-.69,2.73-3.35,2.73a3.19,3.19,0,0,1-3.32-2.35Z"/>
      <path class="cls-1" d="M45.34,92.07c0.06,2.51,1.23,3.4,2.48,3.4a2.26,2.26,0,0,0,2.24-1.64l1.22,0.43a3.53,3.53,0,0,1-3.46,2.32c-3.32,0-3.93-3-3.93-4.86s0.62-4.85,3.93-4.85c2.68,0,3.65,2.32,3.65,4.52v0.69H45.34ZM50,91c0-1.67-.76-3.06-2.24-3.06S45.53,89.11,45.34,91H50Z"/>
      <path class="cls-1" d="M58.52,92.07c0.06,2.51,1.23,3.4,2.48,3.4a2.26,2.26,0,0,0,2.24-1.64l1.22,0.43A3.53,3.53,0,0,1,61,96.57c-3.32,0-3.93-3-3.93-4.86s0.62-4.85,3.93-4.85c2.68,0,3.65,2.32,3.65,4.52v0.69H58.52Zm4.67-1C63.2,89.35,62.44,88,61,88S58.71,89.11,58.52,91H63.2Z"/>
      <path class="cls-1" d="M70.81,85.13h3.44c3.35,0,5.26,2.46,5.26,5.62s-1.74,5.62-5.42,5.62H70.81V85.13Zm1.45,10.08h1.58c2,0,4.12-.7,4.12-4.45,0-2.7-1.2-4.45-4.12-4.45H72.27v8.91Z"/>
      <path class="cls-1" d="M82.24,92.07c0.06,2.51,1.23,3.4,2.48,3.4A2.26,2.26,0,0,0,87,93.82l1.22,0.43a3.53,3.53,0,0,1-3.46,2.32c-3.32,0-3.93-3-3.93-4.86s0.62-4.85,3.93-4.85c2.68,0,3.65,2.32,3.65,4.52v0.69H82.24Zm4.67-1c0-1.67-.76-3.06-2.24-3.06S82.43,89.11,82.24,91h4.67Z"/>
      <path class="cls-1" d="M90.58,93.82a2.11,2.11,0,0,0,2.12,1.64,1.66,1.66,0,0,0,1.93-1.56c0-.95-0.71-1.29-1.88-1.66L92,92c-1.26-.39-2.38-1-2.38-2.57,0-1.9,1.78-2.59,3.14-2.59a2.91,2.91,0,0,1,3,2.12l-1.22.43A1.8,1.8,0,0,0,92.76,88a1.48,1.48,0,0,0-1.71,1.41c0,0.71.33,1,1.36,1.39l1.28,0.44C95.24,91.73,96,92.4,96,93.84c0,1-.69,2.73-3.35,2.73a3.19,3.19,0,0,1-3.32-2.35Z"/>
      <path class="cls-1" d="M98.62,92.07c0.06,2.51,1.23,3.4,2.48,3.4a2.26,2.26,0,0,0,2.24-1.64l1.22,0.43a3.53,3.53,0,0,1-3.46,2.32c-3.32,0-3.93-3-3.93-4.86s0.62-4.85,3.93-4.85c2.68,0,3.65,2.32,3.65,4.52v0.69H98.62Zm4.67-1c0-1.67-.76-3.06-2.24-3.06S98.81,89.11,98.62,91h4.67Z"/>
      <path class="cls-1" d="M106.46,87h1.39v1.52A4.86,4.86,0,0,1,111,86.85c1.44,0,2.32.87,2.31,2.64v6.89h-1.39V90c0-.95-0.22-1.88-1.37-1.88a3.66,3.66,0,0,0-2.7,1.61v6.65h-1.39V87Z"/>
      <path class="cls-1" d="M116,87l1.63,5.34c0.25,0.82.41,1.37,0.74,2.61h0.08c0.33-1.23.47-1.78,0.74-2.61L120.9,87h1.39l-3,9.33h-1.72L114.45,87H116Z"/>
      <path class="cls-1" d="M122.92,91.7c0-2.4,1.07-4.85,3.93-4.85,3.32,0,3.93,3,3.93,4.85,0,2.42-1.07,4.86-3.93,4.86C123.54,96.57,122.92,93.6,122.92,91.7Zm1.45,0c0,1.83.51,3.77,2.48,3.77s2.48-1.94,2.48-3.77S128.83,88,126.85,88,124.37,89.89,124.37,91.69Z"/>
      <rect class="cls-1" x="132.61" y="84.11" width="1.39" height="12.27"/>
      <path class="cls-1" d="M136.79,87l1.63,5.34c0.25,0.82.41,1.37,0.74,2.61h0.08c0.33-1.23.47-1.78,0.74-2.61L141.69,87h1.39l-3,9.33h-1.72L135.25,87h1.55Z"/>
      <rect class="cls-1" x="144.25" y="84.11" width="1.55" height="1.39"/>
      <rect class="cls-1" x="144.33" y="87.04" width="1.39" height="9.33"/>
      <path class="cls-1" d="M148,87h1.39v1.5c1.23-1.42,2.12-1.69,2.94-1.69a2,2,0,0,1,2.15,1.52,4.26,4.26,0,0,1,3-1.52c1.91,0,2.31,1.48,2.31,2.64v6.89h-1.39V90c0-.57,0-1.9-1.41-1.9-0.73,0-1.28.17-2.42,1.28v7h-1.39V90c0-.69,0-1.9-1.44-1.9-0.77,0-1.37.44-2.38,1.56v6.7H148V87Z"/>
      <path class="cls-1" d="M163,92.07c0.06,2.51,1.23,3.4,2.48,3.4a2.26,2.26,0,0,0,2.24-1.64L169,94.25a3.53,3.53,0,0,1-3.46,2.32c-3.32,0-3.93-3-3.93-4.86s0.62-4.85,3.93-4.85c2.68,0,3.65,2.32,3.65,4.52v0.69H163Zm4.67-1c0-1.67-.76-3.06-2.24-3.06S163.21,89.11,163,91h4.67Z"/>
      <path class="cls-1" d="M170.86,87h1.39v1.52a4.86,4.86,0,0,1,3.16-1.71c1.44,0,2.32.87,2.31,2.64v6.89h-1.39V90c0-.95-0.22-1.88-1.37-1.88a3.66,3.66,0,0,0-2.7,1.61v6.65h-1.39V87Z"/>
      <path class="cls-1" d="M180.59,85.48L182,84.9v2.89h2.2v1H182V94c0,0.77.08,1.48,1.11,1.48a2.78,2.78,0,0,0,1.17-.27V96.3a4,4,0,0,1-1.31.27,2.14,2.14,0,0,1-2.35-2.42V88.83h-1.41v-1h1.41V85.48Z"/>
      <path class="cls-1" d="M185,91.7c0-2.4,1.07-4.85,3.93-4.85,3.32,0,3.93,3,3.93,4.85,0,2.42-1.07,4.86-3.93,4.86C185.6,96.57,185,93.6,185,91.7Zm1.45,0c0,1.83.51,3.77,2.48,3.77s2.48-1.94,2.48-3.77S190.89,88,188.91,88,186.44,89.89,186.44,91.69Z"/>
      <path class="cls-1" d="M205.64,96.38h-1.39V95.16h0a3,3,0,0,1-2.56,1.41c-2.1,0-3.38-1.8-3.38-4.9,0-3.77,1.82-4.82,3.25-4.82a3.35,3.35,0,0,1,2.72,1.41V84.11h1.39V96.38Zm-1.39-7A3,3,0,0,0,202,88c-2,0-2.26,2.34-2.26,3.55,0,1.53.33,3.82,2.27,3.82A2.57,2.57,0,0,0,204.25,94V89.41Z"/>
      <path class="cls-1" d="M208.49,92.07c0.06,2.51,1.23,3.4,2.48,3.4a2.26,2.26,0,0,0,2.24-1.64l1.22,0.43A3.53,3.53,0,0,1,211,96.57c-3.32,0-3.93-3-3.93-4.86s0.62-4.85,3.93-4.85c2.68,0,3.65,2.32,3.65,4.52v0.69h-6.13Zm4.67-1c0-1.67-.76-3.06-2.24-3.06s-2.24,1.15-2.43,3.06h4.67Z"/>
      <path class="cls-1" d="M221.56,93.71a2.24,2.24,0,0,0,2.34,1.74,2,2,0,0,0,2.18-2,1.79,1.79,0,0,0-1.18-1.78l-2.72-1.26A2.59,2.59,0,0,1,220.5,88c0-2.2,1.91-3.08,3.52-3.08s2.91,0.55,3.44,2.05l-1.42.47a1.9,1.9,0,0,0-2-1.36,1.72,1.72,0,0,0-2,1.82,1.87,1.87,0,0,0,1.48,1.77l2,0.88a3,3,0,0,1,2.07,2.92c0,1.06-.65,3.16-3.85,3.16a3.46,3.46,0,0,1-3.62-2.38Z"/>
      <rect class="cls-1" x="229.22" y="84.11" width="1.55" height="1.39"/>
      <rect class="cls-1" x="229.3" y="87.04" width="1.39" height="9.33"/>
      <path class="cls-1" d="M233.52,93.82a2.11,2.11,0,0,0,2.12,1.64,1.66,1.66,0,0,0,1.93-1.56c0-.95-0.71-1.29-1.88-1.66L235,92c-1.26-.39-2.38-1-2.38-2.57,0-1.9,1.78-2.59,3.14-2.59a2.9,2.9,0,0,1,3,2.12l-1.22.43A1.8,1.8,0,0,0,235.7,88,1.48,1.48,0,0,0,234,89.37c0,0.71.33,1,1.36,1.39l1.28,0.44c1.55,0.54,2.32,1.2,2.32,2.64,0,1-.69,2.73-3.35,2.73a3.19,3.19,0,0,1-3.32-2.35Z"/>
      <path class="cls-1" d="M241.28,85.48l1.39-.58v2.89h2.2v1h-2.2V94c0,0.77.08,1.48,1.11,1.48a2.78,2.78,0,0,0,1.17-.27V96.3a4,4,0,0,1-1.31.27,2.14,2.14,0,0,1-2.35-2.42V88.83h-1.41v-1h1.41V85.48Z"/>
      <path class="cls-1" d="M247.12,92.07c0.06,2.51,1.23,3.4,2.48,3.4a2.26,2.26,0,0,0,2.24-1.64l1.22,0.43a3.53,3.53,0,0,1-3.46,2.32c-3.32,0-3.93-3-3.93-4.86s0.62-4.85,3.93-4.85c2.68,0,3.65,2.32,3.65,4.52v0.69h-6.13Zm4.67-1c0-1.67-.76-3.06-2.24-3.06s-2.24,1.15-2.43,3.06h4.67Z"/>
      <path class="cls-1" d="M255,87h1.39v1.5c1.23-1.42,2.12-1.69,2.94-1.69a2,2,0,0,1,2.15,1.52,4.26,4.26,0,0,1,3-1.52c1.91,0,2.31,1.48,2.31,2.64v6.89h-1.39V90c0-.57,0-1.9-1.41-1.9-0.73,0-1.28.17-2.42,1.28v7h-1.39V90c0-.69,0-1.9-1.44-1.9-0.77,0-1.37.44-2.38,1.56v6.7H255V87Z"/>
      <path class="cls-1" d="M268.88,89.19a3.18,3.18,0,0,1,3.38-2.34c2.76,0,3.13,1.88,3.13,3.52v4.91a6.77,6.77,0,0,0,.08,1.09H274V94.8h0A3.53,3.53,0,0,1,271,96.47a2.46,2.46,0,0,1-2.61-2.64c0-2.13,1.64-3.21,4.22-3.21H274V90c0-.63,0-2.13-1.82-2.13a2.14,2.14,0,0,0-2.1,1.66ZM273,91.67c-2,0-3.16.63-3.16,2a1.48,1.48,0,0,0,1.56,1.66c0.57,0,1.33-.14,2.61-1.6v-2.1h-1Z"/>
      <path class="cls-1" d="M278,93.82a2.11,2.11,0,0,0,2.12,1.64A1.66,1.66,0,0,0,282,93.9c0-.95-0.71-1.29-1.88-1.66L279.45,92c-1.26-.39-2.38-1-2.38-2.57,0-1.9,1.78-2.59,3.14-2.59a2.91,2.91,0,0,1,3,2.12L282,89.4A1.8,1.8,0,0,0,280.16,88a1.48,1.48,0,0,0-1.71,1.41c0,0.71.33,1,1.36,1.39l1.28,0.44c1.55,0.54,2.32,1.2,2.32,2.64,0,1-.69,2.73-3.35,2.73a3.19,3.19,0,0,1-3.32-2.35Z"/>
    </g>
    <path class="cls-1" d="M240.94,51c0,17,31.18,17,31.18,2.83,0-19.84-42.52-2.83-42.52-34C229.61,5.67,240.94,0,258,0s25.51,11.34,25.51,22.68H272.13c0-17-31.18-17-31.18-2.83,0,19.84,42.52,5.67,42.52,34C283.46,65.2,275,73.7,258,73.7S229.61,65.2,229.61,51h11.34Z"/>
    <path class="cls-1" d="M189.92,0H161.57V73.7h28.35a28.33,28.33,0,0,0,28.35-28.35v-17A28.33,28.33,0,0,0,189.92,0Zm0,62.36h-17v-51h17a17,17,0,0,1,17,17v17A17,17,0,0,1,189.92,62.36Z"/>
    <path class="cls-1" d="M141.73,73.7h11.34L124.72,0H113.39L85,73.7H96.38l6.54-17h32.27ZM107.28,45.35l11.77-30.61,11.77,30.61H107.28Z"/>
    <g>
      <path class="cls-1" d="M42.52,68a2.83,2.83,0,0,1-2.83,2.83H34A2.83,2.83,0,0,1,31.18,68H0A5.67,5.67,0,0,0,5.67,73.7H68A5.67,5.67,0,0,0,73.7,68H42.52Z"/>
      <path class="cls-1" d="M48.19,22.68H5.67a2.83,2.83,0,0,0-2.83,2.83V65.2H5.67V26.93a1.42,1.42,0,0,1,1.42-1.42h41.1V22.68Z"/>
      <rect class="cls-1" x="68.03" y="28.35" width="2.83" height="36.85"/>
      <path class="cls-1" d="M22.68,39.69v2.83a2.83,2.83,0,0,1-2.83,2.83v2.83A2.83,2.83,0,0,1,22.68,51v2.83a5.67,5.67,0,0,0,5.67,5.67h2.83V56.69H28.35a2.83,2.83,0,0,1-2.83-2.83V51a5.65,5.65,0,0,0-1.93-4.25,5.65,5.65,0,0,0,1.93-4.25V39.69a2.83,2.83,0,0,1,2.83-2.83h2.83V34H28.35A5.67,5.67,0,0,0,22.68,39.69Z"/>
      <path class="cls-1" d="M53.86,45.35A2.83,2.83,0,0,1,51,42.52V39.69A5.67,5.67,0,0,0,45.35,34H42.52v2.83h2.83a2.83,2.83,0,0,1,2.83,2.83v2.83a5.65,5.65,0,0,0,1.93,4.25A5.65,5.65,0,0,0,48.19,51v2.83a2.83,2.83,0,0,1-2.83,2.83H42.52v2.83h2.83A5.67,5.67,0,0,0,51,53.86V51a2.83,2.83,0,0,1,2.83-2.83V45.35h0Z"/>
      <path class="cls-1" d="M52.44,19.84h7.09a1.42,1.42,0,0,1,1.42,1.42v5.67a1.42,1.42,0,0,1-1.42,1.42H52.44A1.42,1.42,0,0,1,51,26.93V21.26A1.42,1.42,0,0,1,52.44,19.84Zm0,2.13v4.25a0.71,0.71,0,0,0,.71.71h5.67a0.71,0.71,0,0,0,.71-0.71V22a0.71,0.71,0,0,0-.71-0.71H53.15A0.71,0.71,0,0,0,52.44,22Z"/>
      <path class="cls-1" d="M69.73,25.51H64.91a1.13,1.13,0,0,1-1.13-1.13V21a1.13,1.13,0,0,1,1.13-1.13h4.82A1.13,1.13,0,0,1,70.87,21v3.4A1.13,1.13,0,0,1,69.73,25.51Zm-0.14-1.84v-2A0.71,0.71,0,0,0,68.88,21H65.76a0.71,0.71,0,0,0-.71.71v2a0.71,0.71,0,0,0,.71.71h3.12A0.71,0.71,0,0,0,69.59,23.67Z"/>
      <path class="cls-1" d="M48.9,17h-8.5a2.13,2.13,0,0,1-2.13-2.13V7.8a2.13,2.13,0,0,1,2.13-2.13h8.5A2.13,2.13,0,0,1,51,7.8v7.09A2.13,2.13,0,0,1,48.9,17Zm0-3.26V8.93A1.13,1.13,0,0,0,47.76,7.8H41.53a1.13,1.13,0,0,0-1.13,1.13v4.82a1.13,1.13,0,0,0,1.13,1.13h6.24A1.13,1.13,0,0,0,48.9,13.75Z"/>
      <path class="cls-1" d="M70.87,17H56.69a2.83,2.83,0,0,1-2.83-2.83V2.83A2.83,2.83,0,0,1,56.69,0H70.87A2.83,2.83,0,0,1,73.7,2.83V14.17A2.83,2.83,0,0,1,70.87,17Zm0.35-3.9V3.9A1.42,1.42,0,0,0,69.8,2.48h-12A1.42,1.42,0,0,0,56.34,3.9v9.21a1.42,1.42,0,0,0,1.42,1.42h12A1.42,1.42,0,0,0,71.22,13.11Z"/>
    </g>
  </g>
</svg>
