<svg xmlns="http://www.w3.org/2000/svg" viewBox="0 0 600 179.1" style="enable-background:new 0 0 600 179.1;"><style><![CDATA[.AA{fill:#00a0e6}.S{fill:#4a555c}]]></style><path class="S" d="M576.5 167.3v-2.7l-2.4 1.3c-2.1 1.1-4.1 1.7-6 1.7-2 0-3.7-.6-4.9-1.8a6.1 6.1 0 0 1-1.9-4.7c0-2.3.8-4 2.4-5.2s3.6-1.8 6.1-1.8h6.8v-1.3c0-2.9-1.6-4.4-4.7-4.4-3.3 0-5 1.3-5 4h-5.1v-.4a7.4 7.4 0 0 1 2.7-6c1.8-1.4 4.3-2.1 7.3-2.1 3.1 0 5.6.8 7.3 2.3s2.6 3.6 2.6 6.3v14.7h-5.2zm0-9.5h-6.1c-2.6 0-3.9 1-3.9 3 0 .8.2 1.4.7 1.9.5.4 1.2.7 2 .7 1.2 0 2.5-.4 4-1.1l3.3-1.8v-2.7zm-35 1.2c-1 0-1.6.5-1.6 1.5s.5 1.4 1.5 1.4h8.9c5.5 0 8.2 2.1 8.2 6.3a6.1 6.1 0 0 1-2.9 5.4c-1.9 1.2-4.5 1.9-7.6 1.9-6.8 0-10.2-2.9-10.2-8.7v-2.3c-1.5-.7-2.3-2.1-2.3-4.1 0-1.2.3-2.2.8-2.9.6-.8 1.3-1.3 2.2-1.5-.1-.1-.3-.2-.5-.4s-.4-.7-.7-1.4c-.3-.8-.5-1.6-.5-2.5 0-2.4.8-4.2 2.3-5.5s3.6-1.9 6.1-1.9h13.3v4.4h-3.3c.8.6 1.1 1.7 1.1 3.1 0 2.2-.7 3.9-2.2 5.1-1.5 1.3-3.5 1.9-6.1 1.9h-6.5zm5.9-3.8c2.9 0 4.3-1.1 4.3-3.4 0-2.2-1.3-3.3-3.9-3.3h-2a5.1 5.1 0 0 0-3 .8c-.7.5-1 1.4-1 2.7 0 2.2 1.3 3.3 3.9 3.3h1.7zm-5 10.6v1c0 1.7.4 2.9 1.2 3.7s2.2 1.2 4.2 1.2c3.7 0 5.6-1.1 5.6-3.3 0-1.7-1.3-2.6-3.9-2.6h-7.1zm-16.1 1.5v-15c0-1-.3-1.8-.8-2.4s-1.3-1-2.3-1a5.6 5.6 0 0 0-3 1l-3.3 2v15.4h-5.3v-22.9h5.2v2.7l2.4-1.5c1.5-.9 3.2-1.4 5.1-1.5 2.2 0 4 .7 5.3 2 1.3 1.4 1.9 3.2 1.9 5.4v15.7h-5.2zm-25.6-22.9h5.4v22.9h-5.4zm5.7-6.2a2.2 2.2 0 0 1-.8 1.8c-.6.4-1.3.7-2.2.7s-1.6-.2-2.2-.7c-.6-.4-.8-1-.8-1.8v-1c0-.8.3-1.4.8-1.9.6-.4 1.3-.7 2.2-.7s1.6.2 2.2.7c.6.4.8 1.1.8 1.9v1zm-13 29.1c-2.7 0-4.9-.7-6.4-2s-2.3-3.3-2.3-5.8v-10.6h-3.5v-4.5h3.5v-6.2h5.4v6.2h6.3v4.5H490v10.3c0 1.3.3 2.2.9 2.8.6.5 1.6.8 2.9.8h2.7v4.6h-3.1zm-21.3-22.9h5.4v22.9h-5.4zm5.7-6.2a2.2 2.2 0 0 1-.8 1.8c-.6.4-1.3.7-2.2.7s-1.6-.2-2.2-.7c-.6-.4-.8-1-.8-1.8v-1c0-.8.3-1.4.8-1.9.6-.4 1.3-.7 2.2-.7s1.6.2 2.2.7c.6.4.8 1.1.8 1.9v1zm-22.5 29.1v-22.9h5.3v3.3l1-1c1.7-1.6 3.6-2.4 5.6-2.4h1.3v5.3h-1.3c-1.9 0-3.5.5-4.8 1.6l-1.8 1.5v14.7h-5.3zm-10.3 0v-2.7l-2.4 1.3c-2.1 1.1-4.1 1.7-6 1.7-2 0-3.7-.6-4.9-1.8a6.1 6.1 0 0 1-1.9-4.7c0-2.3.8-4 2.4-5.2s3.6-1.8 6.1-1.8h6.8v-1.3c0-2.9-1.6-4.4-4.7-4.4-3.3 0-5 1.3-5 4h-5.1v-.4a7.4 7.4 0 0 1 2.7-6c1.8-1.4 4.3-2.1 7.3-2.1 3.1 0 5.6.8 7.3 2.3s2.6 3.6 2.6 6.3v14.7H445zm0-9.5h-6.1c-2.6 0-3.9 1-3.9 3 0 .8.2 1.4.7 1.9.5.4 1.2.7 2 .7 1.2 0 2.5-.4 4-1.1l3.3-1.8v-2.7zm-25.1 9.5v-2.7l-2.4 1.4c-1.6 1-3.3 1.5-5.1 1.5-2.2 0-4-.7-5.3-2-1.3-1.4-1.9-3.2-1.9-5.4v-15.7h5.3v15.1c0 1 .3 1.8.8 2.4s1.3.9 2.2.9a5.6 5.6 0 0 0 3-1l3.3-2v-15.5h5.3v22.9h-5.2zm-25.2 8v-10.5l-2.6 1.4c-1.7.9-3.4 1.3-5.1 1.3-2.3 0-4.2-.7-5.7-2.2-1.4-1.4-2.2-3.3-2.2-5.6V152c0-2.3.7-4.3 2.2-5.7 1.5-1.5 3.4-2.2 5.7-2.2a10.1 10.1 0 0 1 5 1.3l2.7 1.4v-2.5h5.1v30.9h-5.1zm0-23.6l-3.7-2c-1.1-.6-2.1-.9-3.2-.9s-2 .3-2.6 1c-.7.7-1 1.6-1 2.7v6.5c0 1.1.3 2 1 2.7s1.5 1 2.6 1a6.2 6.2 0 0 0 3.2-.9l3.7-2v-8.1zm-25.5 15.6v-2.7l-2.4 1.3c-2.1 1.1-4.1 1.7-6 1.7-2 0-3.7-.6-4.9-1.8a6.1 6.1 0 0 1-1.9-4.7c0-2.3.8-4 2.4-5.2s3.6-1.8 6.1-1.8h6.8v-1.3c0-2.9-1.6-4.4-4.7-4.4-3.3 0-5 1.3-5 4h-5.1v-.4a7.4 7.4 0 0 1 2.7-6c1.8-1.4 4.3-2.1 7.3-2.1 3.1 0 5.6.8 7.3 2.3s2.6 3.6 2.6 6.3v14.7h-5.2zm0-9.5h-6.1c-2.6 0-3.9 1-3.9 3 0 .8.2 1.4.7 1.9.5.4 1.2.7 2 .7 1.2 0 2.5-.4 4-1.1l3.3-1.8v-2.7zm-30 9.5v-27.2H330V135h24.4v5.1h-9.2v27.2zM314 159c0 2.8-.9 5-2.7 6.5s-4.2 2.3-7.2 2.3-5.4-.8-7.2-2.4-2.7-3.8-2.7-6.6V153c0-2.8.9-5 2.7-6.6s4.2-2.4 7.2-2.4 5.5.8 7.2 2.3c1.8 1.5 2.7 3.7 2.7 6.5v.4h-5.1c0-3.1-1.6-4.6-4.8-4.6s-4.7 1.6-4.7 4.9v4.8c0 3.2 1.6 4.9 4.7 4.9 3.2 0 4.8-1.5 4.8-4.6h5.1v.4zm-24.4 1.1c0 2.3-.9 4.2-2.7 5.5-1.8 1.4-4.3 2.1-7.3 2.1s-5.5-.8-7.3-2.3c-1.9-1.6-2.8-3.7-2.8-6.5v-5.4c0-2.9.9-5.1 2.8-6.8s4.3-2.5 7.3-2.5 5.5.8 7.3 2.5 2.8 4 2.8 7v4h-15.2v1.1c0 1.6.5 2.7 1.4 3.5s2.2 1.2 3.8 1.2c3.3 0 5-1.2 5-3.5h5v.1zm-4.9-6.7c0-1.6-.4-2.9-1.3-3.7-.9-.9-2.1-1.3-3.7-1.3s-2.9.4-3.8 1.3-1.4 2.1-1.4 3.8v.6h10.3v-.7zm-21.1 13.9c-2.7 0-4.9-.7-6.4-2s-2.3-3.3-2.3-5.8v-10.6h-3.5v-4.5h3.5v-6.2h5.4v6.2h6.3v4.5h-6.3v10.3c0 1.3.3 2.2.9 2.8.6.5 1.6.8 2.9.8h2.7v4.6h-3.2zm-20.3 0v-2.7l-2.4 1.3c-2.1 1.1-4.1 1.7-6 1.7-2 0-3.7-.6-4.9-1.8a6.1 6.1 0 0 1-1.9-4.7c0-2.3.8-4 2.4-5.2s3.6-1.8 6.1-1.8h6.8v-1.3c0-2.9-1.6-4.4-4.7-4.4-3.3 0-5 1.3-5 4h-5.1v-.4a7.4 7.4 0 0 1 2.7-6c1.8-1.4 4.3-2.1 7.3-2.1 3.1 0 5.6.8 7.3 2.3s2.6 3.6 2.6 6.3v14.7h-5.2zm0-9.5h-6.1c-2.6 0-3.9 1-3.9 3 0 .8.2 1.4.7 1.9.5.4 1.2.7 2 .7 1.2 0 2.5-.4 4-1.1l3.3-1.8v-2.7zm-32.8-3.9v13.4h-5.8V135h20.9v5.1h-15.1v8.7h13.8v5.1z"/><path class="AA" d="M595.3 114c-4.1 0-7.3-1-9.6-3s-3.5-4.9-3.5-8.8V86.4H577v-6.7h5.2v-9.3h8.1v9.3h9.5v6.7h-9.5v15.4c0 2 .5 3.3 1.4 4.2.9.8 2.3 1.2 4.3 1.2h4v6.8h-4.7zm-23.1-10.8c0 3.5-1.4 6.2-4.1 8.3s-6.4 3.1-10.9 3.1-8.2-1.2-11-3.5-4.2-5.6-4.2-9.7v-8.1c0-4.3 1.4-7.7 4.2-10.3 2.8-2.5 6.5-3.8 10.9-3.8 4.6 0 8.2 1.3 11 3.8s4.1 6 4.1 10.4v6.1h-22.8v1.7c0 2.3.7 4.1 2.1 5.3s3.3 1.8 5.6 1.8c5 0 7.4-1.8 7.4-5.3h7.6v.2zm-7.3-10c0-2.4-.7-4.3-2-5.6s-3.2-2-5.6-2-4.3.7-5.7 2-2.1 3.2-2.1 5.6v.8h15.4v-.8zM526.8 114V91.4a5.6 5.6 0 0 0-1.2-3.6c-.8-1-1.9-1.5-3.4-1.5-1.3 0-2.8.5-4.5 1.5l-5 3V114h-7.9V79.6h7.8v4l3.6-2.2a15.3 15.3 0 0 1 7.6-2.2c3.3 0 6 1 7.9 3.1 1.9 2 2.9 4.7 2.9 8.1V114h-7.8zm-47 0V79.6h7.9v4.9l1.5-1.5c2.6-2.4 5.4-3.6 8.5-3.6h2v8h-2a11.7 11.7 0 0 0-7.2 2.3l-2.7 2.2v22h-8zm-7.5-10.8c0 3.5-1.4 6.2-4.1 8.3s-6.4 3.1-10.9 3.1-8.2-1.2-11-3.5-4.2-5.6-4.2-9.7v-8.1c0-4.3 1.4-7.7 4.2-10.3 2.8-2.5 6.5-3.8 10.9-3.8 4.6 0 8.2 1.3 11 3.8s4.1 6 4.1 10.4v6.1h-22.8v1.7c0 2.3.7 4.1 2.1 5.3s3.3 1.8 5.6 1.8c5 0 7.4-1.8 7.4-5.3h7.6v.2zm-7.4-10c0-2.4-.7-4.3-2-5.6s-3.2-2-5.6-2-4.3.7-5.7 2-2.1 3.2-2.1 5.6v.8h15.4v-.8zM433.2 114c-4.1 0-7.3-1-9.6-3s-3.5-4.9-3.5-8.8V86.4h-5.2v-6.7h5.2v-9.3h8.1v9.3h9.5v6.7h-9.5v15.4c0 2 .5 3.3 1.4 4.2.9.8 2.3 1.2 4.3 1.2h4v6.8h-4.7zm-30.8 0V91.4a5.6 5.6 0 0 0-1.2-3.6c-.8-1-1.9-1.5-3.4-1.5-1.3 0-2.8.5-4.5 1.5l-5 3V114h-7.9V79.6h7.8v4l3.6-2.2a15.3 15.3 0 0 1 7.6-2.2c3.3 0 6 1 7.9 3.1 1.9 2 2.9 4.7 2.9 8.1V114h-7.8zm-39.6-48.5h8.9V114h-8.9zM328.2 114v-4l-3.6 2c-3.1 1.7-6.1 2.5-9.1 2.5s-5.5-.9-7.4-2.7-2.8-4.2-2.8-7.1c0-3.4 1.2-6 3.6-7.8s5.4-2.7 9.2-2.7h10.2v-2c0-4.4-2.3-6.6-7-6.6-5 0-7.4 2-7.4 6h-7.7v-.5c0-3.8 1.4-6.8 4.1-8.9s6.4-3.2 10.9-3.2c4.7 0 8.3 1.1 10.9 3.4s3.9 5.4 3.9 9.5V114h-7.8zm0-14.2H319c-3.9 0-5.9 1.5-5.9 4.5 0 1.2.4 2.2 1.1 2.8.7.7 1.7 1 3 1 1.8 0 3.8-.6 5.9-1.7l5-2.7v-3.9zM281.6 114V79.6h7.9v4.9L291 83c2.6-2.4 5.4-3.6 8.5-3.6h2v8h-2a11.7 11.7 0 0 0-7.2 2.3l-2.7 2.2v22h-8zm-15.5 0v-4l-3.6 2c-3.1 1.7-6.1 2.5-9.1 2.5s-5.5-.9-7.4-2.7-2.8-4.2-2.8-7.1c0-3.4 1.2-6 3.6-7.8s5.4-2.7 9.2-2.7h10.2v-2c0-4.4-2.3-6.6-7-6.6-5 0-7.4 2-7.4 6H244v-.5c0-3.8 1.4-6.8 4.1-8.9S254.5 79 259 79c4.7 0 8.3 1.1 10.9 3.4s3.9 5.4 3.9 9.5V114h-7.7zm0-14.2H257c-3.9 0-5.9 1.5-5.9 4.5 0 1.2.4 2.2 1.1 2.8.7.7 1.7 1 3 1 1.8 0 3.8-.6 5.9-1.7l5-2.7v-3.9zM205.9 126V79.6h7.7v3.7l4-2.2c2.5-1.3 5.1-2 7.7-2 3.5 0 6.4 1.1 8.6 3.3s3.3 5 3.3 8.5v11.5c0 3.5-1.1 6.4-3.3 8.6s-5.1 3.3-8.7 3.3c-2.5 0-5-.7-7.6-2l-3.9-2.1V126h-7.8zm23.4-34.1c0-1.7-.5-3.1-1.5-4.1s-2.3-1.5-3.9-1.5-3.2.4-4.8 1.3l-5.4 3.1V103l5.4 3a9.8 9.8 0 0 0 4.8 1.4c1.6 0 2.9-.5 3.9-1.5s1.5-2.4 1.5-4.1v-9.9zM478 29.6c0-3.6-2.3-5.3-7-5.3-2.1 0-3.8.4-5 1.2s-1.8 1.8-1.8 3.1c0 1.4.7 2.5 2.2 3.1s3.3 1.1 5.4 1.3 4.2.5 6.4.9 3.9 1.3 5.4 2.8c1.5 1.4 2.2 3.5 2.2 6.1 0 3.3-1.3 6-4 7.9s-6.3 2.8-10.9 2.8c-4.7 0-8.4-1-11-3s-3.9-4.7-3.9-8.2v-.4h8c0 3.6 2.4 5.3 7.2 5.3 2.2 0 3.9-.4 5.2-1.2 1.2-.8 1.9-1.8 1.9-3.1 0-1.1-.5-1.9-1.6-2.5a9.4 9.4 0 0 0-4-1.1c-1.6-.1-3.3-.4-5.2-.7a39.5 39.5 0 0 1-5.2-1.3c-1.6-.5-2.9-1.5-4-3-1.1-1.4-1.6-3.3-1.6-5.5a9.3 9.3 0 0 1 3.9-7.9c2.6-1.9 6.2-2.9 10.7-2.9 4.6 0 8.2 1 10.8 3s3.8 4.8 3.8 8.3v.4H478zm-36.3 23.2v-4l-3.6 2c-3.1 1.7-6.1 2.5-9.1 2.5s-5.5-.9-7.4-2.7-2.8-4.2-2.8-7.1c0-3.4 1.2-6 3.6-7.8s5.4-2.7 9.2-2.7h10.2v-2c0-4.4-2.3-6.6-7-6.6-5 0-7.4 2-7.4 6h-7.7v-.5c0-3.8 1.4-6.8 4.1-8.9s6.4-3.2 10.9-3.2c4.7 0 8.3 1.1 10.9 3.4s3.9 5.4 3.9 9.5v22.1h-7.8zm0-14.2h-9.1c-3.9 0-5.9 1.5-5.9 4.5 0 1.2.4 2.2 1.1 2.8.7.7 1.7 1 3 1 1.8 0 3.8-.6 5.9-1.7l5-2.7v-3.9zm-37.6 14.2V29.4c0-2.8-1.2-4.2-3.6-4.2-1.1 0-2.5.5-4.1 1.4l-4.2 2.5v23.7h-7.9V29.5c0-2.8-1.2-4.2-3.6-4.2-1.1 0-2.5.4-4.2 1.3l-4.1 2.5v23.7h-7.9V18.4h7.8V22l3.1-1.8a13.9 13.9 0 0 1 7.2-2.1c4 0 6.7 1.5 8.1 4.6l3.8-2.3c2.5-1.6 5.1-2.3 7.9-2.3 3 0 5.3.9 7 2.7s2.5 4.4 2.5 7.7v24.2h-7.8zM357 42c0 3.5-1.4 6.2-4.1 8.3s-6.4 3.1-10.9 3.1-8.2-1.2-11-3.5-4.2-5.6-4.2-9.7V32c0-4.3 1.4-7.7 4.2-10.3 2.8-2.5 6.5-3.8 10.9-3.8 4.6 0 8.2 1.3 11 3.8s4.1 6 4.1 10.4v6.1h-22.8v1.7c0 2.3.7 4.1 2.1 5.3s3.3 1.8 5.6 1.8c5 0 7.4-1.8 7.4-5.3h7.6v.3zm-7.3-10c0-2.4-.7-4.3-2-5.6s-3.2-2-5.6-2-4.3.7-5.7 2-2.1 3.2-2.1 5.6v.8h15.4V32zm-31.8 20.8c-4.1 0-7.3-1-9.6-3s-3.5-4.9-3.5-8.8V25.1h-5.2v-6.7h5.2V9.1h8.1v9.3h9.5v6.7h-9.5v15.4c0 2 .5 3.3 1.4 4.2.9.8 2.3 1.2 4.3 1.2h4v6.8h-4.7zm-30.4-23.2c0-3.6-2.3-5.3-7-5.3-2.1 0-3.8.4-5 1.2s-1.8 1.8-1.8 3.1c0 1.4.7 2.5 2.2 3.1s3.3 1.1 5.4 1.3 4.2.5 6.4.9c2.1.4 3.9 1.3 5.4 2.8 1.5 1.4 2.2 3.5 2.2 6.1 0 3.3-1.3 6-4 7.9s-6.3 2.8-10.9 2.8c-4.7 0-8.4-1-11-3s-3.9-4.7-3.9-8.2v-.4h8c0 3.6 2.4 5.3 7.2 5.3 2.2 0 3.9-.4 5.2-1.2 1.2-.8 1.9-1.8 1.9-3.1 0-1.1-.5-1.9-1.6-2.5a9.4 9.4 0 0 0-4-1.1c-1.6-.1-3.3-.4-5.2-.7a39.5 39.5 0 0 1-5.2-1.3c-1.6-.5-2.9-1.5-4-3-1.1-1.4-1.6-3.3-1.6-5.5a9.3 9.3 0 0 1 3.9-7.9c2.6-1.9 6.2-2.9 10.7-2.9 4.6 0 8.2 1 10.8 3 2.5 2 3.8 4.8 3.8 8.3v.4h-7.9zm-37.2-11.2h8.1v34.3h-8.1zm8.5-9.2c0 1.2-.4 2.1-1.2 2.7a5.4 5.4 0 0 1-3.3 1c-1.3 0-2.4-.3-3.2-1s-1.3-1.6-1.3-2.7V7.7c0-1.2.4-2.2 1.3-2.8.8-.7 1.9-1 3.2-1s2.4.3 3.3 1 1.2 1.6 1.2 2.8v1.5zM233.5 19c0-5.3-3.2-8-9.5-8-3 0-5.3.6-6.9 1.8s-2.4 2.9-2.4 5c0 1.6.5 2.8 1.5 3.7s2.4 1.6 4 2.1l5.5 1.1a42.9 42.9 0 0 1 6 1.3 24.1 24.1 0 0 1 5.5 2.1c1.7.9 3 2.2 4 4s1.5 4 1.5 6.6c0 4.5-1.7 8.1-5.1 10.7s-7.9 3.9-13.7 3.9c-6 0-10.6-1.3-13.8-3.8-3.3-2.5-4.9-6.3-4.9-11.2v-.5h8.9c0 5.4 3.3 8.1 10 8.1 3.1 0 5.5-.6 7.2-1.8a5.6 5.6 0 0 0 2.5-4.9c0-1.5-.5-2.8-1.5-3.7-1-1-2.4-1.7-4-2.1l-5.5-1.1a64.3 64.3 0 0 1-6-1.3 24.1 24.1 0 0 1-5.5-2.1c-1.7-.9-3-2.2-4-4s-1.5-4-1.5-6.7c0-4.5 1.6-8 4.9-10.6s7.7-3.9 13.3-3.9c5.8 0 10.3 1.2 13.6 3.7 3.2 2.5 4.8 6.2 4.8 11.2v.4h-8.9zm-54.4 125.7a34.4 34.4 0 0 1-34.4 34.4H31c-17.1 0-31-13.9-31-31s13.9-31 31-31c1.2 0 2.3.1 3.5.2v-.2a34.4 34.4 0 0 1 34.4-34.4 35.2 35.2 0 0 1 10.3 1.6c6-13.1 19.1-22.2 34.5-22.2 20.9 0 37.9 17 37.9 37.9 0 3.7-.6 7.4-1.6 10.8 16.5 2.4 29.1 16.7 29.1 33.9zm-34.4-27.6c-1.9 0-3.8.2-5.6.6a31.1 31.1 0 0 0 5.6-17.8c0-17.1-13.9-31-31-31a31 31 0 0 0-30.4 24.8 27.2 27.2 0 0 0-14.4-4.1 27.6 27.6 0 0 0-27.6 27.6 27 27 0 0 0 2 10.3c-3.6-2.2-7.8-3.4-12.3-3.4a24.1 24.1 0 0 0 0 48.2h113.7a27.6 27.6 0 0 0 27.6-27.6c-.1-15.3-12.4-27.6-27.6-27.6zm-124-13.8h6.9v6.9h-6.9zm0-13.7h6.9v6.9h-6.9zm0-13.8h6.9v6.9h-6.9zm137.7 20.6h6.9v6.9h-6.9zm0-13.7h6.9v6.9h-6.9zm0-13.8h6.9v6.9h-6.9zm0-13.8h6.9V62h-6.9zM41.3 0H6.9A6.9 6.9 0 0 0 0 6.9V62a6.9 6.9 0 0 0 6.9 6.9h34.4a6.9 6.9 0 0 0 6.9-6.9V6.9A6.9 6.9 0 0 0 41.3 0zM24.1 65.4c-1.9 0-3.4-1.5-3.4-3.4s1.5-3.4 3.4-3.4 3.4 1.5 3.4 3.4c.1 1.9-1.5 3.4-3.4 3.4zm13.8-10.3H10.3c-1.9 0-3.4-1.5-3.4-3.4V10.3c0-1.9 1.5-3.4 3.4-3.4h27.6c1.9 0 3.4 1.5 3.4 3.4v41.3a3.4 3.4 0 0 1-3.4 3.5zM82.7 62a6.9 6.9 0 0 1-13.8 0 6.9 6.9 0 1 1 13.8 0zm-6.9-3.4c-1.9 0-3.4 1.5-3.4 3.4s1.5 3.4 3.4 3.4 3.4-1.5 3.4-3.4-1.5-3.4-3.4-3.4zm0-13.8a10.3 10.3 0 1 1-20.6 0 10.3 10.3 0 0 1 20.6 0zm-10.4-5.2c-2.9 0-5.2 2.3-5.2 5.2s2.3 5.2 5.2 5.2 5.2-2.3 5.2-5.2-2.3-5.2-5.2-5.2zm31-22.4a17.2 17.2 0 0 1-34.4 0A17.2 17.2 0 0 1 79.2 0a17.2 17.2 0 0 1 17.2 17.2zM79.2 6.9a10.3 10.3 0 0 0-10.3 10.3 10.3 10.3 0 0 0 20.6 0A10.3 10.3 0 0 0 79.2 6.9zm93 41.3h-62a6.9 6.9 0 0 1-6.9-6.9V6.9a6.9 6.9 0 0 1 6.9-6.9h62a6.9 6.9 0 0 1 6.9 6.9v34.4a6.9 6.9 0 0 1-6.9 6.9zm0-10.3V10.3c0-1.9-1.5-3.4-3.4-3.4h-55.1c-1.9 0-3.4 1.5-3.4 3.4v27.6c0 1.9 1.5 3.4 3.4 3.4h55.1c1.9 0 3.4-1.5 3.4-3.4z"/></svg>