<svg xmlns="http://www.w3.org/2000/svg" viewBox="0 0 600 196.3" style="enable-background:new 0 0 600 196.3;"><style><![CDATA[.AM{fill:#00648c}.S{fill:#4a555c}]]></style><path class="S" d="M478.5 189.4v-2.2l-2 1.1c-1.7.9-3.4 1.4-5 1.4-1.7 0-3-.5-4.1-1.5-1-1-1.6-2.3-1.6-3.9a5.1 5.1 0 0 1 2-4.3c1.3-1 3-1.5 5.1-1.5h5.7v-1.1c0-2.4-1.3-3.6-3.9-3.6-2.7 0-4.1 1.1-4.1 3.3h-4.3v-.3a5.8 5.8 0 0 1 2.3-4.9c1.5-1.2 3.5-1.8 6.1-1.8s4.6.6 6 1.9c1.4 1.2 2.1 3 2.1 5.3v12.2h-4.3zm0-7.9h-5c-2.2 0-3.2.8-3.2 2.5 0 .7.2 1.2.6 1.6s1 .6 1.7.6c1 0 2.1-.3 3.3-.9l2.7-1.5v-2.3zm-29.1 1a1.1 1.1 0 0 0-1.3 1.3c0 .8.4 1.2 1.2 1.2h7.4c4.5 0 6.8 1.7 6.8 5.2 0 1.9-.8 3.5-2.4 4.5-1.6 1.1-3.7 1.6-6.3 1.6-5.6 0-8.5-2.4-8.5-7.2v-1.9c-1.2-.6-1.9-1.7-1.9-3.4 0-1 .2-1.8.7-2.4a4.3 4.3 0 0 1 1.9-1.3l-.4-.4c-.2-.2-.4-.6-.6-1.2-.3-.6-.4-1.3-.4-2.1 0-2 .6-3.5 1.9-4.5s3-1.6 5.1-1.6h11v3.7h-2.7c.6.5.9 1.4.9 2.6 0 1.8-.6 3.2-1.9 4.3-1.2 1-2.9 1.6-5 1.6h-5.5zm4.9-3.2c2.4 0 3.6-.9 3.6-2.8s-1.1-2.8-3.2-2.8H453a4.4 4.4 0 0 0-2.5.6c-.6.4-.8 1.2-.8 2.2 0 1.8 1.1 2.7 3.2 2.7h1.4zm-4.1 8.9v.8c0 1.4.3 2.4 1 3 .7.7 1.8 1 3.5 1 3.1 0 4.6-.9 4.6-2.7 0-1.4-1.1-2.1-3.2-2.1h-5.9zm-13.4 1.2v-12.5c0-.8-.2-1.5-.6-2s-1.1-.8-1.9-.8c-.7 0-1.6.3-2.5.8l-2.8 1.7v12.8h-4.4v-19h4.3v2.2l2-1.2c1.2-.8 2.7-1.2 4.2-1.2 1.9 0 3.3.6 4.4 1.7s1.6 2.6 1.6 4.5v13.1h-4.3zm-21.3-19h4.5v19h-4.5zm4.8-5.1c0 .6-.2 1.2-.7 1.5-.5.4-1.1.5-1.8.5s-1.3-.2-1.8-.5a1.8 1.8 0 0 1-.7-1.5v-.8c0-.7.2-1.2.7-1.6s1.1-.5 1.8-.5 1.3.2 1.8.5c.5.4.7.9.7 1.6v.8zm-10.8 24.1c-2.3 0-4-.6-5.3-1.7s-1.9-2.7-1.9-4.8v-8.8h-2.9v-3.7h2.9v-5.2h4.5v5.2h5.3v3.7h-5.3v8.5c0 1.1.3 1.8.8 2.3s1.3.7 2.4.7h2.2v3.8h-2.7zm-17.7-19h4.5v19h-4.5zm4.7-5.1c0 .6-.2 1.2-.7 1.5-.5.4-1.1.5-1.8.5s-1.3-.2-1.8-.5a1.8 1.8 0 0 1-.7-1.5v-.8c0-.7.2-1.2.7-1.6s1.1-.5 1.8-.5 1.3.2 1.8.5c.5.4.7.9.7 1.6v.8zm-18.6 24.1v-19h4.4v2.7l.8-.8c1.4-1.3 3-2 4.7-2h1.1v4.4h-1.1a6.2 6.2 0 0 0-4 1.3l-1.5 1.2v12.2h-4.4zm-8.6 0v-2.2l-2 1.1c-1.7.9-3.4 1.4-5 1.4-1.7 0-3-.5-4.1-1.5-1-1-1.6-2.3-1.6-3.9a5.1 5.1 0 0 1 2-4.3c1.3-1 3-1.5 5.1-1.5h5.7v-1.1c0-2.4-1.3-3.6-3.9-3.6-2.7 0-4.1 1.1-4.1 3.3h-4.3v-.3a5.8 5.8 0 0 1 2.3-4.9c1.5-1.2 3.5-1.8 6.1-1.8s4.6.6 6 1.9c1.4 1.2 2.1 3 2.1 5.3v12.2h-4.3zm0-7.9h-5c-2.2 0-3.2.8-3.2 2.5 0 .7.2 1.2.6 1.6s1 .6 1.7.6c1 0 2.1-.3 3.3-.9l2.7-1.5v-2.3zm-20.8 7.9v-2.2l-2 1.2c-1.3.8-2.7 1.2-4.2 1.2-1.9 0-3.3-.6-4.4-1.7s-1.6-2.6-1.6-4.5v-13.1h4.4v12.5c0 .8.2 1.5.7 2a2.5 2.5 0 0 0 1.8.8c.7 0 1.5-.3 2.5-.8l2.8-1.6v-12.8h4.4v19h-4.4zm-21 6.6v-8.7l-2.2 1.2c-1.4.7-2.8 1.1-4.3 1.1a6.4 6.4 0 0 1-6.5-6.5v-6.4a6.8 6.8 0 0 1 1.8-4.8c1.2-1.2 2.8-1.8 4.8-1.8a9.4 9.4 0 0 1 4.2 1.1l2.2 1.2v-2.1h4.3V196h-4.3zm0-19.5l-3-1.7c-.9-.5-1.8-.7-2.7-.7a3.3 3.3 0 0 0-2.2.8c-.5.6-.8 1.3-.8 2.3v5.4c0 .9.3 1.7.8 2.3s1.3.8 2.2.8a5.6 5.6 0 0 0 2.7-.8l3-1.7v-6.7zm-21.1 12.9v-2.2l-2 1.1c-1.7.9-3.4 1.4-5 1.4-1.7 0-3-.5-4.1-1.5-1-1-1.6-2.3-1.6-3.9a5.1 5.1 0 0 1 2-4.3c1.3-1 3-1.5 5.1-1.5h5.7v-1.1c0-2.4-1.3-3.6-3.9-3.6-2.7 0-4.1 1.1-4.1 3.3h-4.3v-.3a5.8 5.8 0 0 1 2.3-4.9c1.5-1.2 3.5-1.8 6.1-1.8s4.6.6 6 1.9c1.4 1.2 2.1 3 2.1 5.3v12.2h-4.3zm0-7.9h-5c-2.2 0-3.2.8-3.2 2.5 0 .7.2 1.2.6 1.6s1 .6 1.7.6c1 0 2.1-.3 3.3-.9l2.7-1.5v-2.3zm-24.9 7.9v-22.6h-7.6v-4.2h20.2v4.2h-7.6v22.6zm-20.9-6.9c0 2.3-.7 4.1-2.2 5.4-1.5 1.2-3.5 1.9-6 1.9s-4.5-.7-6-2-2.2-3.1-2.2-5.5v-4.7c0-2.3.7-4.2 2.2-5.5s3.5-2 5.9-2c2.5 0 4.5.6 6 1.9s2.2 3.1 2.2 5.4v.3h-4.2c0-2.5-1.3-3.8-4-3.8-2.6 0-3.9 1.3-3.9 4v4c0 2.7 1.3 4 3.9 4 2.7 0 4-1.3 4-3.8h4.2v.4zm-20.2.9a5.5 5.5 0 0 1-2.3 4.6c-1.5 1.1-3.5 1.7-6.1 1.7-2.5 0-4.5-.6-6.1-1.9s-2.3-3.1-2.3-5.4v-4.5c0-2.4.8-4.3 2.3-5.7 1.6-1.4 3.6-2.1 6.1-2.1s4.5.7 6.1 2.1c1.5 1.4 2.3 3.3 2.3 5.8v3.4h-12.6v.9c0 1.3.4 2.3 1.2 2.9a5 5 0 0 0 3.1 1c2.7 0 4.1-1 4.1-2.9h4.2v.1zm-4.1-5.5c0-1.3-.4-2.4-1.1-3.1s-1.8-1.1-3.1-1.1-2.4.4-3.2 1.1-1.1 1.8-1.1 3.1v.5h8.5v-.5zm-17.6 11.5c-2.3 0-4-.6-5.3-1.7s-1.9-2.7-1.9-4.8v-8.8h-2.9v-3.7h2.9v-5.2h4.5v5.2h5.3v3.7H216v8.5c0 1.1.3 1.8.8 2.3s1.3.7 2.4.7h2.2v3.8h-2.7zm-16.8 0v-2.2l-2 1.1c-1.7.9-3.4 1.4-5 1.4-1.7 0-3-.5-4.1-1.5-1-1-1.6-2.3-1.6-3.9a5.1 5.1 0 0 1 2-4.3c1.3-1 3-1.5 5.1-1.5h5.7v-1.1c0-2.4-1.3-3.6-3.9-3.6-2.7 0-4.1 1.1-4.1 3.3h-4.3v-.3a5.8 5.8 0 0 1 2.3-4.9c1.5-1.2 3.5-1.8 6.1-1.8s4.6.6 6 1.9c1.4 1.2 2.1 3 2.1 5.3v12.2h-4.3zm0-7.9h-5c-2.2 0-3.2.8-3.2 2.5 0 .7.2 1.2.6 1.6s1 .6 1.7.6c1 0 2.1-.3 3.3-.9l2.7-1.5v-2.3zm-27.2-3.2v11.1h-4.8v-26.8h17.4v4.2h-12.6v7.2h11.5v4.3z"/><path class="AM" d="M475 125.9c0-3-1.9-4.4-5.8-4.4-1.8 0-3.1.3-4.1 1-1 .6-1.5 1.5-1.5 2.5 0 1.2.6 2 1.8 2.6 1.2.5 2.7.9 4.5 1.1 1.7.2 3.5.4 5.3.8a8.1 8.1 0 0 1 4.5 2.3c1.2 1.2 1.8 2.9 1.8 5 0 2.8-1.1 4.9-3.3 6.5s-5.2 2.4-9 2.4c-3.9 0-7-.8-9.2-2.5-2.2-1.6-3.3-3.9-3.3-6.8v-.3h6.6c0 3 2 4.4 5.9 4.4 1.8 0 3.3-.3 4.3-1 1-.6 1.5-1.5 1.5-2.5 0-.9-.4-1.6-1.3-2.1a8 8 0 0 0-3.3-.9c-1.3-.1-2.8-.3-4.3-.6s-3-.7-4.3-1.1a7.3 7.3 0 0 1-3.3-2.5c-.9-1.2-1.3-2.7-1.3-4.5 0-2.8 1.1-5 3.2-6.5 2.2-1.6 5.1-2.4 8.9-2.4 3.9 0 6.8.8 8.9 2.5s3.1 3.9 3.1 6.9v.3H475zm-30.1 19.2v-3.3l-3 1.6c-2.6 1.4-5.1 2.1-7.5 2.1-2.5 0-4.6-.7-6.1-2.2s-2.4-3.5-2.4-5.9c0-2.8 1-5 2.9-6.5 2-1.5 4.5-2.2 7.6-2.2h8.5V127c0-3.6-1.9-5.5-5.8-5.5-4.1 0-6.2 1.7-6.2 5h-6.4v-.4c0-3.2 1.1-5.6 3.4-7.4s5.3-2.7 9.1-2.7c3.9 0 6.9.9 9.1 2.8s3.2 4.5 3.2 7.9V145h-6.4zm0-11.8h-7.6c-3.2 0-4.9 1.2-4.9 3.7 0 1 .3 1.8.9 2.4s1.4.8 2.5.8c1.5 0 3.2-.5 4.9-1.4l4.1-2.2v-3.3zm-31.2 11.8v-19.4c0-2.3-1-3.5-3-3.5-.9 0-2 .4-3.4 1.1l-3.5 2.1V145h-6.5v-19.3c0-2.3-1-3.5-3-3.5-.9 0-2.1.4-3.5 1.1l-3.4 2.1V145h-6.5v-28.5h6.4v3l2.5-1.5c1.9-1.2 3.9-1.7 6-1.7 3.3 0 5.6 1.3 6.8 3.8l3.1-1.9a12.2 12.2 0 0 1 6.5-1.9c2.5 0 4.4.8 5.8 2.3s2.1 3.6 2.1 6.4v20.1h-6.4zm-39.1-8.9c0 2.9-1.1 5.2-3.4 6.9s-5.3 2.6-9.1 2.6c-3.7 0-6.8-1-9.1-2.9s-3.5-4.6-3.5-8.1v-6.8c0-3.6 1.2-6.4 3.5-8.5s5.4-3.2 9.1-3.2c3.8 0 6.8 1 9.1 3.1s3.4 5 3.4 8.7v5h-18.9v1.4c0 1.9.6 3.4 1.8 4.4s2.7 1.5 4.7 1.5c4.1 0 6.2-1.5 6.2-4.4h6.3v.3zm-6.1-8.3c0-2-.6-3.6-1.7-4.7s-2.7-1.6-4.7-1.6-3.6.5-4.7 1.6-1.7 2.7-1.7 4.7v.7h12.8v-.7zm-26.3 17.2c-3.4 0-6-.8-8-2.5-1.9-1.7-2.9-4.1-2.9-7.3v-13.1H327v-5.6h4.3v-7.7h6.7v7.7h7.9v5.6H338V135c0 1.6.4 2.8 1.1 3.5.8.7 1.9 1 3.6 1h3.4v5.7h-3.9zm-25.3-19.2c0-3-1.9-4.4-5.8-4.4-1.8 0-3.1.3-4.1 1-1 .6-1.5 1.5-1.5 2.5 0 1.2.6 2 1.8 2.6 1.2.5 2.7.9 4.5 1.1 1.7.2 3.5.4 5.3.8a8.1 8.1 0 0 1 4.5 2.3c1.2 1.2 1.8 2.9 1.8 5 0 2.8-1.1 4.9-3.3 6.5s-5.2 2.4-9 2.4c-3.9 0-7-.8-9.2-2.5-2.2-1.6-3.3-3.9-3.3-6.8v-.3h6.6c0 3 2 4.4 5.9 4.4 1.8 0 3.3-.3 4.3-1 1-.6 1.5-1.5 1.5-2.5 0-.9-.4-1.6-1.3-2.1a8 8 0 0 0-3.3-.9 36.9 36.9 0 0 1-4.3-.6c-1.5-.3-3-.7-4.3-1.1a7.3 7.3 0 0 1-3.3-2.5c-.9-1.2-1.3-2.7-1.3-4.5 0-2.8 1.1-5 3.2-6.5 2.2-1.6 5.1-2.4 8.9-2.4 3.9 0 6.8.8 8.9 2.5s3.1 3.9 3.1 6.9v.3h-6.3zm-30.9-9.3h6.7v28.5H286zm7.1-7.6c0 1-.3 1.7-1 2.3s-1.6.8-2.7.8-2-.3-2.7-.8-1.1-1.3-1.1-2.3v-1.2c0-1 .4-1.8 1.1-2.3s1.6-.8 2.7-.8 2 .3 2.7.8 1 1.3 1 2.3v1.2zm-21 8.1c0-4.4-2.6-6.7-7.9-6.7-2.5 0-4.4.5-5.7 1.5s-2 2.4-2 4.1c0 1.3.4 2.3 1.3 3.1.8.8 2 1.3 3.3 1.7 1.4.4 2.9.7 4.5.9 1.7.3 3.3.6 5 1.1a18.3 18.3 0 0 1 4.5 1.7 7.5 7.5 0 0 1 3.3 3.3c.8 1.5 1.3 3.3 1.3 5.5 0 3.8-1.4 6.7-4.2 8.9s-6.6 3.2-11.4 3.2c-4.9 0-8.8-1-11.5-3.1s-4.1-5.2-4.1-9.3v-.4h7.4c0 4.5 2.8 6.7 8.3 6.7 2.6 0 4.6-.5 6-1.5a4.8 4.8 0 0 0 2.1-4.1c0-1.3-.4-2.3-1.3-3.1-.8-.8-2-1.4-3.3-1.7-1.4-.4-2.9-.7-4.5-.9-1.7-.3-3.3-.6-5-1.1-1.7-.4-3.2-1-4.5-1.8-1.4-.7-2.5-1.9-3.3-3.4s-1.3-3.3-1.3-5.5c0-3.7 1.4-6.7 4.1-8.8 2.7-2.2 6.4-3.2 11.1-3.2 4.8 0 8.6 1 11.3 3.1s4 5.2 4 9.3v.5h-7.5zm-44.7 19.1c0 2.9-1.1 5.2-3.4 6.9s-5.3 2.6-9.1 2.6c-3.7 0-6.8-1-9.1-2.9s-3.5-4.6-3.5-8.1v-6.8c0-3.6 1.2-6.4 3.5-8.5s5.4-3.2 9.1-3.2c3.8 0 6.8 1 9.1 3.1s3.4 5 3.4 8.7v5h-18.9v1.4c0 1.9.6 3.4 1.8 4.4s2.7 1.5 4.7 1.5c4.1 0 6.2-1.5 6.2-4.4h6.3v.3zm-6.1-8.3c0-2-.6-3.6-1.7-4.7s-2.7-1.6-4.7-1.6-3.6.5-4.7 1.6-1.7 2.7-1.7 4.7v.7h12.8v-.7zm-31.6 17.2V142l-3.3 1.8c-2 1.1-4.1 1.7-6.4 1.7-2.9 0-5.3-.9-7.1-2.7s-2.7-4.1-2.7-7.1v-9.6c0-2.9.9-5.2 2.8-7.1 1.8-1.8 4.2-2.8 7.1-2.8 2.2 0 4.3.6 6.3 1.7l3.2 1.8v-14.9h6.4V145h-6.3zm0-19.3l-4.5-2.5c-1.3-.7-2.7-1.1-4-1.1-1.4 0-2.5.4-3.3 1.3a4.7 4.7 0 0 0-1.2 3.4v8.1a4.7 4.7 0 0 0 1.2 3.4 4.5 4.5 0 0 0 3.3 1.3c1.3 0 2.6-.4 4-1.1l4.5-2.5v-10.3zM600 83.3c0 3.5-1.2 6.4-3.6 8.5s-5.5 3.2-9.3 3.2-6.9-1.1-9.3-3.2-3.6-4.9-3.6-8.5v-6.2c0-3.6 1.2-6.4 3.6-8.5s5.5-3.2 9.3-3.2 6.9 1.1 9.3 3.2 3.6 4.9 3.6 8.5v6.2zm-6.3-5.6c0-2.1-.6-3.7-1.8-4.9s-2.8-1.8-4.8-1.8-3.6.6-4.8 1.8-1.8 2.8-1.8 4.9v4.9c0 2.1.6 3.7 1.8 4.9s2.8 1.8 4.8 1.8 3.6-.6 4.8-1.8 1.8-2.8 1.8-4.9v-4.9zm-26.8 16.6c-3.4 0-6-.8-8-2.5-1.9-1.7-2.9-4.1-2.9-7.3V71.4h-4.3v-5.6h4.3v-7.7h6.7v7.7h7.9v5.6h-7.9v12.8c0 1.6.4 2.8 1.1 3.5.8.7 1.9 1 3.6 1h3.4v5.7h-3.9zm-25.6 0V75.6c0-1.2-.3-2.2-1-3s-1.6-1.2-2.8-1.2c-1.1 0-2.3.4-3.7 1.2l-4.2 2.5v19.2h-6.5V65.8h6.5v3.4l3-1.8c1.9-1.2 4-1.8 6.3-1.8 2.8 0 5 .8 6.6 2.5s2.4 3.9 2.4 6.7v19.6h-6.6zm-24.5-8.9c0 2.9-1.1 5.2-3.4 6.9s-5.3 2.6-9.1 2.6c-3.7 0-6.8-1-9.1-2.9s-3.5-4.6-3.5-8.1v-6.8c0-3.6 1.2-6.4 3.5-8.5s5.4-3.2 9.1-3.2c3.8 0 6.8 1 9.1 3.1s3.4 5 3.4 8.7v5H498v1.4c0 1.9.6 3.4 1.8 4.4s2.7 1.5 4.7 1.5c4.1 0 6.2-1.5 6.2-4.4h6.3v.3zm-6.1-8.3c0-2-.6-3.6-1.7-4.7s-2.7-1.6-4.7-1.6-3.6.5-4.7 1.6-1.7 2.7-1.7 4.7v.7h12.8v-.7zm-31.6 17.2V75c0-2.3-1-3.5-3-3.5-.9 0-2 .4-3.4 1.1l-3.5 2.1v19.6h-6.5V75c0-2.3-1-3.5-3-3.5-.9 0-2.1.4-3.5 1.1l-3.4 2.1v19.6h-6.5V65.8h6.4v3l2.5-1.5c1.9-1.2 3.9-1.7 6-1.7 3.3 0 5.6 1.3 6.8 3.8l3.1-1.9a12.2 12.2 0 0 1 6.5-1.9c2.5 0 4.4.8 5.8 2.3s2.1 3.6 2.1 6.4v20.1h-6.4zm-46.5-28.5h6.7v28.5h-6.7zm7.1-7.6c0 1-.3 1.7-1 2.3-.7.5-1.6.8-2.7.8s-2-.3-2.7-.8-1.1-1.3-1.1-2.3V57c0-1 .4-1.8 1.1-2.3s1.6-.8 2.7-.8 2 .3 2.7.8 1 1.3 1 2.3v1.2zM411 94.3l-9.8-28.5h7.1l6.6 21 6.6-21h6.9l-10 28.5zm-20.8-40.2h6.8v40.2h-6.8zM384 83.3c0 3.5-1.2 6.4-3.6 8.5s-5.5 3.2-9.3 3.2-6.9-1.1-9.3-3.2-3.6-4.9-3.6-8.5v-6.2c0-3.6 1.2-6.4 3.6-8.5s5.5-3.2 9.3-3.2 6.9 1.1 9.3 3.2 3.6 4.9 3.6 8.5v6.2zm-6.3-5.6c0-2.1-.6-3.7-1.8-4.9s-2.8-1.8-4.8-1.8-3.6.6-4.8 1.8-1.8 2.8-1.8 4.9v4.9c0 2.1.6 3.7 1.8 4.9s2.8 1.8 4.8 1.8 3.6-.6 4.8-1.8 1.8-2.8 1.8-4.9v-4.9zm-39.3 16.6l-9.9-28.5h7.2l6.6 21 6.6-21h6.8l-9.9 28.5zm-20 0V75.6c0-1.2-.3-2.2-1-3s-1.6-1.2-2.8-1.2c-1.1 0-2.3.4-3.7 1.2l-4.2 2.5v19.2h-6.5V65.8h6.5v3.4l3-1.8c1.9-1.2 4-1.8 6.3-1.8 2.8 0 5 .8 6.6 2.5s2.4 3.9 2.4 6.7v19.6h-6.6zm-24.5-8.9c0 2.9-1.1 5.2-3.4 6.9s-5.3 2.6-9.1 2.6c-3.7 0-6.8-1-9.1-2.9s-3.5-4.6-3.5-8.1v-6.8c0-3.6 1.2-6.4 3.5-8.5s5.4-3.2 9.1-3.2c3.8 0 6.8 1 9.1 3.1s3.4 5 3.4 8.7v5H275v1.4c0 1.9.6 3.4 1.8 4.4s2.7 1.5 4.7 1.5c4.1 0 6.2-1.5 6.2-4.4h6.3v.3zm-6.1-8.3c0-2-.6-3.6-1.7-4.7s-2.7-1.6-4.7-1.6-3.6.5-4.7 1.6-1.7 2.7-1.7 4.7v.7h12.8v-.7zm-30.8-2c0-3-1.9-4.4-5.8-4.4-1.8 0-3.1.3-4.1 1s-1.5 1.5-1.5 2.5c0 1.2.6 2 1.8 2.6 1.2.5 2.7.9 4.5 1.1 1.7.2 3.5.4 5.3.8a8.1 8.1 0 0 1 4.5 2.3c1.2 1.2 1.8 2.9 1.8 5 0 2.8-1.1 4.9-3.3 6.5s-5.2 2.4-9 2.4c-3.9 0-7-.8-9.2-2.5-2.2-1.6-3.3-3.9-3.3-6.8v-.3h6.6c0 3 2 4.4 5.9 4.4 1.8 0 3.3-.3 4.3-1 1-.6 1.5-1.5 1.5-2.5 0-.9-.4-1.6-1.3-2.1a8 8 0 0 0-3.3-.9 36.8 36.8 0 0 1-4.3-.6c-1.5-.3-3-.7-4.3-1.1a7.3 7.3 0 0 1-3.3-2.5c-.9-1.2-1.3-2.7-1.3-4.5 0-2.8 1.1-5 3.2-6.5 2.2-1.6 5.1-2.4 8.9-2.4 3.9 0 6.8.8 8.9 2.5s3.1 3.9 3.1 6.9v.3H257zm-23.5 10.3c0 2.9-1.1 5.2-3.4 6.9s-5.3 2.6-9.1 2.6c-3.7 0-6.8-1-9.1-2.9s-3.5-4.6-3.5-8.1v-6.8c0-3.6 1.2-6.4 3.5-8.5s5.4-3.2 9.1-3.2c3.8 0 6.8 1 9.1 3.1s3.4 5 3.4 8.7v5h-18.9v1.4c0 1.9.6 3.4 1.8 4.4s2.7 1.5 4.7 1.5c4.1 0 6.2-1.5 6.2-4.4h6.3v.3zm-6.1-8.3c0-2-.6-3.6-1.7-4.7s-2.7-1.6-4.7-1.6-3.6.5-4.7 1.6-1.7 2.7-1.7 4.7v.7h12.8v-.7zm-56.2 17.2V54.1H185c5.2 0 9.4 1.4 12.7 4.2s4.9 7.1 4.9 13.1v5.7c0 3-.5 5.7-1.4 8-1 2.3-2.3 4.1-3.9 5.4a17.6 17.6 0 0 1-5.6 2.9c-2.1.6-4.3.9-6.8.9h-13.7zm24.1-22.9c0-7.4-3.5-11-10.4-11h-6.4V88h6.4c7 0 10.4-3.6 10.4-10.9v-5.7zM400 34.6c0 2.9-1.1 5.2-3.4 6.9s-5.3 2.6-9.1 2.6c-3.7 0-6.8-1-9.1-2.9s-3.5-4.6-3.5-8.1v-6.8c0-3.6 1.2-6.4 3.5-8.5s5.4-3.2 9.1-3.2c3.8 0 6.8 1 9.1 3.1s3.4 5 3.4 8.7v5h-18.9v1.4c0 1.9.6 3.4 1.8 4.4s2.7 1.5 4.7 1.5c4.1 0 6.2-1.5 6.2-4.4h6.3v.3zm-6.1-8.3c0-2-.6-3.6-1.7-4.7s-2.7-1.6-4.7-1.6-3.6.5-4.7 1.6-1.7 2.7-1.7 4.7v.7h12.8v-.7zm-40.1 8.3c0 2.9-1.1 5.2-3.4 6.9s-5.3 2.6-9.1 2.6c-3.7 0-6.8-1-9.1-2.9s-3.5-4.6-3.5-8.1v-6.8c0-3.6 1.2-6.4 3.5-8.5s5.4-3.2 9.1-3.2c3.8 0 6.8 1 9.1 3.1s3.4 5 3.4 8.7v5h-18.9v1.4c0 1.9.6 3.4 1.8 4.4s2.7 1.5 4.7 1.5c4.1 0 6.2-1.5 6.2-4.4h6.3v.3zm-6.1-8.3c0-2-.6-3.6-1.7-4.7s-2.7-1.6-4.7-1.6-3.6.5-4.7 1.6-1.7 2.7-1.7 4.7v.7h12.8v-.7zm-30.8-2c0-3-1.9-4.4-5.8-4.4-1.8 0-3.1.3-4.1 1-1 .6-1.5 1.5-1.5 2.5 0 1.2.6 2 1.8 2.6 1.2.5 2.7.9 4.5 1.1 1.7.2 3.5.4 5.3.8a8.1 8.1 0 0 1 4.5 2.3c1.2 1.2 1.8 2.9 1.8 5 0 2.8-1.1 4.9-3.3 6.5s-5.2 2.4-9 2.4c-3.9 0-7-.8-9.2-2.5-2.2-1.6-3.3-3.9-3.3-6.8v-.3h6.6c0 3 2 4.4 5.9 4.4 1.8 0 3.3-.3 4.3-1 1-.6 1.5-1.5 1.5-2.5 0-.9-.4-1.6-1.3-2.1a8 8 0 0 0-3.3-.9c-1.3-.1-2.8-.3-4.3-.6a44.8 44.8 0 0 1-4.3-1.1 7.3 7.3 0 0 1-3.3-2.5c-.9-1.2-1.3-2.7-1.3-4.5 0-2.8 1.1-5 3.2-6.5 2.2-1.6 5.1-2.4 8.9-2.4 3.9 0 6.8.8 8.9 2.5s3.1 3.9 3.1 6.9v.3h-6.3zM286 15h6.7v28.5H286zm7.1-7.6c0 1-.3 1.7-1 2.3-.7.5-1.6.8-2.7.8s-2-.3-2.7-.8-1.1-1.3-1.1-2.3V6.2c0-1 .4-1.8 1.1-2.3s1.6-.8 2.7-.8 2 .3 2.7.8 1 1.3 1 2.3v1.2zm-20.8-4.1h6.8v40.2h-6.8zm-12.9 40.2v-3.3l-3 1.6c-2.6 1.4-5.1 2.1-7.5 2.1-2.5 0-4.6-.7-6.1-2.2-1.6-1.5-2.4-3.5-2.4-5.9 0-2.8 1-5 2.9-6.5 2-1.5 4.5-2.2 7.6-2.2h8.5v-1.7c0-3.6-1.9-5.5-5.8-5.5-4.1 0-6.2 1.7-6.2 5H241v-.4c0-3.2 1.1-5.6 3.4-7.4s5.3-2.7 9.1-2.7c3.9 0 6.9.9 9.1 2.8s3.2 4.5 3.2 7.9v18.3h-6.4zm0-11.8h-7.6c-3.2 0-4.9 1.2-4.9 3.7 0 1 .3 1.8.9 2.4s1.4.8 2.5.8c1.5 0 3.2-.5 4.9-1.4l4.1-2.2v-3.3zm-10.3-20.5l5.8-7.9h8.4l-7 7.9zm-20.8 32.3V24.8c0-1.2-.3-2.2-1-3-.6-.8-1.6-1.2-2.8-1.2-1.1 0-2.3.4-3.7 1.2l-4.2 2.5v19.2h-6.5V15h6.5v3.4l3-1.8c1.9-1.2 4-1.8 6.3-1.8 2.8 0 5 .8 6.6 2.5s2.4 3.9 2.4 6.7v19.6h-6.6zm-30.8 0l-2.6-7.6H179l-2.5 7.6h-7.8l13.9-40.2h8.9l13.9 40.2h-7.9zM187 11l-6.3 18.7h12.6L187 11zM85.8 137.2a5.7 5.7 0 0 1-5.7 5.7H68.6a5.7 5.7 0 0 1-5.7-5.7H0a11.4 11.4 0 0 0 11.4 11.4h125.8a11.4 11.4 0 0 0 11.4-11.4H85.8zm11.4-91.5H11.4a5.7 5.7 0 0 0-5.7 5.7v80h5.7V54.3a2.9 2.9 0 0 1 2.9-2.9h82.9v-5.7zm40 11.5h5.7v74.3h-5.7zM45.7 80v5.7a5.7 5.7 0 0 1-5.7 5.7v5.7a5.7 5.7 0 0 1 5.7 5.7v5.7a11.4 11.4 0 0 0 11.4 11.4h5.7v-5.7h-5.7a5.7 5.7 0 0 1-5.7-5.7v-5.7c0-3.4-1.5-6.5-3.9-8.6 2.4-2.1 3.9-5.2 3.9-8.6V80a5.7 5.7 0 0 1 5.7-5.7h5.7v-5.7h-5.7c-6.2 0-11.4 5.1-11.4 11.4zm62.9 11.5a5.7 5.7 0 0 1-5.7-5.7V80a11.4 11.4 0 0 0-11.4-11.4h-5.7v5.7h5.7a5.7 5.7 0 0 1 5.7 5.7v5.7c0 3.4 1.5 6.5 3.9 8.6-2.4 2.1-3.9 5.2-3.9 8.6v5.7a5.7 5.7 0 0 1-5.7 5.7h-5.7v5.7h5.7a11.4 11.4 0 0 0 11.4-11.4v-5.7a5.7 5.7 0 0 1 5.7-5.7v-5.7zM105.8 40h14.3a2.9 2.9 0 0 1 2.9 2.9v11.4a2.9 2.9 0 0 1-2.9 2.9h-14.3a2.9 2.9 0 0 1-2.9-2.9V42.9a2.9 2.9 0 0 1 2.9-2.9zm0 4.3v8.6c0 .8.6 1.4 1.4 1.4h11.4c.8 0 1.4-.6 1.4-1.4v-8.6c0-.8-.6-1.4-1.4-1.4h-11.4c-.8 0-1.4.6-1.4 1.4zm34.8 7.2h-9.7c-1.3 0-2.3-1-2.3-2.3v-6.9c0-1.3 1-2.3 2.3-2.3h9.7c1.3 0 2.3 1 2.3 2.3v6.9c0 1.2-1 2.3-2.3 2.3zm-.2-3.8v-4c0-.8-.6-1.4-1.4-1.4h-6.3c-.8 0-1.4.6-1.4 1.4v4c0 .8.6 1.4 1.4 1.4h6.3c.7.1 1.4-.6 1.4-1.4zM98.6 34.3H81.5c-2.4 0-4.3-1.9-4.3-4.3V15.7c0-2.4 1.9-4.3 4.3-4.3h17.2c2.4 0 4.3 1.9 4.3 4.3V30c-.1 2.4-2 4.3-4.4 4.3zm0-6.6V18c0-1.3-1-2.3-2.3-2.3H83.8c-1.3 0-2.3 1-2.3 2.3v9.7c0 1.3 1 2.3 2.3 2.3h12.6c1.2 0 2.2-1 2.2-2.3zm44.3 6.6h-28.6a5.7 5.7 0 0 1-5.7-5.7V5.7a5.7 5.7 0 0 1 5.7-5.7h28.6a5.7 5.7 0 0 1 5.7 5.7v22.9a5.7 5.7 0 0 1-5.7 5.7zm.7-7.9V7.9a2.9 2.9 0 0 0-2.9-2.9h-24.3a2.9 2.9 0 0 0-2.9 2.9v18.6a2.9 2.9 0 0 0 2.9 2.9h24.3c1.7-.1 2.9-1.4 2.9-3z"/></svg>