<svg xmlns="http://www.w3.org/2000/svg" viewBox="0 0 190.87 85.31"><path d="M10.15 33.03v23.34H0V0h36.59v8.94H10.15v15.15h24.17v8.94H10.15zm57.91 23.34v-4.62L63.89 54a20.65 20.65 0 0 1-10.54 2.88c-7.12 0-11.89-4.62-11.89-11.37 0-8.33 6.52-12.2 14.78-12.2h11.9V31c0-5.16-3-7.66-8.19-7.66-5.45 0-8.64 2.27-8.64 7h-8.94v-.56c0-9 7.13-14.1 17.5-14.1 10.91 0 17.2 5.45 17.2 15v25.69h-9zm0-16.52H57.45c-5.53 0-6.82 2.58-6.82 5.23 0 2.8 1.74 4.47 4.78 4.47a14.21 14.21 0 0 0 6.9-2l5.75-3.11v-4.59zm35.41 16.52c-9.25 0-15.23-4.62-15.23-13.71V24.25h-6.07v-7.8h6.07V5.61h9.39v10.83h11.06v7.8H97.63v17.89c0 4.7 2.12 6.29 6.59 6.29h4.7v8h-5.45zm45.48-12.57c0 8.11-7 13.26-17.51 13.26-10.3 0-17.65-5.61-17.65-15.38V32.2c0-10.08 7.35-16.37 17.65-16.37s17.56 6 17.56 16.53v7h-26.5v2c0 5.68 3.79 8.18 9 8.18s8.64-1.82 8.64-6.14h8.79v.4zm-8.57-11.6c0-5.69-3.33-8.79-8.87-8.79s-9 3.1-9 8.87v1h17.88V32.2zm51.02 9.63c0 10-6.9 15.23-17.28 15.23s-17.19-5.68-17.19-15.61v-9.93c0-9.92 6.89-15.69 17.19-15.69s17.28 5.3 17.28 15.31v.68h-8.87c0-5.68-3.11-8-8.42-8s-8.25 2.72-8.25 8.49v8.33c0 5.76 3 8.49 8.25 8.49s8.42-2.27 8.42-8h8.87v.68z" fill="#43545c"/><path d="M68.09 81.11v-13.8h-4.66v-2.58h12.32v2.58h-4.62v13.8h-3.04zm15.83 0v-1.35l-1.21.66a6 6 0 0 1-3.06.84A3.21 3.21 0 0 1 76.2 78c0-2.42 1.89-3.54 4.29-3.54h3.45v-.72c0-1.5-.86-2.22-2.38-2.22s-2.51.66-2.51 2h-2.6v-.14c0-2.62 2.07-4.09 5.08-4.09 3.17 0 5 1.58 5 4.36v7.46h-2.61zm0-4.8h-3.08c-1.61 0-2 .75-2 1.52a1.23 1.23 0 0 0 1.39 1.3 4.12 4.12 0 0 0 2-.57l1.67-.9v-1.35zm12.92 8.85v-5.33l-1.32.73a5.33 5.33 0 0 1-2.6.68 3.76 3.76 0 0 1-4-4v-3.86a3.85 3.85 0 0 1 4-4 5.29 5.29 0 0 1 2.55.68l1.34.73v-1.28h2.6v15.65h-2.57zm0-11.93L95 72.2a3.33 3.33 0 0 0-1.63-.44 1.75 1.75 0 0 0-1.83 1.89v3.3a1.75 1.75 0 0 0 1.83 1.89 3.12 3.12 0 0 0 1.63-.46l1.85-1v-4.15zm12.78 7.88v-1.35l-1.23.73a4.73 4.73 0 0 1-2.57.75 3.47 3.47 0 0 1-3.65-3.76v-8h2.68v7.64a1.52 1.52 0 0 0 1.54 1.69 2.91 2.91 0 0 0 1.52-.51l1.69-1v-7.79h2.66v11.6h-2.64zm12.69 0v-1.35l-1.21.66a6 6 0 0 1-3.06.84 3.21 3.21 0 0 1-3.45-3.3c0-2.42 1.89-3.54 4.29-3.54h3.46v-.68c0-1.5-.86-2.22-2.38-2.22s-2.51.66-2.51 2h-2.6v-.14c0-2.62 2.07-4.09 5.08-4.09 3.17 0 5 1.58 5 4.36v7.46h-2.62zm0-4.8h-3.08c-1.61 0-2 .75-2 1.52a1.23 1.23 0 0 0 1.39 1.3 4.12 4.12 0 0 0 2-.57l1.67-.9v-1.35zm5.26 4.8v-11.6h2.66v1.65l.51-.51a3.92 3.92 0 0 1 2.86-1.23h.68v2.71h-.66a3.55 3.55 0 0 0-2.44.79l-.9.75v7.44h-2.71zm11.35-14.72a1.55 1.55 0 0 1-3 0v-.49a1.54 1.54 0 0 1 3 0v.48zM136 69.51h2.73v11.6H136v-11.6zm10.82 11.6c-2.69 0-4.42-1.34-4.42-4v-5.33h-1.76v-2.27h1.76v-3.15h2.73v3.15h3.21v2.27h-3.21V77c0 1.36.62 1.83 1.91 1.83h1.36v2.31h-1.58zm6.6-14.72a1.55 1.55 0 0 1-3 0v-.49a1.54 1.54 0 0 1 3 0v.48zm-2.88 3.13h2.73v11.6h-2.73V69.51zm12.95 11.59v-7.62a1.55 1.55 0 0 0-1.49-1.71 2.85 2.85 0 0 0-1.52.51l-1.69 1v7.81h-2.66V69.51h2.64v1.36l1.23-.75a4.8 4.8 0 0 1 2.57-.75 3.47 3.47 0 0 1 3.65 3.76v8h-2.68zm7.7-4.21a.69.69 0 0 0-.79.77.68.68 0 0 0 .75.73h4.49c2.68 0 4.16 1 4.16 3.19 0 2.42-2.18 3.72-5.32 3.72-3.56 0-5.17-1.61-5.17-4.4v-1.17a2 2 0 0 1-1.15-2.07 2.13 2.13 0 0 1 1.56-2.24 2.82 2.82 0 0 1-.84-2.2c0-2.46 1.72-3.72 4.27-3.72h6.71v2.24h-1.65a2 2 0 0 1 .57 1.58c0 2.22-1.63 3.56-4.2 3.56h-3.39zm3-1.94c1.41 0 2.2-.53 2.2-1.72s-.73-1.69-2-1.69h-1c-1.25 0-2 .4-2 1.74 0 1.17.73 1.67 2 1.67h.84zm-2.53 5.39v.48c0 1.58.66 2.46 2.75 2.46 1.85 0 2.82-.51 2.82-1.65 0-1-.77-1.3-2-1.3h-3.59zm17.27.76v-1.35l-1.21.66a6 6 0 0 1-3.06.84A3.21 3.21 0 0 1 181.2 78c0-2.42 1.89-3.54 4.29-3.54h3.46v-.72c0-1.5-.86-2.22-2.38-2.22s-2.51.66-2.51 2h-2.6v-.14c0-2.62 2.07-4.09 5.08-4.09 3.17 0 5 1.58 5 4.36v7.46h-2.62zm0-4.8h-3.08c-1.61 0-2 .75-2 1.52a1.23 1.23 0 0 0 1.39 1.3 4.12 4.12 0 0 0 2-.57l1.67-.9v-1.35z" fill="#ad0f0a"/></svg>