<svg xmlns="http://www.w3.org/2000/svg" viewBox="0 0 482.5 134.1" style="enable-background:new 0 0 482.5 134.1;"><style><![CDATA[.E{fill-rule:evenodd;clip-rule:evenodd;fill:#72BF44}.a{fill:#231F20}]]></style><path d="M90.2 35.2l-11 31.5C70.7 96.2 9 76.2.8 98.7l10.3-29.5c10.8-28.3 65.6 2.5 79.1-34z" fill-rule="evenodd" clip-rule="evenodd" fill="#939598"/><linearGradient id="A" gradientUnits="userSpaceOnUse" x1="1.259" y1="33.33" x2="90.964" y2="33.33"><stop offset=".512" stop-color="#2F7DC1"/><stop offset=".827" stop-color="#1268B3"/></linearGradient><path d="M79.2 66.7C82 39.6 38 26.8 1.3 33.4L12 2.4C56.6-7.9 96.9 16.8 90.2 35.2l-11 31.5z" fill-rule="evenodd" clip-rule="evenodd" fill="url(#A)"/><path class="E" d="M79.2 66.7c.6-5.8-1-10.9-4.1-15.3 6.6-2.8 11.9-7.7 15.1-16.2l-11 31.5z"/><linearGradient id="B" gradientUnits="userSpaceOnUse" x1="2.244" y1="93.603" x2="32.881" y2="104.754"><stop offset=".241" stop-color="#1268B3"/><stop offset=".53" stop-color="#2F7DC1"/></linearGradient><path d="M11.1 69.2C6 84.7 28.9 97.5 34.8 98.2l-10.7 31C8 123.6-3 109.2.9 98.7l10.2-29.5z" fill-rule="evenodd" clip-rule="evenodd" fill="url(#B)"/><path class="E" d="M11.1 69.2c-2.3 7.1 1.2 13.6 6.2 18.7C9.3 89.5 3 92.5.8 98.7l10.3-29.5z"/><path class="a" d="M334.6 100h3.1a19.5 19.5 0 0 1 4.3.5c1.3.3 2.4.9 3.3 1.9.9.9 1.4 2.2 1.6 3.8 0 2.8-1 4.7-2.9 5.6a4.91 4.91 0 0 1 2.5 1c.8.6 1.4 1.4 1.9 2.4s.7 2 .7 3.2c0 1.5-.4 2.7-1.2 3.7s-1.8 1.8-3.2 2.3c-1.3.5-2.8.8-4.5.8h-5.8V100h.2zm3.1 2.8v8.3h1.4c3.2 0 4.8-1.4 4.8-4.2 0-1.1-.3-2.1-.9-2.9s-1.9-1.3-4-1.3h-1.3v.1zm0 10.9v8.7h2.5c3.7 0 5.6-1.4 5.8-4.1 0-1.6-.6-2.8-1.7-3.5-1.2-.7-2.6-1.1-4.2-1.1h-2.4zm25.8 6.3l2.6 1.5c-.7 1.1-1.5 2.1-2.7 2.9-1.1.9-2.7 1.3-4.7 1.3-1.2 0-2.2-.3-3.1-.7s-1.7-1-2.4-1.8-1.2-1.7-1.5-2.8c-.4-1.1-.5-2.3-.5-3.7.1-1.1.3-2.1.6-3a9.74 9.74 0 0 1 1.5-2.4c.6-.7 1.4-1.2 2.3-1.6s2-.6 3.1-.6c1.7 0 3.1.4 4.2 1.2s1.9 1.8 2.4 3 .7 2.4.7 3.7v.9h-11.8c0 1.5.4 2.7 1.3 3.7s2.1 1.5 3.5 1.5c.9 0 1.7-.3 2.5-.8.9-.6 1.5-1.4 2-2.3zm-.4-4.4c-.2-1.2-.6-2.1-1.4-2.8-.7-.7-1.7-1.1-2.8-1.1a5.21 5.21 0 0 0-2.9.9c-.9.6-1.5 1.6-1.7 3h8.8zm10.2 6.9l-7.2-12.9h3.5l5.3 9.9 4.9-9.9h3.4l-12.7 24.5h-3.3l6.1-11.6zm18.4-10.5c-1 0-1.9.2-2.7.7s-1.5 1.2-2 2-.7 1.8-.7 2.7c0 1 .2 1.9.7 2.7s1.1 1.5 2 2c.8.5 1.7.7 2.7.7.9 0 1.8-.2 2.6-.7s1.5-1.1 2-2c.5-.8.7-1.7.7-2.7s-.2-1.9-.7-2.7-1.1-1.5-2-2c-.7-.5-1.6-.7-2.6-.7zm0-2.9c1.5 0 2.9.4 4.2 1.1s2.3 1.8 3 3c.7 1.3 1.1 2.7 1.1 4.2s-.4 2.9-1.1 4.1c-.8 1.3-1.8 2.3-3 3-1.3.7-2.7 1.1-4.2 1.1s-2.9-.4-4.2-1.1c-1.3-.8-2.3-1.8-3.1-3-.8-1.3-1.1-2.6-1.1-4.1s.4-2.9 1.1-4.2c.8-1.3 1.8-2.3 3-3 1.4-.7 2.8-1.1 4.3-1.1zm11.1.5h3v2.2c.6-.9 1.3-1.6 2-2 .8-.4 1.7-.6 2.8-.6 1.9 0 3.3.6 4.2 1.7s1.3 2.8 1.3 5v9.4h-3v-9.4c0-1.5-.3-2.6-.8-3.1-.6-.6-1.4-.8-2.6-.8-1.3 0-2.3.5-2.9 1.2-.6.8-.9 2-.9 3.6v8.5h-3v-15.7h-.1zm29.1-13.4h3v29h-3v-2.5c-.8 1.1-1.6 1.9-2.6 2.4s-1.9.7-2.7.7c-1.3 0-2.4-.3-3.4-.8a6.77 6.77 0 0 1-2.4-2c-.6-.8-1.1-1.7-1.4-2.7s-.5-1.9-.5-2.8c0-1.8.4-3.3 1.1-4.6s1.6-2.2 2.7-2.9c1.1-.6 2.3-1 3.6-1 1 0 2 .3 3.1.9s1.9 1.3 2.4 2.3v-16h.1zm.1 21.3c0-1.1-.2-2.1-.6-3s-1-1.5-1.8-2-1.7-.7-2.7-.7c-1.1 0-2 .3-2.7.9s-1.3 1.3-1.6 2.2c-.4.9-.5 1.8-.5 2.7 0 .7.1 1.5.5 2.4.3.9.8 1.6 1.5 2.2s1.7.9 2.8.9c1.2 0 2.1-.3 2.9-.8s1.4-1.3 1.7-2.1c.3-.9.5-1.8.5-2.7zm16.6-17.5h3.2v25.2h-3.2V100zm11.6 2.9h-6V100h15.1v2.9h-6v22.3h-3.1v-22.3zm16.5-57.5h.1c.4 0 .7-.1.9-.2s.3-.4.3-.9c0-.4-.1-.6-.4-.7-.2-.1-.5-.2-.8-.2h-2.3v2h2.2zm2.5 4.1h-1.6l-1.6-3h-1.4v3h-1.4v-7.2h4.3c.2 0 .4 0 .6.1s.4.1.5.2c.3.2.5.5.7.8.1.3.2.7.2 1 0 .7-.2 1.1-.5 1.4s-.8.5-1.5.5l1.7 3.2z"/><path class="a" d="M471.2 50.6c-1.3-1.3-1.9-2.9-1.9-4.7s.6-3.4 1.9-4.7 2.9-1.9 4.7-1.9 3.4.6 4.7 1.9 1.9 2.9 1.9 4.7-.6 3.4-1.9 4.7-2.9 1.9-4.7 1.9-3.4-.6-4.7-1.9zm8.5-.9c1.1-1.1 1.6-2.3 1.6-3.8s-.5-2.8-1.6-3.8-2.3-1.6-3.8-1.6-2.8.5-3.8 1.6c-1.1 1-1.6 2.3-1.6 3.8s.5 2.8 1.6 3.8c1.1 1.1 2.3 1.6 3.8 1.6s2.8-.5 3.8-1.6zm-33.1 4.2h-2.9v-8.3h4.5l-1.6 8.3zm12.5 29.6c-5.1 0-9.4-3.9-10-9v-1.2h7.6v.5a2.47 2.47 0 0 0 2.4 2c1.3 0 2.4-1.1 2.4-2.4 0-.3 0-1.2-1.3-2.1-1.2-.8-3.7-1.6-4.7-1.9l-.2-.1a10 10 0 0 1-6.8-9.5c0-5.5 4.5-10 10-10s10 4.5 10 10h-7.6c0-1.3-1.1-2.4-2.4-2.4s-2.4 1.1-2.4 2.4c0 1 .6 1.9 1.5 2.2.9.2 4.5 1.3 6.9 2.9 3 2 4.6 5 4.6 8.4 0 5.7-4.5 10.2-10 10.2zm-52.7-7.7c-3.7 0-6.8-2.2-8.3-5.3h25v-3.8c0-9.2-7.5-16.7-16.7-16.7s-16.7 7.5-16.7 16.7 7.5 16.7 16.7 16.7c6.7 0 12.7-4 15.3-10.1h-9.1c-1.6 1.6-3.8 2.5-6.2 2.5zm0-18.2c3.7 0 6.8 2.2 8.3 5.3h-16.5c1.4-3.1 4.5-5.3 8.2-5.3zm-19.8 25.8H379V63.9c0-3.5-2.8-6.3-6.3-6.3-3.3 0-6.1 2.6-6.3 5.8v20h-7.6v-20c-.3-3.3-3-5.8-6.3-5.8-3.5 0-6.3 2.8-6.3 6.3v19.5h-7.6V63.9c0-7.7 6.3-13.9 13.9-13.9a13.73 13.73 0 0 1 10.1 4.4 13.73 13.73 0 0 1 10.1-4.4c7.7 0 13.9 6.3 13.9 13.9v19.5zm-52 0H327V63.9c0-3.5-2.8-6.3-6.3-6.3-3.3 0-6.1 2.6-6.3 5.8v20h-7.6v-20c-.3-3.3-3-5.8-6.3-5.8-3.5 0-6.3 2.8-6.3 6.3v19.5h-7.6V63.9c0-7.7 6.3-13.9 13.9-13.9a13.73 13.73 0 0 1 10.1 4.4 13.73 13.73 0 0 1 10.1-4.4c7.7 0 13.9 6.3 13.9 13.9v19.5zm-208.9-.8H118V40.7h14.3c7.1 0 12.8 5.8 12.8 12.8 0 7.1-5.8 12.8-12.8 12.8h-6.6v16.3zm0-23.8h6.6c2.9 0 5.2-2.3 5.2-5.2s-2.3-5.2-5.2-5.2h-6.6v10.4zm88.8 24.7c-9.2 0-16.7-7.5-16.7-16.7s7.5-16.7 16.7-16.7c9 0 16.4 7.2 16.7 16.2v12.3c0 9.2-7.5 16.7-16.7 16.7-7.4 0-13.8-4.9-15.9-11.6h8.4a9.06 9.06 0 0 0 7.5 4 9.15 9.15 0 0 0 8.8-6.6c-2.6 1.5-5.6 2.4-8.8 2.4zm0-25.9c-5 0-9.1 4.1-9.1 9.1s4.1 9.1 9.1 9.1 9.1-4.1 9.1-9.1-4.1-9.1-9.1-9.1zm51.6 25.9c-9.2 0-16.7-7.5-16.7-16.7s7.5-16.7 16.7-16.7c9.1 0 16.5 7.2 16.7 16.2v17.2h-7.6v-2.7c-2.6 1.7-5.8 2.7-9.1 2.7zm0-25.9c-5 0-9.1 4.1-9.1 9.1s4.1 9.1 9.1 9.1 9.1-4.1 9.1-9.1-4.1-9.1-9.1-9.1zM242.5 83h-7.6V64.7c0-8.2 6.7-15 15-15v7.6c-4 0-7.3 3.3-7.3 7.3V83h-.1zm191.7 0h-7.6V64.7c0-8.2 6.7-15 15-15v7.6c-4 0-7.3 3.3-7.3 7.3V83h-.1zm-280.8 0h-7.6V64.7c0-8.2 6.7-15 15-15v7.6c-4 0-7.3 3.3-7.3 7.3V83h-.1zm24.7-25.4c-5 0-9.1 4.1-9.1 9.1s4.1 9.1 9.1 9.1 9.1-4.1 9.1-9.1-4.1-9.1-9.1-9.1zm.3-7.8c4.7 0 8.6 1.7 11.8 5.1 3.2 3.3 4.8 7.3 4.8 11.9 0 4.7-1.7 8.7-5 11.9s-7.3 4.9-12 4.9c-4.6 0-8.5-1.6-11.8-4.9s-5-7.2-5-11.9c0-4.8 1.7-8.8 5-12.1 3.4-3.2 7.4-4.8 12.2-4.9z"/></svg>