<svg xmlns="http://www.w3.org/2000/svg" viewBox="0 0 500 138" style="enable-background:new 0 0 500 138;"><path d="M450 97l-2.6 2.6a2.66 2.66 0 0 1-3.7 0 2.66 2.66 0 0 1 0-3.7l2.6-2.6a2.66 2.66 0 0 1 3.7 0c1 1 1 2.7 0 3.7zm-16.6-1.8a2.66 2.66 0 0 0-3.7 0L427 98a2.66 2.66 0 0 0 0 3.7 2.66 2.66 0 0 0 3.7 0l2.6-2.6c1-1 1-2.7 0-3.7zm32.2-13.8l.3-.3c5-5 5-13.4 0-18.4-5-5-13.4-5-18.4 0l-.5.5c-.1.1-.2.1-.2.2l-14 14a2.66 2.66 0 0 0 0 3.7 2.66 2.66 0 0 0 3.7 0l6-6a2.66 2.66 0 0 1 3.7 0 2.66 2.66 0 0 1 0 3.7l-10.7 10.7a2.66 2.66 0 0 0 0 3.7 2.66 2.66 0 0 0 3.7 0l10.7-10.7a2.66 2.66 0 0 1 3.7 0 2.66 2.66 0 0 1 0 3.7L452 88a2.66 2.66 0 0 0 0 3.7 2.66 2.66 0 0 0 3.7 0l10-10c0 .1 0 .1 0 0z" fill="#ef3d26"/><path d="M5.4 18A14.34 14.34 0 0 1 19.8 3.6 14.34 14.34 0 0 1 34.2 18a14.34 14.34 0 0 1-14.4 14.4A14.34 14.34 0 0 1 5.4 18zm477 28.2c-14-14-37-14-51.2 0-9.5 9.5-12.6 23-9.4 35l22-22c7-7 18.5-7 25.6 0s7 18.5 0 25.6l-22 22c12 3.2 25.5.1 35-9.4 14-14 14-37 0-51.2zM10 37.4h-.2.2zm380.2 22.8c-7-1-9-1.3-9-3 0-1.6 2.7-3 6.4-3 6.2 0 12.5 2.2 17 4.8 2 1 4.2.3 5.4-1.3l5.4-9.5c1-2 .5-4.3-1.2-5.5-7.5-4.2-16.6-7-26.6-7-20 0-31 11.2-31 23.6 0 19.3 18 21.7 29.4 23.3 5.6.7 9.7 1.3 9.7 3.4 0 1.7-1.6 3-7 3-6.4 0-15.6-3-21.6-6.5a4.36 4.36 0 0 0-5.4 1.4l-6.4 10.8c-.8 1.8-.2 4 1.4 5.2 7.8 5 19.6 8.3 30.8 8.3a59 59 0 0 0 7.5-.5l25.2-25.2c-1-18.2-19-20.8-30.2-22.4zM351 102V15.5c0-2.4-2-4.4-4.3-4.4h-17c-2.4 0-4.3 2-4.3 4.3V102c0 2.4 2 4.4 4.3 4.4h17c2.4.1 4.3-2 4.3-4.3zm-34.6-59.6v-.7c0-2.4-2-4.4-4.3-4.4h-17c-2.4 0-4.3 2-4.3 4.3V80c-2 2.4-5 5.4-11 5.4-6.3 0-10-2.7-10-9.7v-34c0-2.4-2-4.4-4.3-4.4h-17c-2.4 0-4.3 2-4.3 4.3v45c0 12 7 21.4 23 21.4 12.2 0 19.7-5 23.7-9.4v3.3c0 2.4 2 4.3 4.2 4.4h17.4c2.3-.1 4-2 4-4.3V42.5h-.2zM155.5 102V56.4c0-14.3-8.6-20.7-21.3-20.7-11.2 0-20.2 6-24.2 12.2-3-8.6-10-12.2-20-12.2-11.2 0-20 5.7-23 9.6V42c0-2.4-2-4.4-4.3-4.4H46c-2.4 0-4.3 2-4.3 4.3V102c0 2.4 2 4.4 4.3 4.4h17c2.4 0 4.3-2 4.3-4.3V64c1.7-2 5-5.4 10.4-5.4 6 0 8 3.6 8 7.7v36c0 2.4 2 4.4 4.3 4.4h17c2.4 0 4.3-2 4.3-4.3V64c1.7-2 5-5.4 10.6-5.4s8 3.6 8 7.7v36c0 2.4 2 4.4 4.3 4.4h17c2.7 0 4.6-2 4.6-4.4zM239.8 72c0 23.7-13.2 36.3-30.3 36.3-7 0-13.7-2.4-19.4-9v29.2c0 2.4-2 4.3-4.3 4.3h-17c-2.4 0-4.3-2-4.3-4.4V41.7c0-2.4 2-4.3 4.3-4.3h17c2.4 0 4.3 2 4.3 4.4v3c5.6-6.6 12.3-9 19.4-9 17.2 0 30.3 12.6 30.3 36.2zm-26.3 0c0-8.6-6-13.4-13-13.4-3.3 0-8 1.7-10.6 4.7v17.6c2.3 3 7.3 4.7 10.6 4.7 7 0 13-5 13-13.6zM32.7 102V41.8c0-2.4-2-4.4-4.3-4.4h-17c-2.4 0-4.3 2-4.3 4.3V102c0 2.4 2 4.4 4.3 4.4h17c2.4.1 4.3-2 4.3-4.3z" fill="#26255e"/></svg>