<?xml version="1.0" encoding="UTF-8" standalone="no"?>
<svg
   xmlns:dc="http://purl.org/dc/elements/1.1/"
   xmlns:cc="http://creativecommons.org/ns#"
   xmlns:rdf="http://www.w3.org/1999/02/22-rdf-syntax-ns#"
   xmlns:svg="http://www.w3.org/2000/svg"
   xmlns="http://www.w3.org/2000/svg"
   viewBox="0 0 1504.72 454.38666"
   height="454.38666"
   width="1504.72"
   xml:space="preserve"
   id="svg2"
   version="1.1"><metadata
     id="metadata8"><rdf:RDF><cc:Work
         rdf:about=""><dc:format>image/svg+xml</dc:format><dc:type
           rdf:resource="http://purl.org/dc/dcmitype/StillImage" /></cc:Work></rdf:RDF></metadata><defs
     id="defs6" /><g
     transform="matrix(1.3333333,0,0,-1.3333333,0,454.38667)"
     id="g10"><g
       transform="scale(0.1)"
       id="g12"><path
         id="path14"
         style="fill:#58595b;fill-opacity:1;fill-rule:nonzero;stroke:none"
         d="m 10750.1,777.629 c -40.7,-77 -93.7,-142.551 -157.6,-194.777 -64.2,-52.524 -138.1,-93.903 -219.7,-123.024 -81.6,-29.18 -164.4,-43.976 -246,-43.976 -130.58,0 -237.53,29.867 -317.91,88.777 -79.74,58.32 -118.5,132.23 -118.5,225.973 0,81.878 33.8,148.578 103.34,203.898 69.84,55.59 183.4,83.79 337.57,83.79 h 679.4 c -2.5,-88.302 -22.9,-169.181 -60.6,-240.661 z m 471.1,1040.801 c -42.8,115.98 -107,220.41 -190.9,310.41 -84.1,90.13 -189.3,162.14 -312.8,214.01 -123.4,51.79 -269.1,78.05 -433.4,78.05 -173.3,-3.07 -333.77,-42.43 -476.86,-117.01 -142.49,-74.3 -265.5,-167.34 -365.59,-276.54 l -13.01,-14.2 325.65,-281.24 12.27,13.33 c 67.06,72.88 145.36,129.77 232.71,169.08 87.23,39.27 183.23,59.18 285.23,59.18 89.9,0 168.5,-14.62 233.4,-43.44 65,-28.88 119.7,-67.54 162.8,-114.9 43.1,-47.43 75.9,-102.87 97.5,-164.8 21.8,-62.32 32.8,-129.23 32.8,-198.86 v -39.88 h -679.7 c -160.16,0 -299.94,-17.69 -415.44,-52.61 -116.01,-35.12 -212.96,-84.83 -288.2,-147.75 -75.36,-63.05 -132.39,-136.51 -169.5,-218.389 -36.97,-81.699 -55.72,-169.941 -55.72,-262.269 0,-101.383 19.48,-197.133 57.9,-284.614 38.4,-87.629 93.68,-165.5 164.29,-231.429 C 9495.16,148.551 9583.7,95.6992 9687.78,57.4688 9791.51,19.332 9910.42,0 10041.2,0 c 185.7,0 351.2,43.3594 491.8,128.879 118,71.789 211.2,159.883 278,262.512 V 45.0508 h 474.4 V 1451.5 c 0,127.68 -21.6,251.14 -64.2,366.93" /><path
         id="path16"
         style="fill:#58595b;fill-opacity:1;fill-rule:nonzero;stroke:none"
         d="M -0.00390625,41.8594 H 473.836 V 2339.48 H -0.00390625 V 41.8594" /><path
         id="path18"
         style="fill:#58595b;fill-opacity:1;fill-rule:nonzero;stroke:none"
         d="m 2167.22,2380.46 c -259.7,0 -544.69,-41.61 -805.78,-117.44 -100.33,62.43 -217.84,92.85 -358.17,92.85 H 942.594 V 41.8594 H 1416.42 V 1873.17 c 235.96,70.28 431.22,103.15 611.46,103.15 468.12,0 566.38,-279.03 566.38,-513.1 V 41.8594 h 473.82 V 1500.1 c 0,283.43 -80.96,504.34 -240.62,656.62 -155.67,148.48 -377.8,223.74 -660.24,223.74" /><path
         id="path20"
         style="fill:#58595b;fill-opacity:1;fill-rule:nonzero;stroke:none"
         d="m 6594.26,41.8594 h 473.83 V 3407.93 L 6594.26,3275.7 V 41.8594" /><path
         id="path22"
         style="fill:#58595b;fill-opacity:1;fill-rule:nonzero;stroke:none"
         d="m 7536.84,41.8594 h 473.83 V 3407.93 L 7536.84,3275.7 V 41.8594" /><path
         id="path24"
         style="fill:#58595b;fill-opacity:1;fill-rule:nonzero;stroke:none"
         d="m 8479.43,41.8594 h 473.84 V 2339.48 H 8479.43 V 41.8594" /><path
         id="path26"
         style="fill:#58595b;fill-opacity:1;fill-rule:nonzero;stroke:none"
         d="m 5651.22,41.8594 h 473.83 V 2339.48 H 5651.22 V 41.8594" /><path
         id="path28"
         style="fill:#58595b;fill-opacity:1;fill-rule:nonzero;stroke:none"
         d="m 4945.39,2287.42 c -159.1,-449.6 -379.72,-969.54 -626.05,-1476.33 -236.01,473.21 -457.31,992.71 -628.45,1476.33 l -15.29,43.21 h -519.8 l 36.17,-89.2 C 3486,1516.16 3850.88,753.98 4247.17,37.2813 l 18.51,-33.47271 h 105.12 l 18.44,33.73051 C 4782.43,756.238 5147.22,1518.23 5444.2,2241.14 l 36.77,89.49 h -520.29 l -15.29,-43.21" /></g></g></svg>