<svg xmlns="http://www.w3.org/2000/svg" id="sabores-fazenda" viewBox="0 0 781.88 130.66"><defs><style>.cls-3{fill:#b72930}.cls-2{fill:#fff}.cls-2,.cls-3{fill-rule:evenodd}</style></defs><path fill="#b72930" d="M3.22 6.71h114.92v118.1H3.22z"/><path d="M73.59 54.09a18.44 18.44 0 0 0 1.83-3.66 23.39 23.39 0 0 0 .95-2.78 2.43 2.43 0 0 1 2.21.88 3.89 3.89 0 0 1 .57 2.15v1.26a4.62 4.62 0 0 1-.15 1.15v.5q9.84-.63 14.88-.88t6.06-.25q1.39 0 4.41.06t6.05.31a42.41 42.41 0 0 1 5.36.76q2.33.5 2.33 1.39-.25 1-2 1.14l.32-.32a.61.61 0 0 0 .19-.44l-1.26-.25q-.25 0-1.83.19a38.52 38.52 0 0 1-4.35.19q-.63 0-3 .19t-5.61.57l-7.06.82q-3.78.44-7.25.88t-6.18.82q-2.71.38-3.85.63-2 4.79-3.66 9.27t-3.15 8.77Q87.21 75 96.48 73.83t11.16-1.32q-5.3 2-10.09 3.59t-9.33 2.71Q84.06 80 79 80.9a111.93 111.93 0 0 1-11.54 1.45Q65 90.29 63.12 98.62a77.13 77.13 0 0 0-1.89 17.15c0 1.85.25 2.78.76 2.78a23.1 23.1 0 0 0 3.15-4.16q1.64-2.65 3.22-5.68t2.9-6.12q1.32-3.09 2.08-5.49a51.93 51.93 0 0 1-1.39 7.44 49.1 49.1 0 0 1-2.52 7.38 28 28 0 0 1-3.47 6 10.13 10.13 0 0 1-4.22 3.4 13.32 13.32 0 0 1-2.08-.88A4.83 4.83 0 0 1 58 119a7 7 0 0 1-1.07-2.58 20.46 20.46 0 0 1-.38-4.41q0-1.89.32-5.42t1-7.63q.69-4.1 1.58-8.26a62 62 0 0 1 2-7.44q-5.3.5-8.77.76t-5.11.25A5.34 5.34 0 0 1 46 80.33a5.6 5.6 0 0 1 .85-3.33 10.32 10.32 0 0 0 4.29.76 13.49 13.49 0 0 0 3.28-.38 21.26 21.26 0 0 0 2.78-.88 16.81 16.81 0 0 1-4.41 3.4l10.47-1.64q2-5.42 3.85-9.84t3.72-8.07q-1.39-.13-3.91-.57a39.35 39.35 0 0 1-5.11-1.26 15.36 15.36 0 0 1-4.48-2.21 4.11 4.11 0 0 1-1.9-3.31 2.17 2.17 0 0 1 .76-1.76c.67.51 1.32 1 2 1.39a8.62 8.62 0 0 0 2.08 1 17.4 17.4 0 0 0 2.65.63 22.46 22.46 0 0 0 3.66.25q2.97-.04 7.01-.42z" class="cls-2"/><path d="M191.9 51.07a16.32 16.32 0 0 1 9.46 2.52 9 9 0 0 1 3.91 7.31 11.91 11.91 0 0 0-4.86-2.52 24.24 24.24 0 0 0-6.24-.76 32.85 32.85 0 0 0-11 1.77 28.33 28.33 0 0 0-8.77 4.92 30.29 30.29 0 0 0-7 8.64 34.89 34.89 0 0 0-3.72 10.78 6.18 6.18 0 0 0-.13 1.2V86a11 11 0 0 0 3.41 8.39 30.25 30.25 0 0 0 8.45 5.48 54.14 54.14 0 0 0 6.62 2.65q3.47 1.14 6.81 2.14t6.18 2a21.67 21.67 0 0 1 4.73 2.27q-.13.76-1.89 2.33a33.58 33.58 0 0 1-5 3.53 69.7 69.7 0 0 1-7.95 4 62.71 62.71 0 0 1-10.6 3.41 85.61 85.61 0 0 1-9 1.64 78.74 78.74 0 0 1-10.22.63 10.27 10.27 0 0 1-6.37-1.7 8.93 8.93 0 0 1-3.09-4.73 6.52 6.52 0 0 0 2.78 1.07 23.12 23.12 0 0 0 4 .31 91.38 91.38 0 0 0 9.33-.51 93.47 93.47 0 0 0 9.71-1.51A57.8 57.8 0 0 0 188 112a24.88 24.88 0 0 0-6.81-4 73.45 73.45 0 0 1-8.58-4.23 38.84 38.84 0 0 1-4.35-3.09 19.08 19.08 0 0 1-6.18-9.21 22.14 22.14 0 0 1-.95-6.75 30.6 30.6 0 0 1 2.71-12.11 41.91 41.91 0 0 1 7.5-11.6 34.13 34.13 0 0 1 9.27-7.19 23.74 23.74 0 0 1 11.29-2.78zm37.33 24.09a42.49 42.49 0 0 0-9.46 5.49 52.14 52.14 0 0 0-8.7 8.26 43.69 43.69 0 0 0-5.8 9.08 22.22 22.22 0 0 0-2.27 9.59 14 14 0 0 0 .38 3.15 12.9 12.9 0 0 0 1.14 3.09 6.69 6.69 0 0 0 2 2.33 4.65 4.65 0 0 0 2.84.88 9 9 0 0 0 5.36-1.89 27.64 27.64 0 0 0 4.6-4.22 43.53 43.53 0 0 0 3.28-4.23q1.26-1.89 1.51-1.89a17.57 17.57 0 0 0-.5 4.29 10.51 10.51 0 0 0 2 6.56q2 2.65 7.32 2.65a9.58 9.58 0 0 0 2.07-.3 2.25 2.25 0 0 0 1.7-1.2 6.9 6.9 0 0 1-6.24-3.28 12.93 12.93 0 0 1-2.08-7.06 18.75 18.75 0 0 1 .95-5.36q.95-3.09 2.21-6.5 1.64-3.66 3.34-7.19a55.11 55.11 0 0 1 3.34-6.05 6.87 6.87 0 0 0-3.28-3.91 17.47 17.47 0 0 0-5.68-2.27zm-21.57 38.6q-1.64 0-1.64-1.26a21.49 21.49 0 0 1 2.77-10.22 51.09 51.09 0 0 1 6.94-9.84 53.14 53.14 0 0 1 7.82-7.32 47 47 0 0 1 7.82-4.92q-.25 1.26-.63 3t-.95 3.47q-.57 1.77-1.2 3.53t-1.26 3.15a37.65 37.65 0 0 1-3.47 5.8 68.26 68.26 0 0 1-5.36 6.75 47.54 47.54 0 0 1-5.86 5.55q-3 2.33-5 2.33zm30.65 1.14a8.9 8.9 0 0 0 1.77.44 21.41 21.41 0 0 0 3.28.19 10.56 10.56 0 0 0 4.1-1 25.78 25.78 0 0 0 4.86-2.84 55.35 55.35 0 0 0 5.11-4.22 45.12 45.12 0 0 0 4.86-5.3 44.64 44.64 0 0 0 5.8-9.4 23.72 23.72 0 0 0 2.27-9.9 6 6 0 0 0-.5-2.65 5.31 5.31 0 0 0-1.13-1.58 4.75 4.75 0 0 0-1.2-.82 2.79 2.79 0 0 0-.69-.25 16.89 16.89 0 0 0-7.57 2.14 19.86 19.86 0 0 0-5.68 4.92q-2 2.4-4 10.22t-5 18.92a6.28 6.28 0 0 1-4.41-5q.63-2 1.83-6.37t2.56-10.4q1.45-6 3-13t2.84-14.25q1.32-7.25 2.27-14.32t1.2-13.12a7.85 7.85 0 0 1 1.7 4.48 56.06 56.06 0 0 1 .44 7.5q0 4.79-.44 10.28t-1 10.22q-.57 4.73-1 8t-.58 3.67a18.65 18.65 0 0 1 3.61-3.46 19.92 19.92 0 0 1 7-3.15 11.27 11.27 0 0 1 2.21-.32q5.42 0 7.76 3a12.88 12.88 0 0 1 2.33 8.07 29.46 29.46 0 0 1-2.21 9.84 37.15 37.15 0 0 1-6.7 11.25 36.64 36.64 0 0 1-9.27 7.69 24.3 24.3 0 0 1-12.55 3.15q-4 0-5.24-.57a2.92 2.92 0 0 1-1.58-2.08zm53.48 2.4q-6.56 0-10-3.72a13.76 13.76 0 0 1-3.47-9.78 28.29 28.29 0 0 1 2.71-11 42.16 42.16 0 0 1 7.5-11.54 21.63 21.63 0 0 1 5.24-4.67 11.15 11.15 0 0 1 6-1.77 16.31 16.31 0 0 1 11.92 4.92 15.91 15.91 0 0 1 3.4 5.3 17.32 17.32 0 0 1 1.2 6.43 22 22 0 0 1-2 9 30.59 30.59 0 0 1-5.24 8.07 30.18 30.18 0 0 1-8.07 6.37 19.15 19.15 0 0 1-9.21 2.46zm-2.79-4.55a17.65 17.65 0 0 0 9-2.4 26.25 26.25 0 0 0 7.19-6.05 28.88 28.88 0 0 0 4.22-7.06 19.25 19.25 0 0 0 1.59-7.45 13.72 13.72 0 0 0-1.83-7.13q-1.83-3.09-6.37-3.09a9 9 0 0 0-4.92 1.64 28.5 28.5 0 0 0-5 4.29 38.85 38.85 0 0 0-4 5 49.42 49.42 0 0 0-3.26 5.5 37.35 37.35 0 0 0-2.21 5.36 15.78 15.78 0 0 0-.82 4.73 8 8 0 0 0 1.39 4.73q1.39 2 5 2zm59.41-39.35a22.1 22.1 0 0 1 3.78.38 27.5 27.5 0 0 0-9.52 4.1 33 33 0 0 0-7.25 6.87 47.78 47.78 0 0 0-4.23 6.62 59.13 59.13 0 0 0-3.19 7.25 62 62 0 0 0-2.46 8.26q-.95 4.23-1.58 8.39c-.08.5-.15 1-.19 1.39a11.33 11.33 0 0 0-.06 1.13 2.19 2.19 0 0 0 .38 1.51 1.36 1.36 0 0 1-1 .38q-2.27 0-3-2.59a23.22 23.22 0 0 1-.69-6 59.49 59.49 0 0 1 .5-7.5q.5-4 1.26-8.14.88-4.79 2-9.52t2.08-9.15a4.26 4.26 0 0 1 1.58 2.78 20.08 20.08 0 0 1 .44 4.29 19.58 19.58 0 0 1-.38 4.29 33.65 33.65 0 0 1 5.8-7.69 25.79 25.79 0 0 1 7.32-5.17 19.68 19.68 0 0 1 8.45-1.89zm10.47 1.77a13.19 13.19 0 0 0-5.17 2.65 42.12 42.12 0 0 0-4.92 4.67 45.42 45.42 0 0 0-7.57 11 25 25 0 0 0-2.65 10.66 18.54 18.54 0 0 0 .63 4.86 10.94 10.94 0 0 0 2.15 4.16 10.61 10.61 0 0 0 3.91 2.9 14.87 14.87 0 0 0 6.05 1.07 21.72 21.72 0 0 0 8.2-2 34.09 34.09 0 0 0 9-5.61 27.6 27.6 0 0 0 5.74-6.75 27.32 27.32 0 0 0 3.32-8.78 25.62 25.62 0 0 1-4.6 6.87 49.64 49.64 0 0 1-6.24 5.74 42.28 42.28 0 0 1-8.58 5.17 18.64 18.64 0 0 1-7.19 1.89 9.41 9.41 0 0 1-5.17-1.45q-2.27-1.45-2.27-4.86a16.48 16.48 0 0 1 1-5.68 12 12 0 0 1 1.48-3.31 7.82 7.82 0 0 0 2.27 1.45 8.07 8.07 0 0 0 3.41.69 15.11 15.11 0 0 0 6.56-1.64 26 26 0 0 0 6.24-4.23 32.49 32.49 0 0 0 4.95-5.64 17.3 17.3 0 0 0 2.71-5.68 7.47 7.47 0 0 0-1.7-3.78 11.51 11.51 0 0 0-3.15-2.54 14 14 0 0 0-4-1.45 22.21 22.21 0 0 0-4.35-.44zM347 95.84a2.1 2.1 0 0 0 1.39.82 7.1 7.1 0 0 0 1.77.32A13.09 13.09 0 0 0 354 96a32.78 32.78 0 0 0 5.61-2.78 21.79 21.79 0 0 0 5.11-4.29 8.24 8.24 0 0 0 2.28-5.58 5.33 5.33 0 0 0-3.91-4.41 8.89 8.89 0 0 0-4.73 2.4 46.37 46.37 0 0 0-4.73 4.79q-2.27 2.77-4 5.42a33.85 33.85 0 0 0-2.63 4.29zm53.1-16.27a19.14 19.14 0 0 0-5.8 1 22.69 22.69 0 0 0-6.05 3 23 23 0 0 0-6.25 5.71 11.69 11.69 0 0 0-2.58 7.19 7.31 7.31 0 0 0 1.64 4.16 46.16 46.16 0 0 0 3.94 4.67q2.77 2.9 5.68 5.55t4.79 4.54a30.69 30.69 0 0 1-6.37 3.78 53.61 53.61 0 0 1-7.88 2.9 37.44 37.44 0 0 1-5.49 1.26 30.61 30.61 0 0 1-4.35.38 4.83 4.83 0 0 1-3.47-1.26 3.78 3.78 0 0 1-1.32-2.78 3.49 3.49 0 0 1 2.78-3.53 2.57 2.57 0 0 0-.63 1.89q0 1 1.77 1a16.88 16.88 0 0 0 3.59-.5q2.21-.5 4.6-1.26 2.65-.88 5.24-2t4.73-2.08a40.35 40.35 0 0 1-3.6-2.77 41 41 0 0 1-4.1-4 26.87 26.87 0 0 1-3.66-5.61 14.61 14.61 0 0 1-1.51-6.5 11.66 11.66 0 0 1 .69-3.78 21.72 21.72 0 0 1 1.89-4 30 30 0 0 1 2.78-3.91 24.11 24.11 0 0 1 3.47-3.41 20.67 20.67 0 0 1 4.54-2.65 12.56 12.56 0 0 1 4.92-1q4.41 0 6.12 1.32a3.55 3.55 0 0 1 1.7 2.58v.38a10.52 10.52 0 0 0-1.77-.25zm67.48-42.51q-.76 3-2.08 7.88t-3 10.53q-1.7 5.68-3.47 11.86t-3.28 11.86q-1.51 5.68-2.65 10.41a76.69 76.69 0 0 0-1.51 7.63q-.51 2.65-.88 5.86a51.51 51.51 0 0 0-.38 6 14.83 14.83 0 0 0 .63 4.73q.63 1.83 2.15 1.83A5.16 5.16 0 0 0 456 115a11.09 11.09 0 0 0 1.83-1.45 4.65 4.65 0 0 1-2 3 6.74 6.74 0 0 1-4.16 1.32 4.86 4.86 0 0 1-4.6-2.71 16.4 16.4 0 0 1-1.45-7.63 43.41 43.41 0 0 1 .38-5.3q-1.13 2-2.77 4.48a38.72 38.72 0 0 1-3.66 4.67 26 26 0 0 1-4.16 3.72 9.37 9.37 0 0 1-4.29 1.77 11.09 11.09 0 0 1-6.31-2.9 7.44 7.44 0 0 1-2-5.3 28.76 28.76 0 0 1 2.77-11.92 44.39 44.39 0 0 1 6.81-10.78 22.92 22.92 0 0 1 2-2.4q1.51-1.64 3.41-3.4t3.85-3.28a10.31 10.31 0 0 1 3.34-1.89 17 17 0 0 1 3.28.38q1.89.38 2.9.63.5-1.77 1.39-4.79t1.89-6.56q1-3.53 2.14-7.38t2.14-7.32q1-3.47 1.89-6.24t1.38-4.38a23.94 23.94 0 0 1 2.71-1.26 27.86 27.86 0 0 1 3-1zm-37.84 75.81a5.28 5.28 0 0 0 3.34-1.64 34.65 34.65 0 0 0 3.72-4 51.86 51.86 0 0 0 3.53-4.92q1.67-2.56 2.67-4.45t2.34-4.48q1.32-2.71 2.46-5.49t2-5.24a13 13 0 0 0 .82-3.72.56.56 0 0 0-.63-.63 7.77 7.77 0 0 0-3.59.95 18.82 18.82 0 0 0-3.6 2.46 29.7 29.7 0 0 0-3.4 3.47 43.61 43.61 0 0 0-2.9 3.85q-1.64 2.15-3.22 4.67a52.88 52.88 0 0 0-2.9 5.3 37.51 37.51 0 0 0-2.15 5.55 18.3 18.3 0 0 0-.82 5.17 4.73 4.73 0 0 0 .5 2.14 1.92 1.92 0 0 0 1.89 1zm55.62-37.71a42.47 42.47 0 0 0-9.36 5.48 52.11 52.11 0 0 0-8.7 8.26 43.69 43.69 0 0 0-5.8 9.08 22.22 22.22 0 0 0-2.27 9.59 14.05 14.05 0 0 0 .38 3.15 12.89 12.89 0 0 0 1.14 3.09 6.68 6.68 0 0 0 2 2.33 4.65 4.65 0 0 0 2.84.88 9 9 0 0 0 5.36-1.89 27.64 27.64 0 0 0 4.6-4.22 43.78 43.78 0 0 0 3.28-4.23q1.26-1.89 1.51-1.89a17.57 17.57 0 0 0-.5 4.29 10.51 10.51 0 0 0 2 6.56q2 2.65 7.32 2.65a9.57 9.57 0 0 0 2.08-.32 2.25 2.25 0 0 0 1.7-1.2 6.9 6.9 0 0 1-6.24-3.28 12.93 12.93 0 0 1-2.08-7.06 18.76 18.76 0 0 1 .95-5.36q.95-3.09 2.21-6.5 1.64-3.66 3.34-7.19a55.18 55.18 0 0 1 3.34-6.05 6.88 6.88 0 0 0-3.28-3.91 17.47 17.47 0 0 0-5.68-2.27zm-21.57 38.6q2 0 5-2.33a47.6 47.6 0 0 0 5.86-5.55 68.26 68.26 0 0 0 5.36-6.75 37.56 37.56 0 0 0 3.47-5.8q.63-1.39 1.26-3.15t1.2-3.53q.57-1.77.95-3.47t.63-3a47 47 0 0 0-7.82 4.92 53.14 53.14 0 0 0-7.82 7.32 51 51 0 0 0-6.94 9.84 21.48 21.48 0 0 0-2.77 10.22q0 1.26 1.64 1.26zm82.49-60.54a18.37 18.37 0 0 0 1.83-3.66 23.32 23.32 0 0 0 .95-2.77 2.44 2.44 0 0 1 2.21.88 3.89 3.89 0 0 1 .57 2.14v1.26a4.69 4.69 0 0 1-.13 1.14v.5q9.84-.63 14.88-.88t6.05-.25q1.39 0 4.41.06t6.05.31a42.19 42.19 0 0 1 5.36.76q2.33.5 2.33 1.39-.25 1-2 1.13l.32-.31a.61.61 0 0 0 .19-.44l-1.26-.25q-.25 0-1.83.19a38.91 38.91 0 0 1-4.35.19q-.63 0-3 .19t-5.61.57l-7.06.82q-3.78.44-7.25.88t-6.18.82q-2.71.38-3.85.63-2 4.79-3.66 9.27t-3.15 8.77q17.78-2.4 27.06-3.59t11.16-1.32q-5.3 2-10.09 3.59T561 77.93q-4.16 1.14-9.27 2.08a111.78 111.78 0 0 1-11.54 1.45q-2.4 7.95-4.29 16.27a77.22 77.22 0 0 0-1.9 17.16q0 2.77.76 2.77a23 23 0 0 0 3.15-4.16q1.64-2.65 3.22-5.68t2.9-6.12q1.33-3.09 2.08-5.49a52 52 0 0 1-1.39 7.44 49.12 49.12 0 0 1-2.52 7.38 28 28 0 0 1-3.47 6 10.11 10.11 0 0 1-4.22 3.4 13.45 13.45 0 0 1-2.08-.88 4.87 4.87 0 0 1-1.64-1.45 7 7 0 0 1-1.07-2.59 20.46 20.46 0 0 1-.38-4.41q0-1.89.32-5.42t1-7.63q.69-4.1 1.58-8.26a62.3 62.3 0 0 1 2-7.44q-5.3.5-8.77.75t-5.11.25a5.34 5.34 0 0 1-1.64-3.91 5.6 5.6 0 0 1 .88-3.28 10.35 10.35 0 0 0 4.29.76 13.5 13.5 0 0 0 3.28-.38 21.56 21.56 0 0 0 2.77-.88 16.84 16.84 0 0 1-4.41 3.4L536 77.43q2-5.42 3.85-9.84t3.72-8.07q-1.39-.13-3.91-.57a39.19 39.19 0 0 1-5.11-1.26 15.32 15.32 0 0 1-4.48-2.21 4.11 4.11 0 0 1-1.89-3.41 2.17 2.17 0 0 1 .76-1.77q1 .76 2 1.39a8.66 8.66 0 0 0 2.08 1 17.81 17.81 0 0 0 2.65.63 22.52 22.52 0 0 0 3.66.25q3 0 7.06-.38zm43.52 21.95a42.49 42.49 0 0 0-9.46 5.49 52.12 52.12 0 0 0-8.7 8.26 43.66 43.66 0 0 0-5.8 9.08 22.23 22.23 0 0 0-2.27 9.59 14 14 0 0 0 .38 3.15 12.88 12.88 0 0 0 1.13 3.09 6.69 6.69 0 0 0 2 2.33 4.65 4.65 0 0 0 2.84.88 9 9 0 0 0 5.36-1.89 27.59 27.59 0 0 0 4.6-4.22 43.66 43.66 0 0 0 3.28-4.23q1.26-1.89 1.51-1.89a17.64 17.64 0 0 0-.5 4.29 10.51 10.51 0 0 0 2 6.56q2 2.65 7.32 2.65a9.59 9.59 0 0 0 2.08-.32 2.25 2.25 0 0 0 1.7-1.2 6.9 6.9 0 0 1-6.27-3.29 12.94 12.94 0 0 1-2.08-7.06 18.71 18.71 0 0 1 .95-5.36q.95-3.09 2.21-6.5 1.64-3.66 3.34-7.19a55.24 55.24 0 0 1 3.34-6.05 6.88 6.88 0 0 0-3.28-3.91 17.46 17.46 0 0 0-5.68-2.27zm-21.57 38.6q2 0 5-2.33a47.45 47.45 0 0 0 5.87-5.55 68.46 68.46 0 0 0 5.36-6.75 37.73 37.73 0 0 0 3.47-5.8q.63-1.39 1.26-3.15t1.2-3.53q.57-1.77.95-3.47t.63-3a47 47 0 0 0-7.82 4.92 53.07 53.07 0 0 0-7.82 7.32 51 51 0 0 0-6.94 9.84 21.49 21.49 0 0 0-2.78 10.22q0 1.26 1.64 1.26zm48.31-38.85a19.29 19.29 0 0 1 5.61.82 20.92 20.92 0 0 1 4.85 2.07 11.58 11.58 0 0 1 3.28 2.84 5.13 5.13 0 0 1 1.2 3.09 4.74 4.74 0 0 1-.82 2.46 14.44 14.44 0 0 1-2.08 2.58 27.56 27.56 0 0 1-2.84 2.46q-1.58 1.19-3 2.08-2.74 1.77-6.34 3.78t-6.88 4.29a26.39 26.39 0 0 0-4.6 3.85 13.57 13.57 0 0 0-2.84 4.35q0 .63 2.14.95a42 42 0 0 0 5.8.31q3.66 0 7.88-.19t8.13-.57q3.91-.38 6.88-.76a25 25 0 0 0 4.1-.76 12 12 0 0 1-4.73 3.22 47.32 47.32 0 0 1-7.38 2.46 77 77 0 0 1-8.14 1.58 52.87 52.87 0 0 1-7.13.57 37.42 37.42 0 0 1-4.73-.31 17.92 17.92 0 0 1-4.48-1.14 8.51 8.51 0 0 1-3.28-2.27 5.47 5.47 0 0 1-1.24-3.68 10.06 10.06 0 0 1 2.59-6.69A32.26 32.26 0 0 1 605 96.6a57.11 57.11 0 0 1 8.13-4.73q4.34-2.08 7.87-3.87 2.65-1.39 4.48-2.59a5.4 5.4 0 0 0 2.21-2.21 2.7 2.7 0 0 0-1.26-1.2 12.11 12.11 0 0 0-2.52-1 23.73 23.73 0 0 0-3.28-.69 24.07 24.07 0 0 0-3.41-.25 41.65 41.65 0 0 0-11.6 1.64 7.3 7.3 0 0 1-1.13-4 5.09 5.09 0 0 1 .13-1.39 30.38 30.38 0 0 1 5.61-1 61.65 61.65 0 0 1 6.36-.4zM657 75.16a22.22 22.22 0 0 1 4.35.44 14 14 0 0 1 4 1.45 11.51 11.51 0 0 1 3.15 2.52 7.46 7.46 0 0 1 1.7 3.78 17.31 17.31 0 0 1-2.72 5.65 32.49 32.49 0 0 1-4.92 5.61 26 26 0 0 1-6.24 4.23 15.11 15.11 0 0 1-6.56 1.64 8.08 8.08 0 0 1-3.41-.69 7.82 7.82 0 0 1-2.27-1.45 12 12 0 0 0-1.51 3.28 16.51 16.51 0 0 0-1 5.68q0 3.4 2.27 4.86a9.41 9.41 0 0 0 5.17 1.45 18.64 18.64 0 0 0 7.19-1.89 42.32 42.32 0 0 0 8.58-5.17 49.63 49.63 0 0 0 6.24-5.74 25.6 25.6 0 0 0 4.6-6.87 26.72 26.72 0 0 1-9.08 15.64 34.09 34.09 0 0 1-9 5.61 21.72 21.72 0 0 1-8.2 2 14.87 14.87 0 0 1-6.06-1.07 10.62 10.62 0 0 1-3.91-2.9 10.93 10.93 0 0 1-2.14-4.16 18.49 18.49 0 0 1-.63-4.86 25 25 0 0 1 2.65-10.66 45.41 45.41 0 0 1 7.57-11 42.19 42.19 0 0 1 4.92-4.67 13.2 13.2 0 0 1 5.26-2.71zm-11.9 20.68a2.11 2.11 0 0 0 1.39.82 7.09 7.09 0 0 0 1.76.32 13.1 13.1 0 0 0 3.85-1 32.73 32.73 0 0 0 5.61-2.78 21.74 21.74 0 0 0 5.11-4.29 8.24 8.24 0 0 0 2.18-5.56 5.33 5.33 0 0 0-3.91-4.41 8.89 8.89 0 0 0-4.73 2.4 46.37 46.37 0 0 0-4.73 4.79q-2.27 2.77-4 5.42a33.85 33.85 0 0 0-2.52 4.29zm34.43 23.46q.76-4 1.51-8.26t1.76-8.51a51.73 51.73 0 0 1 1.64-6.18q1-3 2.27-5.93.38-1.13 1.32-3.28a25.56 25.56 0 0 1 2.35-4.14 19.4 19.4 0 0 1 3.09-3.53 5.22 5.22 0 0 1 3.47-1.51c.34 0 .59.46.76 1.39a19.35 19.35 0 0 1 .25 3.41q0 1.89-.19 4.1t-.38 4.1q-.19 1.89-.31 3.4t-.13 2q-.76 4.29-1.83 8.51t-2.33 8.26a6.28 6.28 0 0 0 2 2.27 10.51 10.51 0 0 0 2.84 1.64 34.09 34.09 0 0 0 3.91-9.08 83.31 83.31 0 0 0 2.14-10.34q.25-2.52.44-5t.19-5a23 23 0 0 0-1.39-8.51 5.3 5.3 0 0 0-5.42-3.47 12.74 12.74 0 0 0-5.17.95 12.12 12.12 0 0 0-3.72 2.52 17.84 17.84 0 0 0-2.84 3.78q-1.26 2.21-2.4 4.73.38-1.64.63-3.28a20.62 20.62 0 0 0 .25-3.15 12.27 12.27 0 0 0-1.77-6.62q-1.76-2.84-6.69-3.47a9.53 9.53 0 0 1 3 4.35 18.11 18.11 0 0 1 .88 5.87 63 63 0 0 1-.76 9.14q-.76 5.11-1.77 10.4-.88 4.54-1.89 8.7t-1.64 7.07a8.11 8.11 0 0 0 2.71 1.7 15.2 15.2 0 0 0 3.22.95zm72.4-82.24q-.76 3-2.08 7.88t-3 10.53q-1.7 5.68-3.47 11.86t-3.28 11.86q-1.51 5.68-2.65 10.41a76.6 76.6 0 0 0-1.51 7.63q-.51 2.65-.88 5.86a51.51 51.51 0 0 0-.38 6 14.81 14.81 0 0 0 .63 4.73q.63 1.83 2.14 1.83a5.16 5.16 0 0 0 2.84-.69 11.06 11.06 0 0 0 1.83-1.45 4.64 4.64 0 0 1-2 3 6.74 6.74 0 0 1-4.16 1.32 4.86 4.86 0 0 1-4.6-2.71 16.4 16.4 0 0 1-1.45-7.63 43.4 43.4 0 0 1 .38-5.3q-1.13 2-2.77 4.48a38.89 38.89 0 0 1-3.66 4.67 26 26 0 0 1-4.16 3.72 9.36 9.36 0 0 1-4.29 1.77 11.08 11.08 0 0 1-6.31-2.9 7.44 7.44 0 0 1-2-5.3 28.76 28.76 0 0 1 2.77-11.92 44.36 44.36 0 0 1 6.81-10.78 22.87 22.87 0 0 1 2-2.4q1.51-1.64 3.41-3.4t3.85-3.28a10.3 10.3 0 0 1 3.34-1.89 17 17 0 0 1 3.28.38q1.89.38 2.9.63.51-1.77 1.39-4.79t1.89-6.56q1-3.53 2.14-7.38t2.12-7.37q1-3.47 1.89-6.24t1.39-4.29a23.91 23.91 0 0 1 2.72-1.27 27.83 27.83 0 0 1 3-1zm-37.84 75.81a5.28 5.28 0 0 0 3.34-1.64 34.73 34.73 0 0 0 3.72-4 51.93 51.93 0 0 0 3.53-4.92q1.64-2.59 2.65-4.48t2.34-4.48q1.32-2.71 2.46-5.49t2-5.24a13 13 0 0 0 .82-3.72.56.56 0 0 0-.63-.63 7.76 7.76 0 0 0-3.59.95 18.82 18.82 0 0 0-3.6 2.46 29.73 29.73 0 0 0-3.4 3.47 43.61 43.61 0 0 0-2.9 3.85q-1.64 2.15-3.22 4.67a53 53 0 0 0-2.9 5.3 37.61 37.61 0 0 0-2.15 5.55 18.3 18.3 0 0 0-.82 5.17 4.73 4.73 0 0 0 .5 2.14 1.92 1.92 0 0 0 1.89 1zm55.62-37.71a42.44 42.44 0 0 0-9.46 5.49 52.11 52.11 0 0 0-8.7 8.26 43.78 43.78 0 0 0-5.8 9.08 22.24 22.24 0 0 0-2.27 9.59 14 14 0 0 0 .38 3.15 12.87 12.87 0 0 0 1.14 3.09 6.67 6.67 0 0 0 2 2.33 4.65 4.65 0 0 0 2.84.88 9 9 0 0 0 5.36-1.89 27.64 27.64 0 0 0 4.6-4.22 43.86 43.86 0 0 0 3.28-4.23q1.26-1.89 1.51-1.89a17.64 17.64 0 0 0-.5 4.29 10.51 10.51 0 0 0 2 6.56q2 2.65 7.32 2.65a9.57 9.57 0 0 0 2.08-.32 2.25 2.25 0 0 0 1.7-1.2 6.9 6.9 0 0 1-6.24-3.28 12.93 12.93 0 0 1-2.08-7.06 18.76 18.76 0 0 1 .95-5.36q.95-3.09 2.21-6.5 1.64-3.66 3.34-7.19a55.11 55.11 0 0 1 3.34-6.05 6.88 6.88 0 0 0-3.28-3.91 17.47 17.47 0 0 0-5.68-2.27zm-21.57 38.6q2 0 5-2.33a47.63 47.63 0 0 0 5.87-5.55 68.45 68.45 0 0 0 5.36-6.75 37.56 37.56 0 0 0 3.47-5.8q.63-1.39 1.26-3.15t1.2-3.53q.57-1.77.95-3.47t.63-3a46.93 46.93 0 0 0-7.88 4.94 53.15 53.15 0 0 0-7.82 7.32 51 51 0 0 0-6.94 9.84 21.49 21.49 0 0 0-2.78 10.22q.04 1.25 1.68 1.25z" class="cls-3"/><path d="M54.53 5.86A16.31 16.31 0 0 1 64 8.38a9 9 0 0 1 3.91 7.31A11.92 11.92 0 0 0 63 13.17a24.23 24.23 0 0 0-6.24-.76 32.85 32.85 0 0 0-11 1.77A28.32 28.32 0 0 0 37 19.1a30.25 30.25 0 0 0-7 8.64 34.9 34.9 0 0 0-3.72 10.78 6.2 6.2 0 0 0-.13 1.2v1.07a11 11 0 0 0 3.41 8.39A30.24 30.24 0 0 0 38 54.67a54.14 54.14 0 0 0 6.62 2.65q3.47 1.14 6.81 2.15t6.18 2a21.68 21.68 0 0 1 4.73 2.27q-.13.76-1.89 2.33a33.67 33.67 0 0 1-5 3.53 69.73 69.73 0 0 1-7.95 4A62.73 62.73 0 0 1 36.87 77a86 86 0 0 1-9 1.64 78.71 78.71 0 0 1-10.22.63 10.27 10.27 0 0 1-6.37-1.7 8.93 8.93 0 0 1-3.09-4.73A6.52 6.52 0 0 0 11 73.9a23.1 23.1 0 0 0 4 .32 91.75 91.75 0 0 0 9.34-.51 93.45 93.45 0 0 0 9.71-1.51 57.82 57.82 0 0 0 16.52-5.42 24.86 24.86 0 0 0-6.81-4 73 73 0 0 1-8.58-4.23 39 39 0 0 1-4.35-3.09 19.08 19.08 0 0 1-6.18-9.21 22.17 22.17 0 0 1-.95-6.75 30.62 30.62 0 0 1 2.71-12.11A41.89 41.89 0 0 1 34 15.82a34.18 34.18 0 0 1 9.27-7.19 23.74 23.74 0 0 1 11.26-2.77z" class="cls-2"/></svg>