<svg xmlns="http://www.w3.org/2000/svg" viewBox="0 0 1022.8 222" style="enable-background:new 0 0 1022.8 222;"><style><![CDATA[.G{fill:#323246}]]></style><linearGradient id="A" gradientUnits="userSpaceOnUse" x1="-.237" y1="110.977" x2="300.764" y2="110.977"><stop offset="0" stop-color="#EBB432"/><stop offset="1" stop-color="#C80087"/></linearGradient><path d="M159.5 0l13.1 2.4c29.4 7.8 49.6 33.6 49.8 64.1v89c-.3 37.2-30 66.4-67.3 66.4-29.1 0-58.2 0-87.3-.1-33.4 0-60.1-22-66.6-54.8-7.4-37 20.9-74.5 58.6-77.6 3.5-.3 7.1-.4 10.6-.4l106.7-.1c.3-.7.5-1 .5-1.3 0-7.8.5-15.6-.2-23.3-1-11.4-10.5-19.5-22-19.5l-117.5-.1L25.3 1.2 35 0h124.5zm17.8 133.3h-4.5c-34.4 0-68.8-.1-103.1-.1l-4.8.1c-11.6.7-20.7 10.8-20.5 22.6s9.8 21.6 21.5 21.6l90.4-.1c10 0 19.8-7.6 20.9-17.5.9-8.6.1-17.3.1-26.6z" fill="url(#A)"/><path class="G" d="M469.7 155.6V67H489v10c8.2-10 18.4-13.1 29.9-12.4 11.7.7 21.1 5.5 28.2 15.3 6.1-9.2 14.9-13.7 25.4-15 14.2-1.7 27 1.1 36.4 12.9 4.6 5.8 6.9 12.7 7 20.1v55.3c0 .7-.2 1.3-.3 2.3h-19.5v-48.2c0-2.1-.1-4.1-.4-6.2-1.9-12.2-9.1-18.3-21.5-18-11.5.3-20.7 8.5-21.3 19.8-.5 10.3-.3 20.6-.3 30.9v21.6h-19.7l-.2-4v-45l-.1-3.4c-1.4-13.6-9.2-20.4-22.3-19.8-12.1.6-20.8 9.6-20.9 22v50.3l-19.7.1zm254.4 0h-19.4v-9l-1.1-.8c-.8 1.1-1.3 2.4-2.3 3.3-11.5 10.6-30.7 12.3-45.9 3.7-17.1-9.8-24-25.3-23.2-44.4.9-20.4 12.7-36.3 30.7-41.7 15-4.5 29-3 40.5 9 .2.2.5.3 1.2.7V44.8l19.4-6.9.1 117.7zm-71.7-44.5c.4 11 4.1 20.1 14.1 25.5 12.3 6.6 27.9 2.4 35-9.1 8-12.9 4.9-31.5-6.8-39.6-8.9-6.1-18.5-6.6-28-1.9-10.1 5.1-13.8 14.3-14.3 25.1zM428.7 76.2V67h19.4v88.6h-19.5V147c-.7.1-1 0-1.1.1-15.2 17.6-50.1 14.7-64.8-10.5-12.1-20.7-7.5-49 10.8-62.9 13.9-10.5 29.2-12.7 45.2-4.9 3.4 1.7 6.3 4.6 10 7.4zm1.1 35.2c.1-22.1-19.3-33.6-37.6-26.1-10.8 4.5-15 13.8-15.8 24.9-.9 12.4 6.7 24.4 17.9 28 18.7 6 35.5-6.7 35.5-26.8zm363-46.9c16.9.7 32.7 8.4 41 27 8.1 18.2 5.8 35.8-7.3 51-16.7 19.5-49.9 21.1-69.2 3.8-19.1-17.1-20.6-47.5-3.3-66.8 8.6-9.5 21.7-15 38.8-15zm25 46.8c0-16.4-11.6-28.2-27.7-28.2-16.3 0-27.7 11.5-27.8 28 0 16.6 11.5 28.5 27.7 28.5 16.1 0 27.8-12 27.8-28.3zm202.9-37.2l-8.5 15.2c-9.5-4.9-19.2-8-29.6-7.4-3 .2-6.1 1-8.9 2.1-3.7 1.5-5.9 4.3-5.6 8.6.2 4.2 3.2 6.1 6.6 6.9 6.7 1.5 13.5 2.3 20.2 3.7 4.6 1 9.1 2.3 13.4 4.1 19.7 8.5 17.5 32.4 4.7 42.1-7.2 5.4-15.5 7.8-24.3 8.5-14.6 1.2-28.5-1.2-41.3-8.7-1.2-.7-2.2-1.5-3.7-2.5l9-14.5c.6.2 1 .3 1.4.5 11 7.8 23.4 9.5 36.4 7.6 2.6-.4 5.3-1.5 7.7-2.7 2.9-1.4 4.4-4.1 4.4-7.3 0-3.4-2.1-5.8-5.1-6.7-5.6-1.6-11.3-2.5-17-3.8-5.1-1.1-10.4-1.8-15.3-3.5-11.5-4-17.3-11.8-17.5-22.5-.5-11.8 5.4-20.8 16.3-25.5 10.8-4.6 22.2-4.8 33.4-2.6 6.8 1.3 13.3 4.1 19.9 6.3 1.1.4 2.1 1.3 3.4 2.1zm-100.6 56.5l11.7 13c-8.5 12.5-30.1 18-48.5 12.5-19.5-5.8-31.6-22.6-32-44.4-.3-20.7 11.6-38.2 30.3-44.6 18.6-6.3 40.6-1.2 50.3 11.9l-12.3 13.1-5.8-4.3c-13.5-8.9-30.8-5.1-38.2 8.3-8.2 14.8-2.8 34.5 11.4 41 10.8 4.9 20.8 2.4 30-4.4.7-.5 1.4-1.1 2.2-1.7 0-.1.3-.1.9-.4z"/><linearGradient id="B" gradientUnits="userSpaceOnUse" x1="-.237" y1="111.01" x2="300.764" y2="111.01"><stop offset="0" stop-color="#EBB432"/><stop offset="1" stop-color="#C80087"/></linearGradient><path d="M245.6 89h40.5l12.8 44h-53.3V89z" fill="url(#B)"/></svg>