<svg xmlns="http://www.w3.org/2000/svg" id="shx" viewBox="0 0 660.36 317"><defs><style>.cls-1{fill:#305692;fill-rule:evenodd}.cls-2{fill:#6d6e70}</style></defs><path d="M214.77 220.03V62.91h60.93v54.42h69.49V62.91h60.85v157.12h-60.85v-63.42H275.7v63.42h-60.93zM9.83 172.05l73.75-.05c.63 4.27 3.26 7.44 8 9.79s11.25 3.4 19.48 3.4 14.37-.91 18.4-2.87c4.11-1.78 6.13-4.59 6.13-8.31 0-3.34-1.79-6.05-5.35-8.07s-9-3.5-16.3-4.35l-45.58-5.69c-18.78-2.25-33-7.3-42.53-15.21s-14.29-18.33-14.29-31.52q0-26.43 21.65-38.5t68.94-12.1q49.15 0 73 12.1 24 12.1 25.85 37.73h-70.8c-.77-5-3.72-8.7-8.93-11.17s-12.42-3.81-21.73-3.81c-6.83 0-12.18.93-16.07 2.87s-5.9 4.37-5.9 7.55c0 3 1.56 5.26 4.58 6.82s9.23 3 18.71 4.35l55.51 7.83c17.39 2.49 30.28 7.53 38.9 15.13s12.89 17.94 12.89 30.83q0 28.77-25.78 42.32t-81.16 13.49c-29.27 0-51.77-4.59-67.45-13.59s-23.68-22.13-23.92-38.97z" class="cls-1"/><path d="M10.79 276.67a66.25 66.25 0 0 1 .54-9.55 13.74 13.74 0 0 1 1.75-5.39 9.8 9.8 0 0 1 3.92-3.67 13.94 13.94 0 0 1 6-1.1 13.93 13.93 0 0 1 6 1.09 10 10 0 0 1 3.93 3.66 14.06 14.06 0 0 1 1.75 5.42 65.25 65.25 0 0 1 .57 9.52 64.94 64.94 0 0 1-.54 9.5 14.62 14.62 0 0 1-1.73 5.44 9.65 9.65 0 0 1-3.98 3.65 13.72 13.72 0 0 1-6 1.12 13.72 13.72 0 0 1-6-1.1 9.69 9.69 0 0 1-3.91-3.64 14 14 0 0 1-1.76-5.37 63.68 63.68 0 0 1-.54-9.58zm7.16 0q0 9.29 1.09 11.68a4 4 0 0 0 4 2.4 3.93 3.93 0 0 0 3.96-2.37q1-2.38 1-11.72c0-6.26-.37-10.18-1.09-11.77a3.94 3.94 0 0 0-4-2.38 4 4 0 0 0-4 2.4q-.98 2.38-.91 11.75zM65.37 296.32l-.06-37.6h12.16c3.71 0 6.37.8 8 2.47s2.45 4.37 2.46 8.15-.86 6.48-2.59 8.29-4.38 2.74-7.94 2.74h-5.1v15.93zm6.73-21.17H75c2.18 0 3.71-.43 4.59-1.29s1.32-2.32 1.32-4.38-.42-3.53-1.21-4.33-2.33-1.15-4.6-1.15h-3zM94.32 277.48a65.67 65.67 0 0 1 .54-9.57 13.7 13.7 0 0 1 1.77-5.37 9.63 9.63 0 0 1 3.89-3.67 13.68 13.68 0 0 1 6-1.1 13.89 13.89 0 0 1 6 1.09 9.72 9.72 0 0 1 3.93 3.66 14.34 14.34 0 0 1 1.76 5.41 64.6 64.6 0 0 1 .56 9.52 66.49 66.49 0 0 1-.54 9.52 14.5 14.5 0 0 1-1.72 5.42 9.73 9.73 0 0 1-3.92 3.67 13.65 13.65 0 0 1-6 1.1 13.93 13.93 0 0 1-6-1.09 9.8 9.8 0 0 1-3.92-3.66 13.84 13.84 0 0 1-1.78-5.41 64.39 64.39 0 0 1-.57-9.52zm7.15 0c0 6.18.38 10.09 1.11 11.68a4 4 0 0 0 4 2.4 4 4 0 0 0 3.93-2.36q1.05-2.34 1-11.73c0-6.26-.38-10.17-1.1-11.76a4.48 4.48 0 0 0-7.94 0c-.65 1.58-1.01 5.51-1.01 11.75zM126.94 296.21l-.06-37.59h11.25a20.35 20.35 0 0 1 5.48.58 7.43 7.43 0 0 1 3.36 1.89 10.56 10.56 0 0 1 2.8 4.87 36.67 36.67 0 0 1 .83 9.14 77.78 77.78 0 0 1-.54 11.32 16.89 16.89 0 0 1-1.89 5.63 6.86 6.86 0 0 1-3.6 3.23c-1.54.63-4.2.93-8 .95zm6.85-5.55h3.1a10.64 10.64 0 0 0 3.33-.36 2.84 2.84 0 0 0 1.5-1.17 10 10 0 0 0 1.38-4 54.88 54.88 0 0 0 .41-8.16A46.84 46.84 0 0 0 143 269a7.69 7.69 0 0 0-1.68-3.77 3.18 3.18 0 0 0-1.57-.88 12.57 12.57 0 0 0-3-.27h-3zM158.82 296.17l-.06-37.57h19.32v6.24h-12.34v8.72h11.51v6h-11.51v10.35h12.64v6.35zM186.07 296.12v-37.59h12.55c3.78 0 6.51.76 8.19 2.29s2.51 4.05 2.51 7.52a10.72 10.72 0 0 1-1.33 5.78 5.32 5.32 0 0 1-4 2.47q5 1.32 5.21 8.42v.49l.19 5a13.33 13.33 0 0 0 .55 3.4 5.56 5.56 0 0 0 1.36 2.21h-8.28a11.64 11.64 0 0 1-.46-2.22c-.09-.87-.16-2.06-.19-3.64l-.12-3.92v-1c0-2.18-.46-3.67-1.39-4.51s-2.82-1.2-5.66-1.2h-2.4v16.5zm6.73-21.7h4q3.05 0 4.23-1.23c.78-.82 1.19-2.27 1.18-4.37 0-1.88-.45-3.2-1.31-3.94s-2.43-1.1-4.72-1.1h-3.38zM238 294.65l-.06-37.59h11.25a21.28 21.28 0 0 1 5.49.57 7.79 7.79 0 0 1 3.36 1.89 10.76 10.76 0 0 1 2.8 4.87 37.56 37.56 0 0 1 .83 9.14 77.49 77.49 0 0 1-.54 11.32 16.67 16.67 0 0 1-1.89 5.63 7.06 7.06 0 0 1-3.6 3.25c-1.54.6-4.21.91-8 .91zm6.85-5.56h3.11a11.4 11.4 0 0 0 3.31-.33 3.07 3.07 0 0 0 1.51-1.18 10.26 10.26 0 0 0 1.39-4 58.17 58.17 0 0 0 .4-8.15 45.88 45.88 0 0 0-.5-8 7.48 7.48 0 0 0-1.66-3.75 3.4 3.4 0 0 0-1.58-.9 12.13 12.13 0 0 0-3-.24h-3zM267.08 294.61l8.41-37.6h9.4l8.6 37.57h-7.54l-1.88-9.46h-8.05l-1.78 9.44zm10-15.1h6l-3-15.76zM322.59 297v-37.59h7V297zM338.51 297l-.06-37.59h7.19l9.83 26.27-.24-26.29h6.62v37.6h-7.16l-9.9-26.32.31 26.33zM370.8 297v-37.6h19.64v6.15H377.8v8.89h11.95v6h-11.93v16.55zM396.95 278.11a64.31 64.31 0 0 1 .54-9.55 13.88 13.88 0 0 1 1.76-5.39 9.8 9.8 0 0 1 3.89-3.67 13.86 13.86 0 0 1 6-1.09 13.5 13.5 0 0 1 6 1.09 9.79 9.79 0 0 1 3.92 3.66 14.06 14.06 0 0 1 1.75 5.41 67.19 67.19 0 0 1 .58 9.52 63.06 63.06 0 0 1-.57 9.5 14.83 14.83 0 0 1-1.7 5.44 10 10 0 0 1-3.94 3.67 13.88 13.88 0 0 1-6 1.1 13.67 13.67 0 0 1-6-1.09 9.82 9.82 0 0 1-3.91-3.67 13.81 13.81 0 0 1-1.77-5.36 64.1 64.1 0 0 1-.55-9.57zm7.15 0c0 6.18.38 10.07 1.1 11.68a4 4 0 0 0 4 2.4 3.94 3.94 0 0 0 3.92-2.36q1.06-2.36 1.06-11.73t-1.1-11.77a4.5 4.5 0 0 0-7.94 0c-.71 1.61-1.05 5.52-1.04 11.78zM429.56 296.86v-37.59h12.55c3.81 0 6.52.76 8.2 2.29s2.52 4.05 2.52 7.53a10.78 10.78 0 0 1-1.32 5.77 5.38 5.38 0 0 1-4 2.49c3.34.87 5.06 3.69 5.2 8.42v.49l.22 5a12.78 12.78 0 0 0 .54 3.39 5.88 5.88 0 0 0 1.39 2.22h-8.31a11.47 11.47 0 0 1-.44-2.22c-.11-.87-.17-2.06-.2-3.62l-.11-3.92v-1c0-2.19-.47-3.67-1.4-4.49s-2.81-1.23-5.67-1.21h-2.36v16.5zm6.74-21.7h4c2 0 3.45-.41 4.25-1.23s1.17-2.27 1.17-4.37c0-1.88-.44-3.18-1.29-3.92s-2.46-1.12-4.73-1.12h-3.44zM460.94 296.81l-.06-37.6h10.54l5.19 24.33 5.11-24.35h10.53l.08 37.57h-6.7l.1-33.33-6.93 33.35h-4.32l-7-33.33.22 33.35zM498.45 296.75l8.42-37.6h9.39l8.59 37.59h-7.53l-1.88-9.46h-8l-1.8 9.46zm10-15.1h6l-3-15.78zM545.95 283.29h6.81v.71a7.15 7.15 0 0 1 0 .76q0 6.5-2.74 9.68t-8.38 3.18a13.35 13.35 0 0 1-4.62-.71 8.09 8.09 0 0 1-3.33-2.14 11.05 11.05 0 0 1-2.7-5.37 62.16 62.16 0 0 1-.8-11.9 74.65 74.65 0 0 1 .46-9.24 14.16 14.16 0 0 1 1.43-5.12 9.33 9.33 0 0 1 3.75-3.75 12.47 12.47 0 0 1 5.74-1.17c3.81 0 6.57 1 8.32 3s2.62 5.17 2.62 9.57h-6.78v-.91a8.23 8.23 0 0 0-1-4.55 3.34 3.34 0 0 0-3-1.48 3.41 3.41 0 0 0-3.44 2.08c-.61 1.37-.9 5.22-.88 11.46 0 6.78.28 10.89.88 12.36a3.85 3.85 0 0 0 6.68.47c.63-1.15.92-3.28.92-6.37zm-10.26 21.21c1.54.24 2.7.41 3.44.5a14.09 14.09 0 0 0 1.77.13 2.49 2.49 0 0 0 1.59-.43 1.62 1.62 0 0 0 .51-1.34 1.18 1.18 0 0 0-.61-1.1 3.86 3.86 0 0 0-1.94-.38h-.54v-5.2h2.82v2a5.71 5.71 0 0 1 3.64 1.42 4.27 4.27 0 0 1 1.26 3.28 4.56 4.56 0 0 1-1.61 3.77 7 7 0 0 1-4.57 1.36 23.94 23.94 0 0 1-2.39-.16c-.91-.11-2-.28-3.33-.52zM558.15 296.67l8.43-37.6h9.41l8.57 37.57h-7.53l-1.86-9.44h-8.05l-1.8 9.46zm8.51-41.06h-2.16a9.44 9.44 0 0 1 1.59-4.24 3.34 3.34 0 0 1 2.77-1.42 4.21 4.21 0 0 1 .76.06 3.48 3.48 0 0 1 .72.13l2.7.8c.17 0 .36.08.55.11a3.92 3.92 0 0 0 .6 0 1.56 1.56 0 0 0 1.2-.46 2.73 2.73 0 0 0 .66-1.37h2.16a9 9 0 0 1-1.61 4.26 3.63 3.63 0 0 1-2.95 1.54 3.88 3.88 0 0 1-.65-.02 4.88 4.88 0 0 1-.61-.14l-2.95-.87a3.13 3.13 0 0 0-.41-.09 3.08 3.08 0 0 0-.41 0 1.82 1.82 0 0 0-1.29.46 2.33 2.33 0 0 0-.67 1.26zm1.54 26h6l-3-15.76zM590 277.82a64.39 64.39 0 0 1 .54-9.55 13.44 13.44 0 0 1 1.77-5.39 9.56 9.56 0 0 1 3.88-3.67 14.21 14.21 0 0 1 6-1.1 13.62 13.62 0 0 1 6 1.1 9.9 9.9 0 0 1 3.94 3.64 13.93 13.93 0 0 1 1.75 5.42 67.7 67.7 0 0 1 .57 9.5 66.55 66.55 0 0 1-.55 9.54 14.19 14.19 0 0 1-1.73 5.42 9.66 9.66 0 0 1-3.91 3.66 16.72 16.72 0 0 1-11.95 0 9.69 9.69 0 0 1-3.91-3.66 13.79 13.79 0 0 1-1.76-5.37 63.7 63.7 0 0 1-.64-9.54zm7.14 0c0 6.19.39 10.09 1.1 11.68a4 4 0 0 0 4 2.4 3.91 3.91 0 0 0 3.92-2.35q1.07-2.36 1-11.73T606.12 266a4.5 4.5 0 0 0-7.94 0c-.7 1.64-1.07 5.57-1.06 11.81z" class="cls-2"/><path d="M460.84 58.59l38.87-3.42 100.9-8.9c6.49-.57 11.88 3.88 11.88 9.9v2.43h-73.57l-24.71 36.05-22.9-36.06zM612.49 63l-61 74.37 61 73.49V63zm0 162.33V231c0 6.23-5.52 10.34-12.13 9.17l-102.8-18.08c-3.62-.61-7.2-1.26-10.75-1.89l26.95-39.59 29.79 44.76zm-194.8-17.89l59.24-70.07-58.64-72.44a9.85 9.85 0 0 0-1.89 5.63q-.71 31.77-1.4 63.78T413.58 199a10 10 0 0 0 4.11 8.48zM628.75 21.26h-1.1v5.47h1.51a3.85 3.85 0 0 0 2.52-.69 2.6 2.6 0 0 0 .85-2.08 2.34 2.34 0 0 0-.91-2 5.09 5.09 0 0 0-2.87-.65zm1.12-4.51c3.31 0 5.83.57 7.58 1.72a5.73 5.73 0 0 1 2.65 5.06 6.31 6.31 0 0 1-1.25 3.85 7.19 7.19 0 0 1-3.48 2.38l5.11 10.09h-8L628.36 31h-.71v8.86h-7.36V16.75zm16.9 12a17.09 17.09 0 0 1-1.25 6.51 15.53 15.53 0 0 1-3.69 5.37 17.12 17.12 0 0 1-5.66 3.78 17.06 17.06 0 0 1-13.07 0 16.8 16.8 0 0 1-5.58-3.72 17.18 17.18 0 0 1-3.73-5.5 16.63 16.63 0 0 1 0-13 17.47 17.47 0 0 1 3.78-5.6A15.81 15.81 0 0 1 623 13a17.53 17.53 0 0 1 6.59-1.24 17.07 17.07 0 0 1 6.6 1.24 16.61 16.61 0 0 1 5.6 3.74 17.3 17.3 0 0 1 3.7 5.48 16.94 16.94 0 0 1 1.28 6.51zm-17.2-21.33A22.24 22.24 0 0 1 638 9a21.21 21.21 0 0 1 7 4.65 20.59 20.59 0 0 1 4.59 6.9 20.88 20.88 0 0 1 1.62 8.24 20.93 20.93 0 0 1-1.59 8.2 19.91 19.91 0 0 1-4.62 6.76 23.45 23.45 0 0 1-7.15 4.73 21.33 21.33 0 0 1-8.24 1.66 20.76 20.76 0 0 1-8.13-1.62 21.68 21.68 0 0 1-7-4.71 20.89 20.89 0 0 1-6.37-15 21.15 21.15 0 0 1 1.64-8.21 22.33 22.33 0 0 1 4.79-7.06A20.12 20.12 0 0 1 621.31 9a22.17 22.17 0 0 1 8.26-1.58zM214.77 220.03V62.91h60.93v54.42h69.49V62.91h60.85v157.12h-60.85v-63.42H275.7v63.42h-60.93zM9.83 172.05l73.75-.05c.63 4.27 3.26 7.44 8 9.79s11.25 3.4 19.48 3.4 14.37-.91 18.4-2.87c4.11-1.78 6.13-4.59 6.13-8.31 0-3.34-1.79-6.05-5.35-8.07s-9-3.5-16.3-4.35l-45.58-5.69c-18.78-2.25-33-7.3-42.53-15.21s-14.29-18.33-14.29-31.52q0-26.43 21.65-38.5t68.94-12.1q49.15 0 73 12.1 24 12.1 25.85 37.73h-70.8c-.77-5-3.72-8.7-8.93-11.17s-12.42-3.81-21.73-3.81c-6.83 0-12.18.93-16.07 2.87s-5.9 4.37-5.9 7.55c0 3 1.56 5.26 4.58 6.82s9.23 3 18.71 4.35l55.51 7.83c17.39 2.49 30.28 7.53 38.9 15.13s12.89 17.94 12.89 30.83q0 28.77-25.78 42.32t-81.16 13.49c-29.27 0-51.77-4.59-67.45-13.59s-23.68-22.13-23.92-38.97z" class="cls-1"/><path d="M10.79 276.67a66.25 66.25 0 0 1 .54-9.55 13.74 13.74 0 0 1 1.75-5.39 9.8 9.8 0 0 1 3.92-3.67 13.94 13.94 0 0 1 6-1.1 13.93 13.93 0 0 1 6 1.09 10 10 0 0 1 3.93 3.66 14.06 14.06 0 0 1 1.75 5.42 65.25 65.25 0 0 1 .57 9.52 64.94 64.94 0 0 1-.54 9.5 14.62 14.62 0 0 1-1.73 5.44 9.65 9.65 0 0 1-3.98 3.65 13.72 13.72 0 0 1-6 1.12 13.72 13.72 0 0 1-6-1.1 9.69 9.69 0 0 1-3.91-3.64 14 14 0 0 1-1.76-5.37 63.68 63.68 0 0 1-.54-9.58zm7.16 0q0 9.29 1.09 11.68a4 4 0 0 0 4 2.4 3.93 3.93 0 0 0 3.96-2.37q1-2.38 1-11.72c0-6.26-.37-10.18-1.09-11.77a3.94 3.94 0 0 0-4-2.38 4 4 0 0 0-4 2.4q-.98 2.38-.91 11.75z" class="cls-2"/><g><path d="M65.37 296.32l-.06-37.6h12.16c3.71 0 6.37.8 8 2.47s2.45 4.37 2.46 8.15-.86 6.48-2.59 8.29-4.38 2.74-7.94 2.74h-5.1v15.93zm6.73-21.17H75c2.18 0 3.71-.43 4.59-1.29s1.32-2.32 1.32-4.38-.42-3.53-1.21-4.33-2.33-1.15-4.6-1.15h-3zM94.32 277.48a65.67 65.67 0 0 1 .54-9.57 13.7 13.7 0 0 1 1.77-5.37 9.63 9.63 0 0 1 3.89-3.67 13.68 13.68 0 0 1 6-1.1 13.89 13.89 0 0 1 6 1.09 9.72 9.72 0 0 1 3.93 3.66 14.34 14.34 0 0 1 1.76 5.41 64.6 64.6 0 0 1 .56 9.52 66.49 66.49 0 0 1-.54 9.52 14.5 14.5 0 0 1-1.72 5.42 9.73 9.73 0 0 1-3.92 3.67 13.65 13.65 0 0 1-6 1.1 13.93 13.93 0 0 1-6-1.09 9.8 9.8 0 0 1-3.92-3.66 13.84 13.84 0 0 1-1.78-5.41 64.39 64.39 0 0 1-.57-9.52zm7.15 0c0 6.18.38 10.09 1.11 11.68a4 4 0 0 0 4 2.4 4 4 0 0 0 3.93-2.36q1.05-2.34 1-11.73c0-6.26-.38-10.17-1.1-11.76a4.48 4.48 0 0 0-7.94 0c-.65 1.58-1.01 5.51-1.01 11.75zM126.94 296.21l-.06-37.59h11.25a20.35 20.35 0 0 1 5.48.58 7.43 7.43 0 0 1 3.36 1.89 10.56 10.56 0 0 1 2.8 4.87 36.67 36.67 0 0 1 .83 9.14 77.78 77.78 0 0 1-.54 11.32 16.89 16.89 0 0 1-1.89 5.63 6.86 6.86 0 0 1-3.6 3.23c-1.54.63-4.2.93-8 .95zm6.85-5.55h3.1a10.64 10.64 0 0 0 3.33-.36 2.84 2.84 0 0 0 1.5-1.17 10 10 0 0 0 1.38-4 54.88 54.88 0 0 0 .41-8.16A46.84 46.84 0 0 0 143 269a7.69 7.69 0 0 0-1.68-3.77 3.18 3.18 0 0 0-1.57-.88 12.57 12.57 0 0 0-3-.27h-3zM158.82 296.17l-.06-37.57h19.32v6.24h-12.34v8.72h11.51v6h-11.51v10.35h12.64v6.35zM186.07 296.12v-37.59h12.55c3.78 0 6.51.76 8.19 2.29s2.51 4.05 2.51 7.52a10.72 10.72 0 0 1-1.33 5.78 5.32 5.32 0 0 1-4 2.47q5 1.32 5.21 8.42v.49l.19 5a13.33 13.33 0 0 0 .55 3.4 5.56 5.56 0 0 0 1.36 2.21h-8.28a11.64 11.64 0 0 1-.46-2.22c-.09-.87-.16-2.06-.19-3.64l-.12-3.92v-1c0-2.18-.46-3.67-1.39-4.51s-2.82-1.2-5.66-1.2h-2.4v16.5zm6.73-21.7h4q3.05 0 4.23-1.23c.78-.82 1.19-2.27 1.18-4.37 0-1.88-.45-3.2-1.31-3.94s-2.43-1.1-4.72-1.1h-3.38z" class="cls-2"/></g><g><path d="M238 294.65l-.06-37.59h11.25a21.28 21.28 0 0 1 5.49.57 7.79 7.79 0 0 1 3.36 1.89 10.76 10.76 0 0 1 2.8 4.87 37.56 37.56 0 0 1 .83 9.14 77.49 77.49 0 0 1-.54 11.32 16.67 16.67 0 0 1-1.89 5.63 7.06 7.06 0 0 1-3.6 3.25c-1.54.6-4.21.91-8 .91zm6.85-5.56h3.11a11.4 11.4 0 0 0 3.31-.33 3.07 3.07 0 0 0 1.51-1.18 10.26 10.26 0 0 0 1.39-4 58.17 58.17 0 0 0 .4-8.15 45.88 45.88 0 0 0-.5-8 7.48 7.48 0 0 0-1.66-3.75 3.4 3.4 0 0 0-1.58-.9 12.13 12.13 0 0 0-3-.24h-3zM267.08 294.61l8.41-37.6h9.4l8.6 37.57h-7.54l-1.88-9.46h-8.05l-1.78 9.44zm10-15.1h6l-3-15.76z" class="cls-2"/></g><g><path d="M322.59 297v-37.59h7V297zM338.51 297l-.06-37.59h7.19l9.83 26.27-.24-26.29h6.62v37.6h-7.16l-9.9-26.32.31 26.33zM370.8 297v-37.6h19.64v6.15H377.8v8.89h11.95v6h-11.93v16.55zM396.95 278.11a64.31 64.31 0 0 1 .54-9.55 13.88 13.88 0 0 1 1.76-5.39 9.8 9.8 0 0 1 3.89-3.67 13.86 13.86 0 0 1 6-1.09 13.5 13.5 0 0 1 6 1.09 9.79 9.79 0 0 1 3.92 3.66 14.06 14.06 0 0 1 1.75 5.41 67.19 67.19 0 0 1 .58 9.52 63.06 63.06 0 0 1-.57 9.5 14.83 14.83 0 0 1-1.7 5.44 10 10 0 0 1-3.94 3.67 13.88 13.88 0 0 1-6 1.1 13.67 13.67 0 0 1-6-1.09 9.82 9.82 0 0 1-3.91-3.67 13.81 13.81 0 0 1-1.77-5.36 64.1 64.1 0 0 1-.55-9.57zm7.15 0c0 6.18.38 10.07 1.1 11.68a4 4 0 0 0 4 2.4 3.94 3.94 0 0 0 3.92-2.36q1.06-2.36 1.06-11.73t-1.1-11.77a4.5 4.5 0 0 0-7.94 0c-.71 1.61-1.05 5.52-1.04 11.78zM429.56 296.86v-37.59h12.55c3.81 0 6.52.76 8.2 2.29s2.52 4.05 2.52 7.53a10.78 10.78 0 0 1-1.32 5.77 5.38 5.38 0 0 1-4 2.49c3.34.87 5.06 3.69 5.2 8.42v.49l.22 5a12.78 12.78 0 0 0 .54 3.39 5.88 5.88 0 0 0 1.39 2.22h-8.31a11.47 11.47 0 0 1-.44-2.22c-.11-.87-.17-2.06-.2-3.62l-.11-3.92v-1c0-2.19-.47-3.67-1.4-4.49s-2.81-1.23-5.67-1.21h-2.36v16.5zm6.74-21.7h4c2 0 3.45-.41 4.25-1.23s1.17-2.27 1.17-4.37c0-1.88-.44-3.18-1.29-3.92s-2.46-1.12-4.73-1.12h-3.44zM460.94 296.81l-.06-37.6h10.54l5.19 24.33 5.11-24.35h10.53l.08 37.57h-6.7l.1-33.33-6.93 33.35h-4.32l-7-33.33.22 33.35zM498.45 296.75l8.42-37.6h9.39l8.59 37.59h-7.53l-1.88-9.46h-8l-1.8 9.46zm10-15.1h6l-3-15.78zM545.95 283.29h6.81v.71a7.15 7.15 0 0 1 0 .76q0 6.5-2.74 9.68t-8.38 3.18a13.35 13.35 0 0 1-4.62-.71 8.09 8.09 0 0 1-3.33-2.14 11.05 11.05 0 0 1-2.7-5.37 62.16 62.16 0 0 1-.8-11.9 74.65 74.65 0 0 1 .46-9.24 14.16 14.16 0 0 1 1.43-5.12 9.33 9.33 0 0 1 3.75-3.75 12.47 12.47 0 0 1 5.74-1.17c3.81 0 6.57 1 8.32 3s2.62 5.17 2.62 9.57h-6.78v-.91a8.23 8.23 0 0 0-1-4.55 3.34 3.34 0 0 0-3-1.48 3.41 3.41 0 0 0-3.44 2.08c-.61 1.37-.9 5.22-.88 11.46 0 6.78.28 10.89.88 12.36a3.85 3.85 0 0 0 6.68.47c.63-1.15.92-3.28.92-6.37zm-10.26 21.21c1.54.24 2.7.41 3.44.5a14.09 14.09 0 0 0 1.77.13 2.49 2.49 0 0 0 1.59-.43 1.62 1.62 0 0 0 .51-1.34 1.18 1.18 0 0 0-.61-1.1 3.86 3.86 0 0 0-1.94-.38h-.54v-5.2h2.82v2a5.71 5.71 0 0 1 3.64 1.42 4.27 4.27 0 0 1 1.26 3.28 4.56 4.56 0 0 1-1.61 3.77 7 7 0 0 1-4.57 1.36 23.94 23.94 0 0 1-2.39-.16c-.91-.11-2-.28-3.33-.52zM558.15 296.67l8.43-37.6h9.41l8.57 37.57h-7.53l-1.86-9.44h-8.05l-1.8 9.46zm8.51-41.06h-2.16a9.44 9.44 0 0 1 1.59-4.24 3.34 3.34 0 0 1 2.77-1.42 4.21 4.21 0 0 1 .76.06 3.48 3.48 0 0 1 .72.13l2.7.8c.17 0 .36.08.55.11a3.92 3.92 0 0 0 .6 0 1.56 1.56 0 0 0 1.2-.46 2.73 2.73 0 0 0 .66-1.37h2.16a9 9 0 0 1-1.61 4.26 3.63 3.63 0 0 1-2.95 1.54 3.88 3.88 0 0 1-.65-.02 4.88 4.88 0 0 1-.61-.14l-2.95-.87a3.13 3.13 0 0 0-.41-.09 3.08 3.08 0 0 0-.41 0 1.82 1.82 0 0 0-1.29.46 2.33 2.33 0 0 0-.67 1.26zm1.54 26h6l-3-15.76zM590 277.82a64.39 64.39 0 0 1 .54-9.55 13.44 13.44 0 0 1 1.77-5.39 9.56 9.56 0 0 1 3.88-3.67 14.21 14.21 0 0 1 6-1.1 13.62 13.62 0 0 1 6 1.1 9.9 9.9 0 0 1 3.94 3.64 13.93 13.93 0 0 1 1.75 5.42 67.7 67.7 0 0 1 .57 9.5 66.55 66.55 0 0 1-.55 9.54 14.19 14.19 0 0 1-1.73 5.42 9.66 9.66 0 0 1-3.91 3.66 16.72 16.72 0 0 1-11.95 0 9.69 9.69 0 0 1-3.91-3.66 13.79 13.79 0 0 1-1.76-5.37 63.7 63.7 0 0 1-.64-9.54zm7.14 0c0 6.19.39 10.09 1.1 11.68a4 4 0 0 0 4 2.4 3.91 3.91 0 0 0 3.92-2.35q1.07-2.36 1-11.73T606.12 266a4.5 4.5 0 0 0-7.94 0c-.7 1.64-1.07 5.57-1.06 11.81z" class="cls-2"/></g><path d="M460.84 58.59l38.87-3.42 100.9-8.9c6.49-.57 11.88 3.88 11.88 9.9v2.43h-73.57l-24.71 36.05-22.9-36.06zM612.49 63l-61 74.37 61 73.49V63zm0 162.33V231c0 6.23-5.52 10.34-12.13 9.17l-102.8-18.08c-3.62-.61-7.2-1.26-10.75-1.89l26.95-39.59 29.79 44.76zm-194.8-17.89l59.24-70.07-58.64-72.44a9.85 9.85 0 0 0-1.89 5.63q-.71 31.77-1.4 63.78T413.58 199a10 10 0 0 0 4.11 8.48zM628.75 21.26h-1.1v5.47h1.51a3.85 3.85 0 0 0 2.52-.69 2.6 2.6 0 0 0 .85-2.08 2.34 2.34 0 0 0-.91-2 5.09 5.09 0 0 0-2.87-.65zm1.12-4.51c3.31 0 5.83.57 7.58 1.72a5.73 5.73 0 0 1 2.65 5.06 6.31 6.31 0 0 1-1.25 3.85 7.19 7.19 0 0 1-3.48 2.38l5.11 10.09h-8L628.36 31h-.71v8.86h-7.36V16.75zm16.9 12a17.09 17.09 0 0 1-1.25 6.51 15.53 15.53 0 0 1-3.69 5.37 17.12 17.12 0 0 1-5.66 3.78 17.06 17.06 0 0 1-13.07 0 16.8 16.8 0 0 1-5.58-3.72 17.18 17.18 0 0 1-3.73-5.5 16.63 16.63 0 0 1 0-13 17.47 17.47 0 0 1 3.78-5.6A15.81 15.81 0 0 1 623 13a17.53 17.53 0 0 1 6.59-1.24 17.07 17.07 0 0 1 6.6 1.24 16.61 16.61 0 0 1 5.6 3.74 17.3 17.3 0 0 1 3.7 5.48 16.94 16.94 0 0 1 1.28 6.51zm-17.2-21.33A22.24 22.24 0 0 1 638 9a21.21 21.21 0 0 1 7 4.65 20.59 20.59 0 0 1 4.59 6.9 20.88 20.88 0 0 1 1.62 8.24 20.93 20.93 0 0 1-1.59 8.2 19.91 19.91 0 0 1-4.62 6.76 23.45 23.45 0 0 1-7.15 4.73 21.33 21.33 0 0 1-8.24 1.66 20.76 20.76 0 0 1-8.13-1.62 21.68 21.68 0 0 1-7-4.71 20.89 20.89 0 0 1-6.37-15 21.15 21.15 0 0 1 1.64-8.21 22.33 22.33 0 0 1 4.79-7.06A20.12 20.12 0 0 1 621.31 9a22.17 22.17 0 0 1 8.26-1.58z" class="cls-1"/></svg>