<svg id="logo-devday" xmlns="http://www.w3.org/2000/svg" viewBox="0 0 518.74 160.88">
  <defs>
    <style>
      .fatec, .taquaritinga, .day {
        fill: #878787
      }
      .brackets {
        fill: #e60000
      }
      .dev {
        fill: red
      }
    </style>
  </defs>
  <title>Fatec Dev Day</title>
  <g class="taquaritinga">
    <path d="M325.06 123.65a2.36 2.36 0 1 0 2.36 2.36 2.34 2.34 0 0 0-2.36-2.36zM347.3 123.65a2.36 2.36 0 1 0 2.36 2.36 2.34 2.34 0 0 0-2.36-2.36z" transform="translate(-2.83 -1.76)"/>
    <path d="M235.9 134.77a6.56 6.56 0 0 0-6.12-3.44c-4.32 0-7.28 3-7.28 8.76v5.6c0 5.68 2.8 8.8 7.28 8.8a6.5 6.5 0 0 0 6.12-3.49v3.08h3.52v-22.43h-3.52v3.12zm-.2 10.4c0 4-1.64 6.2-4.72 6.2s-4.72-2.12-4.72-6.2v-4.6c0-4 1.64-6.12 4.72-6.12s4.72 2 4.72 6v4.76zM257.62 134.89a6.45 6.45 0 0 0-6.12-3.48c-4.48 0-7.28 3.12-7.28 8.8v5.44c0 5.64 2.8 8.76 7.28 8.76 3.44 0 5.28-1.72 5.92-3.2v10.48h3.72v-30h-3.52v3.24zm-.2 10.52c0 4-1.68 6.12-4.72 6.12s-4.72-2.08-4.72-6.12v-4.68c0-4.08 1.6-6.2 4.72-6.2 2.92 0 4.72 2 4.72 6v4.88zM300.5 134.77a6.56 6.56 0 0 0-6.12-3.44c-4.32 0-7.28 3-7.28 8.76v5.6c0 5.68 2.8 8.8 7.28 8.8a6.49 6.49 0 0 0 6.12-3.49v3.08h3.5v-22.43h-3.5v3.12zm-.2 10.4c0 4-1.64 6.2-4.72 6.2s-4.72-2.12-4.72-6.2v-4.6c0-4 1.64-6.12 4.72-6.12s4.72 2 4.72 6v4.76z"
      transform="translate(-2.83 -1.76)"/>
    <path d="M220.23 127.97h-6.84v24.39h-3.92v-24.39h-6.8v-3.8h17.56v3.8z"/>
    <path d="M279.14 146.57a4.41 4.41 0 0 1-4.72 4.56c-2.52 0-4.76-1.52-4.76-4.56v-14.92h-3.72V146c0 5.12 3.24 8.48 8.48 8.48s8.48-3.36 8.48-8.48v-14.4h-3.76v14.92zM312.74 135.73v-4.08h-3.52v22.48h3.72v-13c0-4 2.2-6 5.88-6h.44v-3.72h-.68a6.06 6.06 0 0 0-5.84 4.32z"
      transform="translate(-2.83 -1.76)"/>
    <path d="M320.35 129.89h3.72v22.48h-3.72z"/>
    <path d="M336.42 145.25v-10.36h4.92v-3.2h-4.92v-4.52h-2.32c0 3.68-1.2 4.88-3.72 4.88v2.84h2.24v10.88c0 5.36 1 8.68 6.76 8.68a20.5 20.5 0 0 0 2.12-.12v-3.4c-4.88.28-5.08-.4-5.08-5.68z" transform="translate(-2.83 -1.76)"/>
    <path d="M342.59 129.89h3.72v22.48h-3.72z"/>
    <path d="M363.9 131.37a6.54 6.54 0 0 0-6.12 3.44v-3.16h-3.52v22.48H358v-13.4c0-4.28 1.2-6.24 4.72-6.24s4.76 2.28 4.76 6v13.6h3.76v-14c-.02-5.6-2.82-8.72-7.34-8.72zM388.82 134.77c-.68-1.76-3.08-3.32-6.48-3.32-4.2 0-6.92 3.16-6.92 8.64v5.6c0 5.68 2.8 8.8 7.28 8.8 3.44 0 5.28-1.92 5.92-3.44v4c0 3-1.36 4.6-4.68 4.6s-4.6-1.84-4.6-3.76h-3.64c0 3.44 1.68 6.72 8.24 6.72s8.4-2.92 8.4-8.32v-22.64h-3.52v3.12zm-.2 10.76c0 4-1.76 6-4.72 6-3.12 0-4.72-2.12-4.72-6.2v-4.76c0-4 1.64-6.12 4.72-6.12 2.88 0 4.72 1.8 4.72 5.36v5.72zM410.34 134.77a6.56 6.56 0 0 0-6.12-3.44c-4.32 0-7.28 3-7.28 8.76v5.6c0 5.68 2.8 8.8 7.28 8.8a6.49 6.49 0 0 0 6.12-3.44v3.08h3.52v-22.48h-3.52v3.12zm-.2 10.4c0 4-1.64 6.2-4.72 6.2s-4.72-2.12-4.72-6.2v-4.6c0-4 1.64-6.12 4.72-6.12s4.72 2 4.72 6v4.76z"
      transform="translate(-2.83 -1.76)"/>
  </g>
  <g class="fatec">
    <path d="M68.03 28.2h3.92V15.76h7.92v-3.48h-7.92V3.8h11.16V0H68.03v28.2z"/>
    <path d="M100.06 10.6a6.56 6.56 0 0 0-6.12-3.44c-4.32 0-7.28 3-7.28 8.76v5.6c0 5.68 2.8 8.8 7.28 8.8a6.5 6.5 0 0 0 6.12-3.44V30h3.52V7.48h-3.52v3.12zm-.2 10.4c0 4-1.64 6.2-4.72 6.2s-4.72-2.12-4.72-6.2v-4.6c0-4 1.64-6.12 4.72-6.12s4.72 2 4.72 6V21zM113.19 21.08V10.72h4.92v-3.2h-4.92V3h-2.32c0 3.68-1.2 4.88-3.72 4.88v2.84h2.24V21.6c0 5.36 1 8.68 6.76 8.68a20.52 20.52 0 0 0 2.12-.12v-3.4c-4.88.24-5.08-.4-5.08-5.68zM129 7.16c-5.36 0-8.48 3.44-8.48 8.92v5.44c0 5.4 3.12 8.84 8.48 8.84s8.44-3.4 8.44-7.52v-.16h-3.74V23c0 2.48-1.92 4.2-4.72 4.2a4.57 4.57 0 0 1-4.76-5v-2.44h13.2v-3.88c0-5.52-3.12-8.72-8.42-8.72zm4.7 9.84h-9.48v-1.68c0-3.28 1.88-5 4.76-5s4.72 1.6 4.72 5.32V17zM149.7 10.68c3.2 0 4.72 1.88 4.72 5.56h3.72c0-5.72-3-9-8.44-9s-8.48 3.44-8.48 9v5.36c0 5.4 3.12 8.84 8.48 8.84s8.44-3.44 8.44-9h-3.72c0 3.68-1.6 5.6-4.72 5.6s-4.76-2.08-4.76-5.36v-5.04c.01-4.2 1.44-5.96 4.76-5.96z"
      transform="translate(-2.83 -1.76)"/>
    <path d="M53.86 0h4.25v28.35h-4.25z"/>
  </g>
  <g class="day">
    <path d="M345.83 78.3A36.83 36.83 0 0 0 309 41.45h-36.87v73.7H309a36.83 36.83 0 0 0 36.83-36.85zM309 103.81h-25.54v-51H309a25.51 25.51 0 0 1 0 51zM474.39 52.79a5.67 5.67 0 0 0-5.26 3.56l-17.73 44.33-19.06-44.46a5.67 5.67 0 0 0-5.21-3.44h-7.6l26.57 61.12-6.44 20.35a5.67 5.67 0 0 1-5.26 3.56H428a5.67 5.67 0 0 0-5.67 5.67v5.67h15a11.34 11.34 0 0 0 10.56-7.15l34-89.25h-7.5zM402.52 52.79h-45.35v5.67a5.67 5.67 0 0 0 5.67 5.67h34a5.67 5.67 0 0 1 5.67 5.67v5.67h-39.68A11.34 11.34 0 0 0 351.5 86.8v17a11.34 11.34 0 0 0 11.34 11.34h39.69a11.34 11.34 0 0 0 11.34-11.34V64.13a11.34 11.34 0 0 0-11.35-11.34zm0 45.35a5.67 5.67 0 0 1-5.67 5.67H368.5a5.67 5.67 0 0 1-5.67-5.67v-5.67a5.67 5.67 0 0 1 5.67-5.67h34v11.34z"
      transform="translate(-2.83 -1.76)"/>
  </g>
  <g class="dev">
    <path d="M93.54 41.45H56.69v73.7h36.85a36.85 36.85 0 1 0 0-73.7zm0 62.36H68v-51h25.54a25.51 25.51 0 0 1 0 51zM232.44 101.29l-18.4-45a5.67 5.67 0 0 0-5.25-3.52h-7.53l25.51 62.36h11.34l25.51-62.36h-7.53a5.67 5.67 0 0 0-5.25 3.52zM187.09 52.79H147.4a11.34 11.34 0 0 0-11.34 11.34v39.69a11.34 11.34 0 0 0 11.34 11.34h45.35v-5.67a5.67 5.67 0 0 0-5.67-5.67h-34a5.67 5.67 0 0 1-5.67-5.67v-5.68h39.69a11.34 11.34 0 0 0 11.34-11.34v-17a11.34 11.34 0 0 0-11.35-11.34zm0 22.68a5.67 5.67 0 0 1-5.67 5.67h-34V69.79a5.67 5.67 0 0 1 5.67-5.67h28.35a5.67 5.67 0 0 1 5.67 5.67v5.67z"
      transform="translate(-2.83 -1.76)"/>
  </g>
  <path
    class="brackets"
    d="M507.4 64.13V41.45c0-9.4-10.14-17-22.68-17v5.67a11.33 11.33 0 0 1 11.34 11.34v22.67c0 7.83 5.07 14.17 11.34 14.17-6.27 0-11.34 6.34-11.34 14.17v22.68a11.33 11.33 0 0 1-11.34 11.34v5.67c12.53 0 22.68-7.61 22.68-17V92.47a14.17 14.17 0 0 1 14.17-14.17 14.17 14.17 0 0 1-14.17-14.17z"
    transform="translate(-2.83 -1.76)"/>
  <path
    class="brackets"
    d="M28.35 64.13V41.45a11.33 11.33 0 0 1 11.34-11.34v-5.67C27.15 24.44 17 32 17 41.45v22.68A14.17 14.17 0 0 1 2.83 78.3 14.17 14.17 0 0 1 17 92.47v22.68c0 9.4 10.14 17 22.68 17v-5.67a11.33 11.33 0 0 1-11.34-11.34V92.47c0-7.83-5.07-14.17-11.34-14.17 6.28 0 11.35-6.3 11.35-14.17z"
    transform="translate(-2.83 -1.76)"/>
</svg>
