<svg id="logo-devday" xmlns="http://www.w3.org/2000/svg" viewBox="0 0 518.74 152.55">
  <defs>
    <style>
      .fatec, .year, .day { fill: #878787 }
      .dev { fill: red }
      .brackets { fill: #e60000 }
    </style>
  </defs>
  <title>Fatec Dev Day</title>
  <path class="fatec" d="M60.69 29.73h-3.87V1.89h14.89v3.75h-11V14h7.82v3.44h-7.84v12.29zM79.61 30.09a6.58 6.58 0 0 1-5.27-2.23q-1.92-2.23-1.92-6.46v-5.53q0-4.31 2-6.48a6.73 6.73 0 0 1 5.19-2.17 7.36 7.36 0 0 1 4.07 1.17 5.4 5.4 0 0 1 1.24 1.11 5.57 5.57 0 0 1 .73 1.13v-3.1h3.48v22.2h-3.47v-3a4.71 4.71 0 0 1-.73 1.14 6 6 0 0 1-1.24 1.11 6.49 6.49 0 0 1-1.78.83 7.77 7.77 0 0 1-2.3.28zM80.8 27a4.09 4.09 0 0 0 3.48-1.56 7.45 7.45 0 0 0 1.18-4.56v-4.7a6.79 6.79 0 0 0-1.22-4.4 4.21 4.21 0 0 0-3.44-1.48 4.11 4.11 0 0 0-3.48 1.54 7.29 7.29 0 0 0-1.18 4.5v4.54q0 6.12 4.66 6.12zM103.47 10.73h-4.86V21q0 2 .1 3.12a3.09 3.09 0 0 0 .59 1.74 2.29 2.29 0 0 0 1.52.73 15.11 15.11 0 0 0 2.84 0v3.36a20.49 20.49 0 0 1-2.09.12 8.54 8.54 0 0 1-3.46-.59 4.56 4.56 0 0 1-2-1.7 6.78 6.78 0 0 1-.95-2.71 24.5 24.5 0 0 1-.24-3.58V10.73h-2.23v-2.8a3.45 3.45 0 0 0 2.78-1 6 6 0 0 0 .89-3.77h2.29v4.41h4.86v3.16zM123.73 19.66h-13v2.49a4.49 4.49 0 0 0 4.7 4.9 4.89 4.89 0 0 0 3.38-1.15 3.83 3.83 0 0 0 1.28-3v-.36h3.67v.16a7.27 7.27 0 0 1-.57 2.88 7 7 0 0 1-1.64 2.35 7.86 7.86 0 0 1-2.61 1.6 9.75 9.75 0 0 1-3.52.59 8 8 0 0 1-6.18-2.35A9 9 0 0 1 107 21.4V16a9.11 9.11 0 0 1 2.19-6.44 8 8 0 0 1 6.18-2.37 8.18 8.18 0 0 1 6.14 2.25 8.74 8.74 0 0 1 2.19 6.36v3.83zM110.7 17h9.36v-1.41a5.5 5.5 0 0 0-1.24-4 4.62 4.62 0 0 0-3.42-1.24 4.7 4.7 0 0 0-3.4 1.23 4.92 4.92 0 0 0-1.28 3.69V17zM140.52 16.18q0-5.49-4.66-5.49a4.33 4.33 0 0 0-3.59 1.38 7.24 7.24 0 0 0-1.11 4.5v4.86a5.93 5.93 0 0 0 1.17 3.87 4.3 4.3 0 0 0 3.54 1.42q4.66 0 4.66-5.53h3.67a9.45 9.45 0 0 1-2.13 6.56 7.91 7.91 0 0 1-6.2 2.37 8 8 0 0 1-6.18-2.35 9 9 0 0 1-2.19-6.38v-5.28a9.17 9.17 0 0 1 2.19-6.48 9.33 9.33 0 0 1 12.38 0 9.42 9.42 0 0 1 2.13 6.6h-3.67z" transform="translate(-2.83 -1.89)"/>
  <path class="dev" d="M93.54 41.45H56.69v73.7h36.85a36.85 36.85 0 1 0 0-73.7zm0 62.36H68v-51h25.54a25.51 25.51 0 0 1 0 51zM232.44 101.29l-18.4-45a5.67 5.67 0 0 0-5.25-3.52h-7.53l25.51 62.36h11.34l25.51-62.36h-7.53a5.67 5.67 0 0 0-5.25 3.52zM187.09 52.79H147.4a11.34 11.34 0 0 0-11.34 11.34v39.69a11.34 11.34 0 0 0 11.34 11.34h45.35v-5.67a5.67 5.67 0 0 0-5.67-5.67h-34a5.67 5.67 0 0 1-5.67-5.67v-5.68h39.69a11.34 11.34 0 0 0 11.34-11.34v-17a11.34 11.34 0 0 0-11.35-11.34zm0 22.68a5.67 5.67 0 0 1-5.67 5.67h-34V69.79a5.67 5.67 0 0 1 5.67-5.67h28.35a5.67 5.67 0 0 1 5.67 5.67v5.67z" transform="translate(-2.83 -1.89)"/>
  <path class="day" d="M345.83 78.3A36.83 36.83 0 0 0 309 41.45h-36.87v73.7H309a36.83 36.83 0 0 0 36.83-36.85zM309 103.81h-25.54v-51H309a25.51 25.51 0 0 1 0 51zM474.39 52.79a5.67 5.67 0 0 0-5.26 3.56l-17.73 44.33-19.06-44.46a5.67 5.67 0 0 0-5.21-3.44h-7.6l26.57 61.12-6.44 20.35a5.67 5.67 0 0 1-5.26 3.56H428a5.67 5.67 0 0 0-5.67 5.67v5.67h15a11.34 11.34 0 0 0 10.56-7.15l34-89.25h-7.5zM402.52 52.79h-45.35v5.67a5.67 5.67 0 0 0 5.67 5.67h34a5.67 5.67 0 0 1 5.67 5.67v5.67h-39.68A11.34 11.34 0 0 0 351.5 86.8v17a11.34 11.34 0 0 0 11.34 11.34h39.69a11.34 11.34 0 0 0 11.34-11.34V64.13a11.34 11.34 0 0 0-11.35-11.34zm0 45.35a5.67 5.67 0 0 1-5.67 5.67H368.5a5.67 5.67 0 0 1-5.67-5.67v-5.67a5.67 5.67 0 0 1 5.67-5.67h34v11.34z" transform="translate(-2.83 -1.89)"/>
  <path class="brackets left" d="M28.35 64.13V41.45a11.33 11.33 0 0 1 11.34-11.34v-5.67C27.15 24.44 17 32 17 41.45v22.68A14.17 14.17 0 0 1 2.83 78.3 14.17 14.17 0 0 1 17 92.47v22.68c0 9.4 10.14 17 22.68 17v-5.67a11.33 11.33 0 0 1-11.34-11.34V92.47c0-7.83-5.07-14.17-11.34-14.17 6.28 0 11.35-6.3 11.35-14.17z" transform="translate(-2.83 -1.89)"/>
  <path class="brackets right" d="M507.4 64.13V41.45c0-9.4-10.14-17-22.68-17v5.67a11.33 11.33 0 0 1 11.34 11.34v22.67c0 7.83 5.07 14.17 11.34 14.17-6.27 0-11.34 6.34-11.34 14.17v22.68a11.33 11.33 0 0 1-11.34 11.34v5.67c12.53 0 22.68-7.61 22.68-17V92.47a14.17 14.17 0 0 1 14.17-14.17 14.17 14.17 0 0 1-14.17-14.17z" transform="translate(-2.83 -1.89)"/>
  <path class="year" d="M338.51 154v-2.92a8 8 0 0 1 1.07-4.34 10.13 10.13 0 0 1 2.69-2.86 20.62 20.62 0 0 1 3.48-2 35.68 35.68 0 0 0 3.48-1.82 10.35 10.35 0 0 0 2.69-2.25 5 5 0 0 0 1.07-3.3 4.82 4.82 0 0 0-1.5-3.79 5.53 5.53 0 0 0-3.83-1.34 6 6 0 0 0-2.39.43 4.54 4.54 0 0 0-1.66 1.19 4.83 4.83 0 0 0-1 1.78 7.48 7.48 0 0 0-.32 2.21h-3.79a10.38 10.38 0 0 1 .67-3.81 8.6 8.6 0 0 1 1.88-2.94 8.34 8.34 0 0 1 2.88-1.9 9.76 9.76 0 0 1 3.65-.67 10.28 10.28 0 0 1 3.71.65 8.89 8.89 0 0 1 2.92 1.8 7.83 7.83 0 0 1 1.9 2.79 9.35 9.35 0 0 1 .67 3.57 8.09 8.09 0 0 1-1 4.31 10.13 10.13 0 0 1-2.63 2.86 19.29 19.29 0 0 1-3.44 2q-1.86.85-3.46 1.74a11.38 11.38 0 0 0-2.69 2 4.25 4.25 0 0 0-1.17 2.86h13.94V154h-17.82zM370.62 154.36a9.78 9.78 0 0 1-3.77-.71 8.62 8.62 0 0 1-2.94-2 8.75 8.75 0 0 1-1.9-3 11 11 0 0 1-.67-3.91v-9.36a11 11 0 0 1 .67-3.91 9 9 0 0 1 1.9-3.06 8.51 8.51 0 0 1 2.94-2 9.76 9.76 0 0 1 3.77-.71 9.61 9.61 0 0 1 3.75.71 8.78 8.78 0 0 1 2.94 2 9.08 9.08 0 0 1 1.94 3.06 10.72 10.72 0 0 1 .69 3.91v9.36a10.72 10.72 0 0 1-.69 3.91 8.71 8.71 0 0 1-4.88 5 9.63 9.63 0 0 1-3.75.71zm0-3.75a6.06 6.06 0 0 0 2.17-.37 4.48 4.48 0 0 0 1.72-1.17 5.5 5.5 0 0 0 1.15-2.05 9.67 9.67 0 0 0 .42-3v-7.94a9.63 9.63 0 0 0-.42-3 5.72 5.72 0 0 0-1.15-2.05 4.4 4.4 0 0 0-1.72-1.18 6.08 6.08 0 0 0-2.17-.38 5.2 5.2 0 0 0-3.89 1.56q-1.52 1.56-1.52 5.12V144q0 3.52 1.52 5.08a5.2 5.2 0 0 0 3.89 1.53zM387 131.8a3.16 3.16 0 0 1-1.4.63 10.12 10.12 0 0 1-1.92.16v-3.75a9.75 9.75 0 0 0 1.82-.14 2.52 2.52 0 0 0 1.11-.45 1.55 1.55 0 0 0 .53-.83 5 5 0 0 0 .14-1.26h3.59V154H387v-22.2zM405.07 154.44a10.24 10.24 0 0 1-3.85-.69 8 8 0 0 1-2.9-2 8.85 8.85 0 0 1-1.84-3 11.24 11.24 0 0 1-.65-3.93v-1a14 14 0 0 1 .69-4.7 22.53 22.53 0 0 1 1.72-3.71l5.29-9.24h4.19l-5.06 8.65a9.51 9.51 0 0 1 3.24-.51 9.21 9.21 0 0 1 3.58.65 7.42 7.42 0 0 1 2.65 1.84 8 8 0 0 1 1.66 2.84 11.22 11.22 0 0 1 .57 3.67v1.54a11 11 0 0 1-.67 3.93 9 9 0 0 1-1.88 3 8.2 8.2 0 0 1-2.92 2 10.12 10.12 0 0 1-3.82.66zm0-3.75a6.72 6.72 0 0 0 2.17-.33 4.39 4.39 0 0 0 1.72-1.07 4.81 4.81 0 0 0 1.13-1.9 8.73 8.73 0 0 0 .39-2.79v-1.42a5.6 5.6 0 0 0-1.5-4.29 5.5 5.5 0 0 0-3.91-1.4 5.41 5.41 0 0 0-3.91 1.4 5.68 5.68 0 0 0-1.46 4.29v1.42q0 3.28 1.44 4.68a5.39 5.39 0 0 0 3.93 1.41z" transform="translate(-2.83 -1.89)"/>
</svg>
