<?xml version="1.0" standalone="no"?>
<!DOCTYPE svg PUBLIC "-//W3C//DTD SVG 20010904//EN"
 "http://www.w3.org/TR/2001/REC-SVG-20010904/DTD/svg10.dtd">
<svg version="1.0" xmlns="http://www.w3.org/2000/svg"
 width="1083.000000pt" height="1083.000000pt" viewBox="0 0 1083.000000 1083.000000"
 preserveAspectRatio="xMidYMid meet">
<metadata>
Created by potrace 1.11, written by Peter Selinger 2001-2013
</metadata>
<g transform="translate(0.000000,1083.000000) scale(0.100000,-0.100000)"
fill="#000000" stroke="none">
<path d="M4517 9994 c-1 -1 -45 -5 -97 -8 -92 -7 -126 -10 -220 -21 -25 -3
-65 -7 -90 -10 -25 -3 -52 -7 -60 -10 -8 -2 -40 -7 -70 -10 -30 -4 -86 -13
-125 -22 -38 -8 -83 -17 -100 -20 -143 -24 -595 -164 -630 -195 -5 -4 -16 -8
-25 -8 -26 0 -319 -152 -425 -220 -267 -173 -463 -377 -573 -595 -39 -78 -73
-169 -85 -230 -4 -17 -10 -43 -14 -60 -4 -16 -8 -484 -9 -1039 -1 -554 -5
-1029 -8 -1055 -26 -243 -209 -491 -486 -658 -137 -82 -366 -172 -505 -199
-11 -2 -54 -10 -95 -18 -104 -20 -220 -32 -351 -35 l-26 -1 2 -162 c1 -90 3
-165 4 -168 0 -3 20 -6 44 -6 128 -1 266 -18 407 -49 381 -86 658 -248 865
-508 63 -79 131 -247 141 -345 3 -31 7 -514 8 -1072 3 -1083 1 -1036 52 -1190
19 -60 90 -201 126 -253 254 -360 677 -631 1273 -814 44 -13 87 -26 95 -28 8
-2 42 -10 75 -19 56 -14 171 -39 232 -51 16 -3 39 -7 53 -10 45 -9 154 -26
195 -31 22 -2 49 -6 60 -8 11 -2 56 -7 100 -11 44 -4 91 -9 105 -11 14 -3 152
-7 307 -11 l281 -6 1 402 0 401 -132 1 c-237 2 -369 20 -535 76 -351 116 -603
358 -638 610 -4 26 -8 507 -9 1068 -1 561 -5 1031 -8 1045 -4 14 -11 48 -17
77 -21 116 -96 293 -176 419 -64 101 -196 245 -284 312 -19 15 -37 30 -40 33
-9 12 -160 107 -190 121 -16 7 -30 16 -30 19 0 4 26 22 58 39 292 164 526 441
626 742 62 186 60 135 62 1268 1 938 3 1041 19 1100 81 311 438 555 915 625
36 5 231 13 357 15 l22 0 0 399 0 399 -215 -1 c-119 -1 -216 -3 -217 -3z"/>
<path d="M5889 9983 c0 -10 -1 -190 -2 -400 l-2 -383 40 0 c102 -1 313 -10
335 -14 14 -3 41 -7 60 -10 280 -44 535 -168 698 -340 77 -81 120 -150 152
-246 l23 -65 2 -1025 c1 -564 5 -1045 9 -1070 24 -155 51 -246 111 -375 111
-239 303 -445 554 -594 68 -41 80 -52 65 -58 -37 -14 -180 -108 -249 -164
-110 -89 -285 -285 -285 -318 0 -6 -3 -11 -7 -11 -5 0 -13 -10 -19 -23 -6 -12
-27 -51 -46 -87 -58 -110 -114 -295 -127 -420 -1 -8 -3 -478 -5 -1045 -3
-1017 -3 -1031 -24 -1095 -60 -182 -210 -339 -435 -454 -207 -105 -405 -150
-687 -155 -85 -1 -157 -4 -159 -6 -3 -3 -5 -672 -2 -769 l1 -29 273 7 c270 6
300 8 413 20 177 20 298 39 459 72 140 29 121 24 266 63 319 86 628 219 864
372 368 240 599 539 659 854 13 68 15 228 16 1085 0 553 3 1021 5 1040 23 164
112 329 255 470 262 260 692 422 1147 433 l63 2 0 168 c0 152 -2 167 -17 168
-270 8 -473 45 -687 123 -104 38 -284 128 -316 159 -11 9 -22 17 -25 17 -14 0
-123 91 -179 148 -107 110 -183 235 -222 367 -19 65 -19 31 -27 1610 -2 314
-6 584 -10 600 -14 57 -38 140 -46 160 -68 169 -157 302 -296 440 -127 128
-143 140 -290 239 -149 101 -273 167 -455 244 -86 36 -341 128 -365 131 -5 1
-28 7 -50 13 -22 6 -42 12 -45 13 -50 12 -247 57 -280 65 -25 5 -76 14 -115
20 -38 6 -81 13 -94 15 -23 4 -77 11 -146 20 -16 2 -68 7 -115 10 -47 4 -101
9 -120 11 -19 2 -144 7 -277 9 -227 5 -243 4 -244 -12z"/>
</g>
</svg>
